<svg width="100" height="98" viewBox="0 0 100 98" fill="none" xmlns="http://www.w3.org/2000/svg">
<mask id="mask0_18_102" style="mask-type:alpha" maskUnits="userSpaceOnUse" x="0" y="0" width="100" height="98">
<rect width="100" height="98" fill="#D9D9D9"/>
</mask>
<g mask="url(#mask0_18_102)">
<path fill-rule="evenodd" clip-rule="evenodd" d="M-124.95 25.5251V30.7486H-120.723H-116.496V25.5251V20.3015H-120.723H-124.95V25.5251ZM-35.8346 25.5251V30.7486H-31.6076H-27.3806V25.5251V20.3015H-31.6076H-35.8346V25.5251ZM7.92752 28.205V33.1106H7.03238H6.13725V34.2436V35.3767L4.76968 35.4019L3.40211 35.4272L3.37476 36.858L3.34731 38.2888H1.55824H-0.230835L-0.204681 41.264L-0.178421 44.2392H13.5967H27.3718L27.3981 41.264L27.4243 38.2888H22.9473H18.4702V36.8353V35.3818H17.0778H15.6853V34.2462V33.1106H14.7902H13.8951V28.205V23.2993H10.9113H7.92752V28.205ZM86.1026 28.205V33.1106H85.2075H84.3124V34.2436V35.3767L82.9448 35.4019L81.5772 35.4272L81.5499 36.8571L81.5224 38.2869L77.1239 38.3106L72.7253 38.3342L72.6978 41.3098L72.6702 44.2852L85.7767 44.2622L98.8832 44.2392L98.9094 41.264L98.9356 38.2888H97.7905H96.6453V36.8378V35.3868L95.2778 35.3616L93.9102 35.3363L93.8823 34.2269L93.8544 33.1176L92.9872 33.0914L92.1199 33.0652L92.0942 28.1823L92.0685 23.2993H89.0855H86.1026V28.205ZM-106.49 31.3164L-106.552 33.7011L-106.655 48.9422L-106.758 64.1833L-106.698 64.2723L-106.638 64.3614H-103.871H-101.104L-101.042 56.8893L-100.979 49.4173L-100.893 39.2427L-100.808 29.068L-100.85 28.9999L-100.893 28.9317H-103.661H-106.428L-106.49 31.3164ZM-51.8857 30.0446L-51.9417 30.7941L-51.9944 43.149L-52.0472 55.504L-52.1113 60.0689L-52.1753 64.6339H-49.3422H-46.5092L-46.443 60.5686L-46.3768 56.5033L-46.325 43.467L-46.2732 30.4307L-46.2295 29.8629L-46.1859 29.2951H-49.0078H-51.8297L-51.8857 30.0446ZM-113.34 37.26L-113.388 37.3349L-113.451 41.968L-113.515 46.6011L-113.532 51.2103L-113.548 55.8196L-113.505 55.8572L-113.463 55.8947L-112.07 55.9265L-110.678 55.9582L-110.628 46.6466L-110.578 37.3349V37.3237V37.3125L-111.936 37.2488L-113.293 37.185L-113.34 37.26ZM-42.2995 41.6805V45.7082L-42.3655 51.0376L-42.4316 56.367H-41.0327H-39.6337L-39.577 55.345L-39.5202 54.323L-39.462 45.9879L-39.4037 37.6529H-40.8517H-42.2995V41.6805ZM21.73 63.7027L21.7027 65.1335L19.8378 65.1583L17.9729 65.183V66.8162V68.4494H16.2821H14.5913V69.4033V70.3571H11.8064H9.02158V72.5829V74.8086H12.5524H16.0832V75.5807V76.3529H25.7805H35.4778V75.5807V74.8086H35.8756H36.2735V76.3902V77.9718L37.094 78.0224L37.9145 78.0729L50.7697 78.1168L63.6248 78.1607V76.5755V74.9902H64.068H64.5112L64.5404 75.6489L64.5697 76.3075L74.2421 76.3307L83.9145 76.3538V75.5812V74.8086H87.4951H91.0756V72.5829V70.3571H88.2907H85.5059V69.4054V68.4537L83.7902 68.4289L82.0745 68.404L82.0474 66.7935L82.0202 65.183L80.1576 65.1583L78.2951 65.1335L78.2677 63.7027L78.2403 62.2719H75.4242H72.6081L72.5426 64.6566L72.4771 67.0413L72.4769 69.8943L72.4767 72.7474L64.147 72.688L55.8172 72.6285L43.7329 72.5809L31.6486 72.5334L29.4356 72.4799L27.2226 72.4263V67.3492V62.2719H24.49H21.7575L21.73 63.7027ZM-97.9968 70.1154V71.2656L-94.2919 71.2866L-90.587 71.3076L-88.3989 71.3167L-86.2108 71.3258L-70.6206 71.4007L-55.0303 71.4755V70.3403V69.2051L-61.3211 69.1455L-67.6119 69.0859L-82.8043 69.0255L-97.9968 68.9652V70.1154ZM-82.8789 114.372V118.142H-86.1114H-89.3438V122.547V126.951L-92.8995 126.975L-96.4551 126.999L-96.4805 135.015L-96.506 143.03L-99.1162 143.054L-101.726 143.079L-101.753 144.964L-101.78 146.849H-103.37H-104.959V148.043V149.238L-105.779 149.179L-106.6 149.121L-107.122 149.12L-107.644 149.12V144.85V140.58H-110.28H-112.916V144.85V149.12H-113.662H-114.408V150.119V151.118H-115.652H-116.897L-116.871 153.957L-116.844 156.796L-110.902 156.82L-104.959 156.843V157.478V158.114H-103.37H-101.782L-101.754 159.408L-101.726 160.703L-99.1157 160.727L-96.5049 160.751V166.109V171.468H-89.8411H-83.1773V169.515V167.561H-81.6854H-80.1935L-80.1933 181.711L-80.193 195.86L-80.1277 197.972L-80.0623 200.084H-76.1654H-72.2685L-72.203 198.025L-72.1373 195.967V181.764V167.561H-70.6454H-69.1535V169.515V171.468H-62.44H-55.7265V166.108V160.748H-53.1406H-50.5546V159.431V158.114H-48.9633H-47.3719V157.478V156.842H-41.4044H-35.4368V153.98V151.118H-36.6303H-37.8238V150.119V149.12H-38.6195H-39.4152V144.85V140.58H-42.0508H-44.6865V144.85V149.12H-45.1188H-45.5511L-46.4615 149.179L-47.3719 149.238V148.043V146.849H-48.9633H-50.5546V144.941V143.033H-53.1401H-55.7254L-55.7509 135.016L-55.7762 126.999L-59.3816 126.975L-62.987 126.951V122.548V118.144L-66.1946 118.12L-69.4022 118.096L-69.4281 114.349L-69.4541 110.602H-76.1665H-82.8789V114.372ZM-73.4054 130.315L-72.4357 130.315V131.405V132.495H-70.3989H-68.3619L-68.3351 134.335L-68.3081 136.174L-66.8908 136.2L-65.4735 136.225V139.811V143.397H-66.9157H-68.3579V145.212V147.027L-70.3719 147.051L-72.386 147.076L-72.4139 148.189L-72.4419 149.302H-76.1685H-79.8952V148.214V147.126L-81.4616 147.101L-83.0281 147.076L-83.0551 145.236L-83.0819 143.397H-84.9697H-86.8573V139.763V136.129H-84.9676H-83.0779V134.312V132.495H-81.4865H-79.8952V131.345V130.195L-77.1352 130.255L-74.3752 130.315L-73.4054 130.315ZM64.5199 159.34V181.461H68.6475H72.7751V159.34V137.219H68.6475H64.5199V159.34ZM-111.722 184.003V187.908L-108.564 187.932L-105.406 187.956L-105.38 189.932L-105.353 191.908H-102.172H-98.9914V193.907V195.905H-91.0843H-83.1773V188.138V180.371H-95.3611H-107.545V180.234V180.098H-109.634H-111.722V184.003ZM-44.6865 180.234V180.371H-56.92H-69.1535V188.138V195.905H-61.1968H-53.24V193.907V191.908H-50.0573H-46.8746V189.909V187.911H-43.6919H-40.5092V184.004V180.098H-42.5979H-44.6865V180.234ZM1.8605 191.678V196.898L0.841034 196.924L-0.178421 196.95L-0.206177 198.154L-0.233917 199.357H-1.77267H-3.31139V202.855V206.352H5.19238H13.6962V204.717V203.082H14.937H16.1779L16.2051 204.604L16.2324 206.125L17.7989 206.15L19.3654 206.175V207.49V208.805H21.1556H22.9459V209.941V211.076H27.8227H32.6995L32.6713 210.054L32.6432 209.032L31.4231 209.007L30.2029 208.981L30.2296 206.736L30.2562 204.49L31.4745 204.465L32.6929 204.439V203.76V203.082H28.8637H25.0345V201.769V200.455L24.3135 200.429L23.5924 200.402L23.5949 199.607L23.5974 198.812H17.1086H10.6199L10.5915 197.881L10.5632 196.95L9.59346 196.924L8.62373 196.898V191.678V186.457H5.24211H1.8605V191.678ZM90.1805 191.681V196.904H89.1361H88.0918V197.858V198.812H81.4315H74.7712L74.7429 199.743L74.7145 200.675L74.1924 200.702L73.6702 200.73L73.6691 201.656L73.668 202.582L73.6064 202.923L73.5447 203.264H69.7783H66.0118V203.849V204.435L66.534 204.463L67.0562 204.49L67.0827 206.738L67.1094 208.987H66.5605H66.0118V210.032V211.076H70.8853H75.7589V209.941V208.805H77.5491H79.3394V207.49V206.175L80.9059 206.15L82.4724 206.125L82.4996 204.604L82.5269 203.082H83.7677H85.0086V204.717V206.352H93.5633H102.118L102.092 202.878L102.066 199.403L100.499 199.378L98.9329 199.353V198.129V196.904H97.9383H96.9437V191.681V186.457H93.5621H90.1805V191.681ZM51.1178 188.978L52.187 189.007L53.2561 188.978L54.3253 188.949H52.187H50.0486L51.1178 188.978ZM64.4871 189.169L64.5431 189.364H56.5748H48.6064V191.181V192.998H54.11H59.6136L66.1943 193.058L72.7751 193.119V191.105V189.092H70.2548H67.7344L66.0827 189.032L64.431 188.973L64.4871 189.169ZM74.7836 193.407L74.7873 193.679L74.8332 193.519L74.879 193.358L74.8295 193.246L74.78 193.134L74.7836 193.407ZM52.1069 200.606L53.1705 200.635L54.295 200.606L55.4194 200.577L53.2313 200.577L51.0432 200.577L52.1069 200.606ZM68.5177 200.697L69.5813 200.726L70.7058 200.697L71.8302 200.668L69.6421 200.668L67.454 200.668L68.5177 200.697ZM33.8509 204.127L33.7879 205.126L33.7875 205.636L33.787 206.146L38.7351 206.204L43.6832 206.261L54.2507 206.319L64.8183 206.377V204.832V203.286L54.6486 203.229L44.4789 203.172L39.1964 203.149L33.914 203.127L33.8509 204.127Z" fill="#2E4990"/>
<path fill-rule="evenodd" clip-rule="evenodd" d="M46.0827 17.3665L46.0153 18.5196L45.9807 18.5512L45.9461 18.5828H44.2427H42.5394V20.5777V22.5726H40.401H38.2626V26.4663V30.3599L38.7848 30.4173L39.307 30.4746L40.8734 30.4753L42.4399 30.4761V32.4747V34.4733H44.1805H45.921V35.6398V36.8061L48.4733 36.8662L51.0257 36.9261H52.598H54.1704L54.1981 35.7224L54.2259 34.5187L56.4886 34.5301L58.7513 34.5415V32.8381V31.1348L58.8134 30.8509L58.8756 30.567H60.4545H62.0334L62.0521 26.8877L62.0707 23.2085L62.077 22.9587L62.0832 22.7089L60.4669 22.6839L58.8507 22.6589V20.6626V18.6663H56.6129H54.3751V17.4966V16.327L54.0643 16.2702L53.7534 16.2134H49.9518H46.1503L46.0827 17.3665ZM-122.83 20.2787L-120.66 20.305L-118.553 20.2787L-116.446 20.2522H-120.723L-125 20.2523L-122.83 20.2787ZM-33.7144 20.2787L-31.5444 20.305L-29.4376 20.2787L-27.3308 20.2522H-31.6076L-35.8844 20.2523L-33.7144 20.2787ZM53.0606 21.1774L53.0889 22.0988L53.3092 22.1528L53.5296 22.2068L54.0539 22.2079L54.5781 22.2092L54.5512 24.0488L54.5242 25.8885L53.7534 25.915L52.9826 25.9415V26.8461V27.7508H49.1037H45.2248V26.7969V25.843H44.2302H43.2356V23.9839V22.1247L44.2551 22.0988L45.2745 22.073L45.3029 21.1407L45.3312 20.2085L49.1818 20.2322L53.0324 20.2561L53.0606 21.1774ZM92.1165 28.1596V33.0652L92.1447 30.5832L92.1728 28.1013L92.1447 25.6776L92.1165 23.2539V28.1596ZM-106.507 28.9595L-106.557 29.0781L-106.528 30.2086L-106.5 31.3392L-106.45 30.0899L-106.401 28.8406L-106.429 28.8407L-106.457 28.8409L-106.507 28.9595ZM-50.48 29.2723L-49.0627 29.3001L-47.6454 29.2723L-46.2281 29.2444H-49.0627H-51.8973L-50.48 29.2723ZM-46.3028 43.467L-46.3776 57.3209L-46.4163 60.1371L-46.455 62.9533L-46.4114 62.3855L-46.3679 61.8177H-44.4492H-42.5306L-42.4645 58.0704L-42.3985 54.323L-42.3327 45.9903L-42.267 37.6576L-40.8162 37.6299L-39.3654 37.6022L-40.8325 37.5821L-42.2995 37.5621V34.8821V32.2022H-44.2363H-46.1729L-46.2006 30.9076L-46.2281 29.6131L-46.3028 43.467ZM-108.564 31.816L-110.529 31.8426V34.517V37.1913L-111.349 37.2219L-112.17 37.2525L-111.338 37.271L-110.506 37.2895L-110.564 37.5848L-110.621 37.88L-110.639 49.6445L-110.658 61.4089L-108.716 61.4335L-106.774 61.4581L-106.712 57.1638L-106.651 52.8695L-106.588 42.3087L-106.525 31.748L-106.563 31.7687L-106.6 31.7893L-108.564 31.816ZM6.07648 34.2462L6.07677 35.4272L6.11157 34.8102L6.1465 34.1932L6.11128 33.6292L6.07608 33.0652L6.07648 34.2462ZM15.724 34.2462L15.7243 35.4272L15.7591 34.8102L15.7941 34.1932L15.7589 33.6292L15.7236 33.0652L15.724 34.2462ZM93.8987 34.2008V35.3363L93.9341 34.7686L93.9693 34.2008L93.9341 33.633L93.8987 33.0652V34.2008ZM-113.446 37.2593L-113.512 37.3198V37.8043V38.2888H-116.397H-119.281V38.9751V39.6614L-121.225 39.6457L-123.17 39.63L-123.207 39.664L-123.244 39.698L-123.309 46.579L-123.374 53.46H-121.377H-119.381V54.1413V54.8226L-118.063 54.8229L-116.745 54.8233L-115.178 54.8826L-113.612 54.9419V55.4728V56.0036L-112.344 55.984L-111.076 55.9644L-112.294 55.9358L-113.512 55.9071L-113.521 55.3422L-113.53 54.7772L-113.509 49.2357L-113.487 43.6941L-113.425 40.4463L-113.363 37.1985L-113.372 37.1986L-113.38 37.1987L-113.446 37.2593ZM-39.4491 42.9141L-39.5146 47.1306V51.1935V55.2562L-36.9038 55.3219L-34.293 55.3875L-34.0444 55.3549L-33.7957 55.3223L-33.746 54.6409L-33.6963 53.9596H-31.7329H-29.7696L-29.7269 53.8578L-29.6843 53.7559L-29.6585 46.9535L-29.6328 40.1511L-31.6396 40.1265L-33.6465 40.102V39.4252V38.7484L-36.515 38.7231L-39.3835 38.6976L-39.4491 42.9141ZM-39.6141 55.8628V56.3579L-40.186 56.3907L-40.7579 56.4235L-40.1363 56.4407L-39.5146 56.4579V55.9128V55.3677H-39.5644H-39.6141V55.8628ZM23.126 62.2491L24.5493 62.277L25.9109 62.249L27.2724 62.221L24.4875 62.2211L21.7026 62.2212L23.126 62.2491ZM75.4082 62.2485L78.2402 62.2748L78.2677 63.7041L78.295 65.1336L80.1576 65.1583L82.0202 65.183L82.0498 66.7935L82.0794 68.404L82.1019 66.7461L82.1242 65.0881H80.237H78.3499L78.3224 63.6573L78.295 62.2265L75.4356 62.2244L72.576 62.2223L75.4082 62.2485ZM-49.7838 64.7018L-48.6649 64.7308L-47.546 64.7018L-46.4271 64.6728H-48.6649H-50.9027L-49.7838 64.7018ZM19.788 65.0653L17.8735 65.0921L17.8959 66.7935L17.9184 68.4948L17.948 66.8369L17.9774 65.179H19.8093H21.6412L21.7026 65.0881L21.7641 64.9973L21.7334 65.0179L21.7026 65.0385L19.788 65.0653ZM14.529 69.4033L14.5294 70.4026L14.5654 69.8769L14.6014 69.3512L14.565 68.8776L14.5286 68.404L14.529 69.4033ZM-55.0089 70.2872L-55.0303 71.4437L-57.1438 71.4701L-59.2573 71.4965L-57.1407 71.5173L-55.024 71.5382L-54.9741 71.4193L-54.9242 71.3005L-54.9559 70.2156L-54.9875 69.1308L-55.0089 70.2872ZM-98.0644 70.7205V71.311L-98.0243 71.0158L-97.9841 70.7205L-98.0243 70.4253L-98.0644 70.1301V70.7205ZM8.96527 72.5829L8.96507 74.854L8.9964 73.7464L9.02763 72.6388L8.99651 71.4753L8.96538 70.3117L8.96527 72.5829ZM-86.9305 71.3308L-86.6557 71.3687L-86.4332 71.3296L-86.2108 71.2903L-86.7081 71.2916L-87.2054 71.2929L-86.9305 71.3308ZM-76.7316 71.4243L-75.5075 71.4529L-74.3446 71.4242L-73.1816 71.3955L-75.5687 71.3956L-77.9557 71.3957L-76.7316 71.4243ZM35.6518 74.8727L35.8756 74.912L36.0994 74.8727L36.3232 74.8333H35.8756H35.428L35.6518 74.8727ZM63.6659 76.5801L63.6661 78.2153L63.699 77.3703L63.7318 76.5255L63.6988 75.7351L63.6657 74.9448L63.6659 76.5801ZM36.4487 78.0524L36.6736 78.0919L36.8465 78.0506L37.0194 78.0092L36.6216 78.0111L36.2237 78.0129L36.4487 78.0524ZM51.0658 78.1446L51.3868 78.181L51.7621 78.1453L52.1372 78.1095L51.441 78.1088L50.7448 78.1081L51.0658 78.1446ZM55.1956 78.1451L55.5686 78.1808L55.9415 78.1451L56.3145 78.1095H55.5686H54.8226L55.1956 78.1451ZM-76.1417 110.579L-69.4541 110.603L-69.4281 114.35L-69.4022 118.096L-66.1956 118.12L-62.9889 118.144L-62.9617 122.526L-62.9344 126.908L-62.9359 122.502L-62.9373 118.096L-66.1438 118.072L-69.3503 118.048L-69.3762 114.302L-69.4022 110.556L-76.1157 110.555L-82.8292 110.554L-76.1417 110.579ZM-87.7212 118.119L-86.049 118.146L-84.4391 118.119L-82.8292 118.091L-86.1114 118.092H-89.3935L-87.7212 118.119ZM-96.538 127.014L-96.6043 127.075V135.009V142.942H-99.1347H-101.665L-101.711 143.011L-101.757 143.079L-99.1322 143.053L-96.507 143.027L-96.4811 134.991L-96.4551 126.954H-96.4634H-96.4718L-96.538 127.014ZM-79.8952 131.36V132.495H-81.4865H-83.0779V134.31V136.125L-84.9925 136.152L-86.907 136.179L-84.9427 136.199L-82.9784 136.22V134.405V132.591L-81.4119 132.566L-79.8454 132.541L-79.8174 131.473L-79.7894 130.406L-78.226 130.397L-76.6627 130.388L-76.4141 130.315L-76.1654 130.242L-78.0303 130.233L-79.8952 130.224V131.36ZM-74.3535 130.383L-72.5414 130.41L-72.5135 131.475L-72.4854 132.541L-70.4714 132.565L-68.4573 132.59V134.405V136.22L-68.3827 136.22L-68.3081 136.22L-68.3369 134.358L-68.3657 132.495H-70.4007H-72.4357V131.405V130.315L-74.3006 130.336L-76.1654 130.356L-74.3535 130.383ZM-65.573 139.763V143.306H-67.0152H-68.4573L-68.4346 145.191L-68.412 147.076L-68.3828 145.236L-68.3538 143.397H-66.9136H-65.4735V139.808V136.22H-65.5233H-65.573V139.763ZM-54.4584 143.01L-53.1406 143.039L-51.8227 143.01L-50.5049 142.982H-53.1406H-55.7762L-54.4584 143.01ZM-84.9945 143.374L-83.0819 143.401L-83.0551 145.238L-83.0281 147.076L-81.4616 147.101L-79.8952 147.126V148.214V149.302H-76.1711H-72.447L-72.4165 148.166L-72.386 147.03L-72.4606 147.03L-72.5352 147.03V148.121V149.211H-76.1654H-79.7957V148.121V147.03H-81.387H-82.9784V145.168V143.306L-84.9427 143.326L-86.907 143.347L-84.9945 143.374ZM-47.3329 148.03V149.256L-47.2981 148.643L-47.2634 148.03L-47.2981 147.417L-47.3329 146.803V148.03ZM-114.469 150.119V151.164L-114.434 150.642L-114.398 150.119L-114.434 149.597L-114.469 149.075V150.119ZM-47.3527 157.453L-47.3719 158.109L-48.9881 158.136L-50.6044 158.164L-48.9851 158.184L-47.3657 158.204L-47.3139 158.081L-47.2622 157.958L-47.2979 157.377L-47.3336 156.796L-47.3527 157.453ZM-104.188 158.181L-103.368 158.212L-102.547 158.181L-101.726 158.151H-103.368H-105.009L-104.188 158.181ZM-96.5577 166.108V171.513L-96.5298 168.811L-96.5019 166.108L-96.5298 163.405L-96.5577 160.703V166.108ZM-83.1775 168.629L-83.1777 169.696L-83.2433 172.354L-83.3088 175.011H-95.4268H-107.545V177.509V180.007H-109.683H-111.822V184.004V188.002H-108.641H-105.46L-105.43 189.978L-105.4 191.953L-105.403 189.955L-105.406 187.956L-108.564 187.932L-111.722 187.908V184.003V180.098H-109.634H-107.545V180.234V180.371H-95.36H-83.1751L-83.1773 188.161L-83.1795 195.951L-83.1784 196.655L-83.1773 197.359H-81.6606H-80.1438L-80.1693 182.46L-80.1947 167.562H-81.686H-83.1773L-83.1775 168.629ZM-72.1373 181.764V195.967L-72.2029 198.024L-72.2684 200.082L-76.2061 200.107L-80.1438 200.133L-76.1654 200.131L-72.187 200.13L-72.1596 198.744L-72.1321 197.359H-70.618H-69.1038L-69.1362 188.865L-69.1688 180.371H-56.9276H-44.6865V180.236V180.102L-42.573 180.075L-40.4595 180.049L-42.6227 180.028L-44.786 180.007V177.509V175.011H-56.904H-69.022L-69.0876 172.354L-69.1531 169.696L-69.1533 168.629L-69.1535 167.562H-70.6454H-72.1373V181.764ZM24.761 181.25L23.6421 181.285V184.993V188.701L25.1589 188.759L26.6756 188.818L36.2734 188.866L45.8713 188.914L60.2742 189.013L74.677 189.111L74.7169 189.075L74.7567 189.038L74.7684 185.272L74.7801 181.506L72.5591 181.489L70.3383 181.471L51.8886 181.375L33.4389 181.279L29.6594 181.247L25.8799 181.214L24.761 181.25ZM1.80758 191.681V196.95L1.83553 194.345L1.86347 191.739L1.83562 189.076L1.80767 186.412L1.80758 191.681ZM90.1275 191.681V196.95L90.1555 194.345L90.1834 191.739L90.1556 189.076L90.1276 186.412L90.1275 191.681ZM-45.3081 187.979L-43.6919 188.006L-42.0757 187.979L-40.4595 187.951H-43.6919H-46.9244L-45.3081 187.979ZM-99.0483 193.907V195.951L-99.0165 194.929L-98.9848 193.907L-99.0165 192.885L-99.0483 191.863V193.907ZM23.6202 196.564L23.5743 200.311L23.6331 200.368L23.6918 200.424L46.4183 200.529L69.1448 200.634L71.9296 200.654L74.7145 200.675L74.7405 196.882L74.7664 193.089L72.1545 193.087L69.5426 193.085L47.6615 192.953L25.7805 192.82L24.7233 192.818L23.6662 192.816L23.6202 196.564ZM-0.284256 197.023L-0.334076 197.142L-0.305435 198.272L-0.276894 199.403L-0.227661 198.153L-0.178429 196.904L-0.206383 196.904L-0.234428 196.904L-0.284256 197.023ZM-3.36292 202.923L-3.36113 206.398L5.19238 206.399L13.7459 206.399L5.21843 206.375L-3.30901 206.351L-3.33686 202.9L-3.36472 199.448L-3.36292 202.923ZM33.8204 203.809V204.49L33.8594 204.149L33.8985 203.809L33.8594 203.468L33.8204 203.127V203.809ZM38.5373 206.235L38.7622 206.274L38.9352 206.233L39.108 206.192L38.7102 206.194L38.3124 206.195L38.5373 206.235ZM49.6756 206.329L50.6951 206.359L51.7145 206.329L52.734 206.3H50.6951H48.6561L49.6756 206.329ZM89.2679 206.421L93.577 206.445L97.8214 206.421L102.066 206.396H93.5123H84.9588L89.2679 206.421ZM25.4007 211.144L27.8056 211.17L30.2742 211.144L32.7426 211.118H27.8691H22.9956L25.4007 211.144ZM68.4237 211.144L70.8853 211.17L73.3469 211.144L75.8086 211.118H70.8853H65.9621L68.4237 211.144Z" fill="#3ABDAB"/>
<path fill-rule="evenodd" clip-rule="evenodd" d="M-83.6746 1.6889V5.78765L-87.2416 5.75195L-90.8086 5.71625L-90.8714 6.58155L-90.9342 7.44685L-90.9346 11.3759L-90.9351 15.305H-94.9633H-98.9914V20.9339V26.5629L-99.9114 26.589L-100.831 26.6152L-96.3664 26.5797L-91.9016 26.5441L-91.9796 39.9339L-92.0576 53.3237L-92.118 60.0462L-92.1784 66.7688L-94.7643 66.7974L-97.3503 66.8259L-99.1625 66.7648L-100.975 66.7038L-101.006 65.5553L-101.037 64.4068L-101.058 65.6105L-101.08 66.8142H-100.185H-99.2897L-99.2896 67.8816V68.949L-88.166 68.9817L-77.0424 69.0144L-76.9769 68.0364L-76.9114 67.0585V61.6656V56.2729L-69.439 56.2779L-61.9667 56.2829L-61.9368 56.2555L-61.9068 56.2282L-61.8004 42.0122L-61.6941 27.7962L-61.6933 24.8437L-61.6925 21.8912L-61.6281 18.7359L-61.5639 15.5806L-59.0679 15.5547L-56.5719 15.5288L-59.0833 15.5077L-61.5946 15.4867V10.6719V5.85706H-65.1752H-68.7557V1.78374V-2.28948L-72.56 -2.34953L-76.3643 -2.40958L-80.0195 -2.40976L-83.6746 -2.40985V1.6889ZM54.9425 1.20043L57.7477 1.22677L57.7845 1.81627L57.8212 2.40567L57.8138 1.7921L57.8064 1.17853L54.9718 1.17635L52.1373 1.17417L54.9425 1.20043ZM35.6185 10.9444V12.625L35.6514 11.7847L35.6842 10.9444L35.6514 10.1041L35.6185 9.26375V10.9444ZM41.3708 9.37595L41.8432 9.41002L42.3156 9.37595L42.7881 9.34188H41.8432H40.8983L41.3708 9.37595ZM62.3567 9.4677L63.227 9.49795L64.0972 9.4677L64.9675 9.43736H63.227H61.4864L62.3567 9.4677ZM64.8638 13.8969L64.8637 17.6215L64.8928 15.788L64.9219 13.9545L64.8928 12.0633L64.8638 10.1722V13.8969ZM-72.7092 12.728L-72.1373 12.7847V13.9399V15.0951L-70.7789 15.1546L-69.4205 15.2141H-68.5411H-67.6616V17.1547V19.0951L-67.1395 19.1524L-66.6173 19.2098L-65.547 19.2105L-64.4768 19.2113L-64.5027 23.0949L-64.5287 26.9786L-66.1449 27.0035L-67.7611 27.0285V28.9794V30.9303H-69.9836H-72.206L-72.2686 32.1241L-72.3311 33.3179L-72.3585 33.3427L-72.386 33.3676L-76.4638 33.3073L-80.5416 33.2469L-80.5583 32.1264L-80.575 31.0058L-80.6409 30.9454L-80.7068 30.8849L-82.4046 30.856L-84.1024 30.8272L-84.0466 28.8868L-83.9907 26.9464L-84.1392 26.8944L-84.2877 26.8423H-86.2847H-88.2818L-88.2162 24.1851L-88.1507 21.5279L-88.1505 20.2986L-88.1503 19.0694L-86.5114 19.1056L-84.8725 19.1417L-84.4247 19.0804L-83.9769 19.019L-83.95 17.0485L-83.9233 15.0778H-82.1827H-80.4422L-80.4144 13.8762L-80.3867 12.6745L-76.8339 12.673L-73.2811 12.6714L-72.7092 12.728ZM-53.692 19.2113V22.8905L-53.6628 21.0509L-53.6338 19.2113L-53.6628 17.3717L-53.692 15.5321V19.2113ZM9.39456 18.28L10.9113 18.3076L12.4281 18.28L13.9448 18.2523H10.9113H7.87779L9.39456 18.28ZM89.06 18.28L92.067 18.3055L92.0952 20.8252L92.1232 23.3448L92.1464 20.7784L92.1697 18.212L89.1113 18.2334L86.0529 18.2547L89.06 18.28ZM27.5545 19.4838V20.1652L27.5934 19.8245L27.6325 19.4838L27.5934 19.1432L27.5545 18.8025V19.4838ZM69.4169 19.0971L72.7723 19.1229L72.8006 21.9379L72.8291 24.753L72.827 21.9139L72.8248 19.075L69.4432 19.0731L66.0616 19.0713L69.4169 19.0971ZM-51.9081 28.0233V29.2497L-51.8733 28.6365L-51.8385 28.0233L-51.8733 27.4101L-51.9081 26.7969V28.0233ZM-100.846 28.1596L-100.846 28.9772L-100.808 28.5938L-100.77 28.2104L-100.808 27.7762L-100.845 27.3419L-100.846 28.1596ZM-124.926 39.2654L-124.95 47.8275L-124.13 47.8093L-123.309 47.791L-124.08 47.76L-124.85 47.7291L-124.876 39.2161L-124.902 30.7032L-124.926 39.2654ZM-35.7889 34.7458V38.7884L-35.7601 36.7671L-35.7314 34.7458L-35.7601 32.7245L-35.7889 30.7032V34.7458ZM-27.48 39.2881V47.7367H-28.5231H-29.5661L-29.5935 44.5798L-29.6211 41.423L-29.6446 44.6252L-29.6681 47.8275H-28.5244H-27.3806V39.3335V30.8395H-27.4303H-27.48V39.2881ZM27.4637 32.9743L27.4639 34.8821L27.4959 33.9006L27.5279 32.919L27.4957 31.9929L27.4635 31.0666L27.4637 32.9743ZM72.7151 37.017V38.3342L72.7495 37.6756L72.7838 37.017L72.7495 36.3583L72.7151 35.6997V37.017ZM-33.6131 39.4698V40.1511L-33.5741 39.8104L-33.535 39.4698L-33.5741 39.1291L-33.6131 38.7884V39.4698ZM-122.036 39.6284L-121.061 39.6582L-120.146 39.6282L-119.231 39.5983L-121.121 39.5985L-123.011 39.5987L-122.036 39.6284ZM-123.317 43.5124L-123.317 45.4201L-123.285 44.4386L-123.253 43.4571L-123.285 42.5309L-123.317 41.6046L-123.317 43.5124ZM27.3661 46.9191V49.599L27.3965 48.259L27.4268 46.9191L27.3965 45.5791L27.3661 44.2392V46.9191ZM72.6182 48.6906L72.6184 50.5983L72.6505 49.6168L72.6825 48.6352L72.6503 47.7091L72.6181 46.7828L72.6182 48.6906ZM27.3202 57.3663L27.3184 60.5913L27.2603 65.323L27.2022 70.0546L33.8513 70.1149L40.5005 70.1753L45.3491 70.1754L50.1978 70.1755V65.2357V60.296L50.2599 60.0121L50.3221 59.7283H47.74H45.1581L40.2184 59.668L35.2789 59.6077V56.8992V54.1908L31.3005 54.166L27.322 54.1413L27.3202 57.3663ZM72.5185 60.4096L72.5184 62.2265L72.5508 61.3456L72.5832 60.4646L72.5509 59.5287L72.5187 58.5927L72.5185 60.4096ZM-52.2454 66.8996V66.9849L-52.6184 67.0206L-52.9914 67.0562L-52.5687 67.0714L-52.146 67.0867V66.9504V66.8142H-52.1957H-52.2454V66.8996ZM-54.0126 67.2684V67.5864L-53.9672 67.4274L-53.9216 67.2684L-53.9672 67.1094L-54.0126 66.9504V67.2684ZM-54.8046 69.1483L-54.6287 69.1901L-54.5062 69.1449L-54.3838 69.0997L-54.6822 69.103L-54.9806 69.1064L-54.8046 69.1483ZM-87.1557 73.4005V75.4445H-86.4097H-85.6638V77.3522V79.26H-84.8681H-84.0724V81.3948V83.5297H-83.5751H-83.0779V87.5723V91.6149H-82.0335H-80.9892V94.2948V96.9748H-82.4796H-83.97L-83.9985 94.3176L-84.0272 91.6603L-84.0249 94.3403L-84.0227 97.0202L-82.4585 97.0452L-80.8943 97.0703L-80.8672 98.6804L-80.84 100.291H-79.3979H-77.9557V98.6554V97.0202L-78.2789 96.9918L-78.6022 96.9632V94.2891V91.6149H-79.0497H-79.4973V87.582V83.5491L-79.6465 83.4968L-79.7957 83.4446V81.3522V79.26H-80.1438H-80.4919V77.3522V75.4445H-80.7406H-80.9892V73.4005V71.3564H-84.0724H-87.1557V73.4005ZM-73.2314 73.4459V75.4445H-73.5297H-73.8281V77.3522V79.26H-74.1265H-74.4249V81.3948V83.5297H-74.6238H-74.8227V87.5723V91.6149H-75.1211H-75.4195V94.2897V96.9643L-75.8422 96.9923L-76.2649 97.0202L-76.292 98.6781L-76.3191 100.336H-74.825H-73.3308V98.7027V97.0694L-71.3168 97.0448L-69.3027 97.0202L-69.3004 94.2948L-69.2981 91.5695L-69.3268 94.2721L-69.3554 96.9748H-71.0448H-72.7341V94.2948V91.6149H-71.9384H-71.1427V87.5723V83.5297H-70.6454H-70.1481V81.3948V79.26H-69.3524H-68.5568V77.3522V75.4445H-67.8108H-67.0649V73.4459V71.4473H-70.1481H-73.2314V73.4459ZM83.9343 75.6018L83.9145 76.3496L81.6021 76.3757L79.2897 76.4019L81.6052 76.4228L83.9208 76.4438L83.972 76.3217L84.0233 76.1997L83.9887 75.5268L83.954 74.854L83.9343 75.6018ZM-92.385 77.3068L-92.3848 79.2145L-92.3527 78.2331L-92.3207 77.2515L-92.3529 76.3253L-92.3851 75.399L-92.385 77.3068ZM17.3072 76.4208L18.4815 76.4496L19.5947 76.4207L20.7081 76.3918L18.4205 76.3919L16.1329 76.392L17.3072 76.4208ZM64.7189 79.7455L64.7686 83.1209H69.0951H73.4216L73.4494 81.9649L73.4772 80.8089L75.0408 80.7814L76.6043 80.7539L74.9881 80.7337L73.3718 80.7135V81.8945V83.0755H69.0951H64.8183V79.765V76.4545L64.7437 76.4123L64.6691 76.3701L64.7189 79.7455ZM23.489 79.3734L23.4929 80.7589L25.0595 80.7625L26.6261 80.7661L25.087 80.7375L23.5478 80.7089L23.5163 79.3484L23.4849 77.988L23.489 79.3734ZM42.44 78.942V79.805H42.9373H43.4345V81.1223V82.4396H43.9791H44.5236L44.551 83.9158L44.5783 85.392L44.9016 85.4204L45.2248 85.449V88.2594V91.0698H45.9708H46.7167V92.8837V94.6975L45.6475 94.7267L44.5783 94.7559L46.2443 94.7752L47.9102 94.7945V95.9301V97.0656H48.3578H48.8054V95.9364V94.8071L48.5816 94.7781L48.3578 94.7491L48.3309 92.864L48.304 90.979H48.0574H47.8108V88.2082V85.4374H47.6616H47.5124V83.9385V82.4396H47.3135H47.1145V81.1592V79.8789L46.9156 79.8314L46.7167 79.7839V78.9787V78.1736L48.7805 78.147L50.8443 78.1205L46.6421 78.0998L42.44 78.079V78.942ZM52.0875 78.942V79.805H51.8886H51.6897V81.1223V82.4396H51.4908H51.2918V83.8959V85.3523L51.1427 85.4046L50.9935 85.4569V88.2073V90.9578L50.7966 91.0048L50.5998 91.0519L50.5728 92.9005L50.5459 94.7491L50.2724 94.7778L49.9989 94.8066V95.9361V97.0656L50.4216 97.0658L50.8443 97.066L50.8131 96.0086L50.782 94.9513L50.8752 94.8662L50.9684 94.7811L52.8955 94.7682L54.8226 94.7554L53.6043 94.7267L52.3859 94.698V92.8885V91.0789L52.9578 91.0517L53.5297 91.0244L53.5559 88.2309L53.5823 85.4374H53.8768H54.1712L54.1985 83.9612L54.2259 82.485L54.7454 82.4576L55.2648 82.4302L55.2924 81.1404L55.3199 79.8505L55.8421 79.823L56.3643 79.7955V78.9966V78.1976L55.2454 78.1387L54.1264 78.0798L53.107 78.0794L52.0875 78.079V78.942ZM61.7551 79.0067L61.7351 79.7982L60.8151 79.8282L59.8951 79.8582L60.8182 79.877L61.7413 79.8959L61.7924 79.7743L61.8435 79.6527L61.8093 78.934L61.7751 78.2152L61.7551 79.0067ZM-89.5197 81.3721L-89.5427 83.5297H-88.6983H-87.854L-87.8265 87.5496L-87.7991 91.5695L-87.8007 87.5269L-87.8022 83.4843L-88.6209 83.4579L-89.4396 83.4316L-89.4682 81.3231L-89.4969 79.2145L-89.5197 81.3721ZM-64.7544 81.3231L-64.7773 83.4315L-65.5979 83.4579L-66.4184 83.4843L-66.4199 87.5269L-66.4215 91.5695L-66.394 87.5496L-66.3666 83.5297H-65.5688H-64.771L-64.7225 83.414L-64.674 83.2985L-64.7027 81.2565L-64.7316 79.2145L-64.7544 81.3231ZM37.0344 79.8278L37.0809 79.8959H37.9176H38.7544L38.785 81.145L38.8158 82.3941L38.8376 81.1059L38.8594 79.8175L37.9237 79.7886L36.9881 79.7596L37.0344 79.8278ZM-92.8497 81.5987L-92.0292 81.6293L-91.2087 81.5987L-90.3881 81.5681H-92.0292H-93.6703L-92.8497 81.5987ZM-63.0119 81.5987L-62.1914 81.6293L-61.3708 81.5987L-60.5503 81.5681H-62.1914H-63.8325L-63.0119 81.5987ZM39.3318 82.5065L39.854 82.5399L40.3762 82.5065L40.8983 82.4732H39.854H38.8097L39.3318 82.5065ZM58.4281 82.5065L58.9502 82.5399L59.4724 82.5065L59.9945 82.4732H58.9502H57.9059L58.4281 82.5065ZM28.7959 83.1435L31.0156 83.1699L33.1721 83.1435L35.3286 83.1172H30.9524L26.5762 83.1173L28.7959 83.1435ZM58.5972 85.1195L58.6021 86.1188L59.7212 86.1234L60.8403 86.1281L59.7493 86.0978L58.6583 86.0675L58.6253 85.0939L58.5924 84.1202L58.5972 85.1195ZM38.4864 86.1405L39.0583 86.1733L39.6302 86.1405L40.2021 86.1077H39.0583H37.9146L38.4864 86.1405ZM-91.291 86.9222L-91.3423 87.0442L-91.3128 87.7171L-91.2833 88.3899L-90.4627 88.4163L-89.6422 88.4427V87.6214V86.8001H-90.4409H-91.2398L-91.291 86.9222ZM-64.5784 87.6141V88.4353H-63.7846H-62.9908L-62.9339 88.2281L-62.8769 88.0209L-62.9072 87.4332L-62.9373 86.8455L-63.7579 86.8192L-64.5784 86.7928V87.6141ZM39.5556 88.2536V88.7987H40.1524H40.7491V88.2536V87.7086H40.1524H39.5556V88.2536ZM58.0551 88.2536V88.7987H58.6518H59.2486V88.2536V87.7086H58.6518H58.0551V88.2536ZM42.5643 91.0464L43.2356 91.0781L43.907 91.0464L44.5783 91.0146H43.2356H41.8929L42.5643 91.0464ZM55.2454 91.046L55.7675 91.0794L56.2897 91.046L56.8118 91.0126H55.7675H54.7232L55.2454 91.046ZM43.0546 94.2676L43.0367 94.7854L42.4648 94.8182L41.8929 94.851L42.4679 94.8682L43.043 94.8853L43.0955 94.7602L43.1481 94.6351L43.1103 94.1925L43.0725 93.7498L43.0546 94.2676ZM55.6868 94.3176L55.6681 94.8853L56.2897 94.8682L56.9113 94.851L56.3442 94.8183L55.7772 94.7857L55.7415 94.2678L55.7057 93.7498L55.6868 94.3176ZM-68.0158 96.3843L-68.0097 97.111L-67.2141 97.1166L-66.4184 97.122L-67.1852 97.0902L-67.9521 97.0584L-67.987 96.3579L-68.0218 95.6575L-68.0158 96.3843ZM-87.4789 97.1321L-87.0562 97.1669L-86.6335 97.1321L-86.2108 97.0973H-87.0562H-87.9016L-87.4789 97.1321ZM-79.1989 98.6554V100.245H-79.9946H-80.7903V98.6554V97.0656H-79.9946H-79.1989V98.6554ZM-73.4303 98.6554V100.245H-74.226H-75.0216V98.6554V97.0656H-74.226H-73.4303V98.6554ZM57.0604 126.976L57.0605 127.045L60.7654 127.025L64.4702 127.005L63.1772 126.98L61.8843 126.954L59.4723 126.931L57.0603 126.908L57.0604 126.976ZM36.0994 127.022L37.9643 127.049L39.8291 127.022L41.694 126.995H37.9643H34.2345L36.0994 127.022ZM-78.1763 130.379L-79.7894 130.41L-79.8174 131.476L-79.8454 132.541L-81.4119 132.566L-82.9784 132.591V134.405V136.22H-84.9179H-86.8573V139.763V143.306H-84.9179H-82.9784V145.168V147.03H-81.387H-79.7957V148.121V149.211H-76.1654H-72.5352V148.121V147.03H-70.4962H-68.4573V145.168V143.306H-67.0152H-65.573V139.763V136.22H-67.0152H-68.4573V134.405V132.59L-70.4714 132.565L-72.4854 132.541L-72.5135 131.473L-72.5414 130.406L-74.2043 130.405L-75.867 130.404L-76.2151 130.376L-76.5633 130.348L-78.1763 130.379ZM-73.5297 134.808V135.667L-72.8584 135.693L-72.187 135.72V137.446V139.172L-72.8584 139.199L-73.5297 139.226V140.085V140.944H-77.0606H-80.5914V140.084V139.225L-81.4616 139.199L-82.3319 139.172L-82.359 137.424L-82.3859 135.675H-81.4887H-80.5914V134.812V133.949H-77.0606H-73.5297V134.808ZM45.0654 135.584V136.901L45.0998 136.243L45.1341 135.584L45.0998 134.925L45.0654 134.267V135.584ZM53.6189 135.584V136.901L53.6533 136.243L53.6876 135.584L53.6533 134.925L53.6189 134.267V135.584ZM58.2968 138.945V141.08L58.3283 140.013L58.3597 138.945L58.3283 137.878L58.2968 136.81V138.945ZM28.0001 137.196L30.1204 137.223L32.1774 137.196L34.2345 137.17L30.0573 137.17H25.88L28.0001 137.196ZM68.6971 137.196L72.7747 137.221L72.8 159.341L72.8254 181.461L72.8251 159.317L72.8248 137.174L68.7221 137.172L64.6194 137.171L68.6971 137.196ZM-114.084 149.095L-113.711 149.131L-113.338 149.095L-112.965 149.06H-113.711H-114.457L-114.084 149.095ZM-107.222 149.095L-106.849 149.131L-106.476 149.095L-106.103 149.06H-106.849H-107.595L-107.222 149.095ZM-45.8028 149.096L-45.3775 149.131L-45.0072 149.095L-44.6368 149.06L-45.4325 149.06L-46.2281 149.061L-45.8028 149.096ZM-39.0396 149.096L-38.6142 149.131L-38.2439 149.095L-37.8735 149.06L-38.6692 149.06L-39.4649 149.061L-39.0396 149.096ZM38.1383 149.369L39.2572 149.398L40.3762 149.369L41.4951 149.34H39.2572H37.0194L38.1383 149.369ZM58.2987 149.417L58.2501 149.533L58.2789 151.575L58.3077 153.617L58.3306 151.507L58.3535 149.397L60.0194 149.37L61.6853 149.342L60.0163 149.322L58.3472 149.302L58.2987 149.417ZM-116.024 151.095L-115.502 151.128L-114.979 151.095L-114.457 151.061H-115.502H-116.546L-116.024 151.095ZM-37.1985 151.095L-36.623 151.128L-36.1045 151.095L-35.586 151.061L-36.68 151.062L-37.7741 151.062L-37.1985 151.095ZM43.3102 153.638L45.0259 153.666V154.936V156.206H49.3524H53.6789V154.936V153.666L55.3945 153.639L57.1102 153.612L55.3448 153.592L53.5794 153.571V154.843V156.115H49.3552H45.1309L45.1033 154.866L45.0756 153.617L43.3351 153.613L41.5945 153.61L43.3102 153.638ZM-102.472 173.239V175.011H-92.8746H-83.2768V173.239V171.468H-92.8746H-102.472V173.239ZM-69.0541 173.239V175.011H-59.4562H-49.8584V173.239V171.468H-59.4562H-69.0541V173.239ZM1.8052 183.732V186.503L1.83544 185.117L1.86568 183.732L1.83544 182.347L1.8052 180.961V183.732ZM8.56834 183.687L8.56825 186.412L8.59869 185.078L8.62901 183.743L8.59869 182.352L8.56844 180.961L8.56834 183.687ZM90.1252 183.732V186.503L90.1554 185.117L90.1857 183.732L90.1554 182.347L90.1252 180.961V183.732ZM43.6637 181.347L44.7384 181.376L45.7523 181.347L46.7664 181.317L44.6778 181.318L42.5891 181.318L43.6637 181.347ZM72.819 190L72.8248 190.954L77.0767 190.956L81.3286 190.957L77.105 190.932L72.8815 190.907L72.8474 189.977L72.8133 189.046L72.819 190ZM19.4964 190.977L21.6664 191.003L23.7732 190.977L25.88 190.95H21.6032L17.3264 190.95L19.4964 190.977ZM-88.3492 198.311V200.72H-87.4541H-86.5589V203.037V205.353H-85.5659H-84.5728L-84.5465 207.919L-84.52 210.486L-83.9979 210.513L-83.4757 210.541V215.442V220.343H-82.1827H-80.8897V223.613V226.883H-79.7957H-78.7016V228.882V230.881H-77.906H-77.1103V228.882V226.883H-77.5579H-78.0054V223.613V220.343H-78.5027H-79V215.391V210.44H-79.1989H-79.3979V207.897V205.353H-79.7957H-80.1935V203.037V200.72H-80.5416H-80.8897V199.039V197.359H-82.0294H-83.169L-83.198 196.655L-83.227 195.951L-85.7881 195.926L-88.3492 195.902V198.311ZM-69.0541 196.632V197.359H-70.2476H-71.4411V199.039V200.72H-71.7892H-72.1373V203.037V205.353H-72.5352H-72.933V207.886V210.419L-73.1319 210.467L-73.3308 210.514V215.428V220.343H-73.7287H-74.1265V223.613V226.883H-74.6238H-75.1211V228.882V230.881L-74.3503 230.881L-73.5795 230.881L-73.608 228.882L-73.6366 226.883H-72.6403H-71.6439L-71.6151 228.859L-71.5862 230.835L-71.5633 228.859L-71.5406 226.883H-71.1924H-70.8443V223.613V220.343H-69.8497H-68.8552V215.441V210.54L-68.2833 210.513L-67.7114 210.486L-67.6849 207.919L-67.6586 205.353H-66.7152H-65.7719V203.037V200.72H-64.8768H-63.9816V198.313V195.905H-66.5179H-69.0541V196.632ZM11.2387 196.972L11.9142 197.004L12.5317 196.972L13.1492 196.939L11.8562 196.94L10.5632 196.94L11.2387 196.972ZM86.2311 196.972L86.9066 197.004L87.5241 196.972L88.1416 196.939L86.8486 196.94L85.5556 196.94L86.2311 196.972ZM-80.1535 198.721V200.129L-80.1196 199.425L-80.0857 198.721L-80.1196 198.017L-80.1535 197.313V198.721ZM-94.6712 203.037L-94.6711 205.398L-94.6402 204.189L-94.6093 202.98L-94.6403 201.827L-94.6713 200.675L-94.6712 203.037ZM-57.6723 203.037L-57.6722 205.398L-57.6413 204.189L-57.6104 202.98L-57.6414 201.827L-57.6724 200.675L-57.6723 203.037ZM14.3675 203.149L14.9892 203.181L15.6108 203.149L16.2324 203.117H14.9892H13.7459L14.3675 203.149ZM33.0176 203.147L33.2924 203.185L33.5149 203.146L33.7373 203.107L33.24 203.108L32.7427 203.109L33.0176 203.147ZM83.094 203.149L83.7156 203.181L84.3372 203.149L84.9589 203.117H83.7156H82.4724L83.094 203.149ZM65.0918 203.329L65.4151 203.366L65.7383 203.329L66.0616 203.293H65.4151H64.7686L65.0918 203.329ZM33.0162 204.51L33.2897 204.548L33.5632 204.51L33.8367 204.472H33.2897H32.7427L33.0162 204.51ZM65.0936 204.51L65.4187 204.547L65.6904 204.51L65.9621 204.472L65.3654 204.473L64.7686 204.474L65.0936 204.51ZM-61.1736 207.871L-61.1968 210.434L-62.2162 210.463L-63.2357 210.493L-62.2132 210.512L-61.1905 210.531L-61.1423 210.416L-61.094 210.302L-61.1222 207.805L-61.1504 205.308L-61.1736 207.871ZM38.2849 207.647L38.3124 209.032L39.0832 209.059L39.854 209.085V210.762V212.439H40.6497H41.4454V214.256V216.073H41.9427H42.44V219.661V223.25H43.5323H44.6248L44.6512 225.625L44.6778 228.001L45.5481 227.981L46.4183 227.962V229.421V230.881H47.1145H47.8108V229.427V227.974H47.4626H47.1145V225.617V223.26L46.6918 223.232L46.2691 223.204L46.2431 219.638L46.2171 216.073H46.0193H45.8216V214.21V212.348H45.5255H45.2293L45.2022 210.69L45.1751 209.032L44.9016 209.004L44.6281 208.975V207.665V206.356L46.6918 206.33L48.7556 206.303L43.5066 206.282L38.2575 206.262L38.2849 207.647ZM52.6843 207.611V208.987H52.3859H52.0875V210.662V212.337L51.7643 212.365L51.441 212.394L51.4141 214.233L51.3872 216.073H51.24H51.0929V219.661V223.25H50.7448H50.3967V225.612V227.974H49.9491H49.5016V229.427V230.881H50.1481H50.7945V229.427V227.974H51.9881H53.1816V225.615V223.257L54.0021 223.231L54.8226 223.204L54.8487 219.638L54.8747 216.073H55.3211H55.7675V214.26V212.446L56.5881 212.42L57.4086 212.394L57.4357 210.736L57.4628 209.078H58.2066H58.9502V207.715V206.352H56.4286H53.9069L53.2957 206.294L52.6843 206.236V207.611ZM-59.9568 209.941L-59.9535 211.758H-58.0141H-56.0746L-56.0713 209.941L-56.0679 208.124L-56.0983 209.918L-56.1285 211.712H-58.0141H-59.8996L-59.9299 209.918L-59.9602 208.124L-59.9568 209.941ZM32.7651 209.052L32.8871 209.131L32.9143 210.762L32.9416 212.394L34.4087 212.397L35.8758 212.401L34.4359 212.372L32.9958 212.343L32.9686 210.695L32.9416 209.047L32.7924 209.01L32.6432 208.973L32.7651 209.052ZM64.3874 209.047L64.321 209.108V210.726V212.343L62.854 212.368L61.387 212.394L61.36 214.23L61.3332 216.066L60.5146 216.097L59.6962 216.129L60.5416 216.124L61.387 216.118L61.4139 214.281L61.4408 212.444L62.9058 212.419L64.3708 212.394L64.3978 210.739L64.425 209.085L65.2432 209.054L66.0616 209.024L65.2576 209.005L64.4536 208.987L64.3874 209.047ZM-90.6616 210.507L-90.1395 210.541L-89.6173 210.507L-89.0951 210.474H-90.1395H-91.1838L-90.6616 210.507ZM-95.187 211.78L-94.2173 211.81L-93.2476 211.78L-92.2778 211.75H-94.2173H-96.1568L-95.187 211.78ZM62.3537 215.734L62.3318 217.076L63.9978 217.052L65.6637 217.027L65.6683 215.755L65.6728 214.483L65.6405 215.732L65.6084 216.981H64.0226H62.4368L62.4062 215.687L62.3757 214.392L62.3537 215.734ZM-93.4216 215.482V216.436H-92.3773H-91.333V215.482V214.528H-92.3773H-93.4216V215.482ZM-60.9554 214.649L-61.0061 214.77L-60.9771 215.58L-60.9481 216.391L-59.9287 216.417L-58.9092 216.443V215.485V214.528H-59.9069H-60.9047L-60.9554 214.649ZM36.7447 216.14L37.5642 216.171L37.5913 219.688L37.6186 223.204L37.6422 219.638L37.6659 216.073L36.7956 216.091L35.9254 216.11L36.7447 216.14ZM32.4243 217.049L33.2994 217.079L34.1151 217.049L34.9308 217.018L33.24 217.018L31.5491 217.019L32.4243 217.049ZM34.0064 219.729L34.0356 220.388L34.9059 220.414L35.7762 220.44V219.756V219.071H34.8767H33.9771L34.0064 219.729ZM61.5362 219.752V220.433H62.3816H63.227V219.752V219.071H62.3816H61.5362V219.752ZM-84.5248 223.613V226.929L-84.4952 225.271L-84.4658 223.613L-84.4952 221.955L-84.5248 220.297V223.613ZM-88.7719 225.224L-88.2497 225.258L-87.7276 225.224L-87.2054 225.191H-88.2497H-89.2941L-88.7719 225.224ZM-64.6033 225.224L-64.0811 225.258L-63.5589 225.224L-63.0368 225.191H-64.0811H-65.1254L-64.6033 225.224ZM37.9394 226.768L38.3621 226.803L38.7848 226.768L39.2075 226.733H38.3621H37.5167L37.9394 226.768ZM58.4281 226.768L58.8508 226.803L59.2735 226.768L59.6962 226.733H58.8508H58.0054L58.4281 226.768Z" fill="#FFC114"/>
<path fill-rule="evenodd" clip-rule="evenodd" d="M42.8139 5.24386L42.788 9.35461L39.2487 9.31909L35.7093 9.28357L35.6433 11.7639L35.5772 14.2443V16.5461V18.8479H31.6092H27.6412L27.5836 20.1425L27.526 21.437L27.4748 32.7927L27.4236 44.1483L27.3977 49.1448L27.3718 54.1413L31.3254 54.165L35.2789 54.1888V56.8983V59.6077L40.2184 59.668L45.1581 59.7283H47.74H50.3221L50.2599 60.0121L50.1978 60.296V65.2504V70.2047L38.7102 70.1404L27.2226 70.0762V71.2512V72.4263L29.4356 72.4794L31.6486 72.5323L52.0236 72.6311L72.3986 72.7298L72.4356 72.696L72.4727 72.6623L72.5344 59.768L72.596 46.8737L72.631 46.8212L72.6661 46.7688L72.7363 32.9446L72.8065 19.1205L69.7821 19.12L66.7578 19.1196L65.7811 19.0604L64.8043 19.0014L64.8362 14.2601L64.868 9.51876L62.3406 9.45935L59.8131 9.40003H58.7849H57.7567V5.3268V1.25358L53.5631 1.19335L49.3695 1.13312H46.1046H42.8398L42.8139 5.24386ZM-61.6281 18.7344L-61.6925 21.8912L-61.6933 24.8437L-61.6941 27.7962L-61.8004 42.0122L-61.9068 56.2282L-61.9368 56.2555L-61.9667 56.2829L-69.439 56.2779L-76.9114 56.2729V61.6656V67.0585L-76.976 68.0238L-77.0407 68.9891L-78.2441 69.0175L-79.4476 69.0461L-71.093 69.0884L-62.7384 69.1307H-58.4119H-54.0854L-54.0574 68.0633L-54.0294 66.9959H-53.1393H-52.2492L-52.1956 66.7915L-52.142 66.5871L-52.0197 47.9638L-51.8973 29.3405L-51.9276 28.0914L-51.9578 26.8423H-52.8724L-53.7871 26.8424L-53.7593 21.2099L-53.7314 15.5775H-57.6477H-61.5638L-61.6281 18.7344ZM54.0643 16.2702L54.3751 16.327V17.4966V18.6662H56.6129H58.8507V20.6626V22.6589L60.467 22.6839L62.0832 22.7088L62.077 22.9587L62.0707 23.2085L62.0521 26.8877L62.0335 30.567H60.4545H58.8756L58.8134 30.8508L58.7513 31.1347V32.8381V34.5415L56.4886 34.5301L54.2259 34.5187L54.1981 35.7224L54.1704 36.9261H52.598H51.0257L48.4733 36.8662L45.921 36.8061V35.6398V34.4733H44.1805H42.4399V32.4747V30.4761L40.8735 30.4753L39.307 30.4746L38.7848 30.4172L38.2626 30.3599V26.4663V22.5726H40.401H42.5394V20.5777V18.5828H44.2427H45.9461L45.9807 18.5511L46.0153 18.5196L46.0827 17.3665L46.1503 16.2134H49.9518H53.7535L54.0643 16.2702ZM7.92752 20.8011V23.2993H10.9113H13.8951V20.8011V18.3029H10.9113H7.92752V20.8011ZM86.1026 20.8011V23.2993H89.0864H92.0702V20.8011V18.3029H89.0864H86.1026V20.8011ZM-99.8616 26.6374L-100.782 26.6674L-100.782 27.7769L-100.783 28.8863L-100.834 31.6117L-100.886 34.337L-100.985 48.736L-101.085 63.135L-101.017 64.9199L-100.95 66.7047L-99.1503 66.7653L-97.3503 66.8259L-94.7643 66.7974L-92.1784 66.7688L-92.118 60.0462L-92.0576 53.3237L-91.9797 39.9467L-91.9017 26.5698L-95.4217 26.5887L-98.9416 26.6075L-99.8616 26.6374ZM-124.851 39.2427V47.7367H-124.105H-123.359L-123.344 44.6707L-123.329 41.6046L-123.306 41.5138L-123.282 41.423L-123.271 40.4918L-123.259 39.5606H-121.27H-119.281V38.9247V38.2888H-117.889H-116.496V34.5187V30.7486H-120.674H-124.851V39.2427ZM-35.7352 34.7427V38.7368L-34.666 38.7626L-33.5968 38.7884L-33.5675 39.4471L-33.5383 40.1057H-31.5535H-29.5687V43.9212V47.7367H-28.5254H-27.482L-27.4562 39.2427L-27.4303 30.7486H-31.5827H-35.7352V34.7427ZM27.2613 63.4075L27.2616 64.5885L27.2964 63.9715L27.3314 63.3545L27.2961 62.7905L27.2609 62.2265L27.2613 63.4075ZM-96.424 68.9717L-94.8015 68.999L-93.2413 68.9716L-91.6811 68.9441L-94.8638 68.9441L-98.0465 68.9442L-96.424 68.9717ZM-95.013 73.3431V75.4445H-93.6703H-92.3276V77.3522V79.26H-90.8854H-89.4433V81.3458V83.4315L-88.6227 83.4579L-87.8022 83.4843L-87.7763 87.5496L-87.7504 91.6149H-85.8617H-83.973V94.2949V96.9748H-82.4811H-80.9892V94.2949V91.6149H-82.0335H-83.0779V87.5723V83.5297H-83.5751H-84.0724V81.3948V79.26H-84.8681H-85.6638V77.3522V75.4445H-86.4097H-87.1557L-87.1561 73.3777L-87.1566 71.311L-91.0847 71.2764L-95.013 71.2419V73.3431ZM-67.0649 73.4459V75.4445H-67.8108H-68.5568V77.3522V79.26H-69.3525H-70.1481V81.3948V83.5297H-70.6454H-71.1427V87.5723V91.6149H-71.9384H-72.7341V94.2949V96.9748H-71.0433H-69.3525V94.2949V91.6149H-67.9113H-66.4702L-66.4443 87.5496L-66.4184 83.4843L-65.5979 83.4579L-64.7773 83.4315V81.3458V79.26H-63.3352H-61.893V77.3549V75.4497L-60.5752 75.4244L-59.2573 75.3991L-59.2305 73.4232L-59.2037 71.4473H-63.1342H-67.0649V73.4459ZM20.6793 77.1478L20.7081 77.9427L22.1254 77.9679L23.5427 77.9931V79.3533V80.7135H25.0843H26.6259V81.8945V83.0755H30.9524H35.2789V79.7142V76.3529H27.9647H20.6506L20.6793 77.1478ZM64.7958 79.7142L64.8231 83.0755H69.0975H73.3718V81.8945V80.7135H74.9632H76.5545V79.3508V77.9881H77.9469H79.3394V77.1705V76.3529H72.054L64.7686 76.3528L64.7958 79.7142ZM36.9912 78.8966L37.0194 79.7596L37.9394 79.7858L38.8594 79.8119V81.1258V82.4396H39.854H40.8486V83.9385V85.4374H41.3956H41.9426V88.2056V90.9737L43.2605 90.9991L44.5783 91.0244L44.6053 92.864L44.6321 94.7037H45.6745H46.7167V92.8867V91.0698H45.9708H45.2248V88.2594V85.449L44.9016 85.4205L44.5783 85.392L44.551 83.9158L44.5236 82.4396H43.9791H43.4345V81.1223V79.805H42.9372H42.4399V78.9448V78.0846L39.7014 78.0591L36.9629 78.0336L36.9912 78.8966ZM56.3643 78.9827V79.7955L55.8421 79.823L55.3199 79.8505L55.2924 81.1404L55.2648 82.4302L54.7454 82.4576L54.2259 82.485L54.1985 83.9612L54.1712 85.4374H53.8768H53.5823L53.5559 88.2309L53.5297 91.0244L52.9578 91.0517L52.3859 91.0789V92.8913V94.7037H53.5794H54.7729V92.8413V90.979H55.7675H56.7621V88.2128V85.4465L57.334 85.4193L57.9059 85.392L57.9332 83.9158L57.9606 82.4396H58.9527H59.9448V81.1223V79.805H60.8329H61.721L61.7529 78.9873L61.7848 78.1694L59.0745 78.1696L56.3643 78.1698V78.9827ZM-93.6206 83.0755V84.529H-92.0292H-90.4379V83.0755V81.6219H-92.0292H-93.6206V83.0755ZM-63.7827 83.0777V84.5336L-62.2162 84.5086L-60.6498 84.4836L-60.6224 83.0528L-60.5949 81.6219H-62.1889H-63.7827V83.0777ZM37.9643 85.0741V86.0734H39.0583H40.1524V85.0741V84.0748H39.0583H37.9643V85.0741ZM58.6518 85.0741V86.0734H59.7459H60.8399V85.0741V84.0748H59.7459H58.6518V85.0741ZM41.9426 94.2949V94.7945H42.4897H43.0367V94.2949V93.7952H42.4897H41.9426V94.2949ZM55.7675 94.2949V94.7945H56.3145H56.8616V94.2949V93.7952H56.3145H55.7675V94.2949ZM46.8162 95.9301V97.0656H47.3632H47.9102V95.9301V94.7945H47.3632H46.8162V95.9301ZM50.8376 94.9139L50.7875 95.0333L50.8158 96.0267L50.8443 97.0202H51.3913H51.9383L51.9663 95.9074L51.9942 94.7945H51.4409H50.8877L50.8376 94.9139ZM-87.8519 96.3389V97.0656H-87.0562H-86.2606V96.3389V95.6121H-87.0562H-87.8519V96.3389ZM-67.96 96.3389V97.0656H-67.1643H-66.3687V96.3389V95.6121H-67.1643H-67.96V96.3389ZM-80.7903 98.6554V100.245H-79.9946H-79.1989V98.6554V97.0656H-79.9946H-80.7903V98.6554ZM-75.0216 98.6554V100.245H-74.226H-73.4303V98.6554V97.0656H-74.226H-75.0216V98.6554ZM41.6443 122.684V127.045H37.9145H34.1848V132.132V137.219H30.0572H25.9297V159.193V181.167L30.2313 181.219L34.5329 181.272L49.4962 181.364L64.4594 181.456L64.4893 181.428L64.5191 181.401L64.5199 159.287L64.5207 137.174L64.5203 132.109L64.5199 127.045H60.7902H57.0605V122.684V118.323H49.3524H41.6443V122.684ZM53.6789 135.584V136.856H56.0161H58.3534V138.991V141.126H59.9945H61.6356V145.259V149.392H59.9945H58.3534V151.468V153.544L57.3837 153.603L56.414 153.661L55.0464 153.662L53.6789 153.662V154.934V156.206H49.3524H45.0259V154.934V153.662H43.393H41.76L41.6027 153.607L41.4453 153.552V151.472V149.392H39.2572H37.0691V145.259V141.126H39.2572H41.4453V138.991V136.856H43.2356H45.0259V135.584V134.312H49.3524H53.6789V135.584ZM-112.849 136.19L-112.916 136.25V138.415V140.58H-110.28H-107.644V138.355V136.129H-110.214H-112.783L-112.849 136.19ZM-44.6865 138.355V140.58H-42.0508H-39.4152V138.355V136.129H-42.0508H-44.6865V138.355ZM1.86049 183.732V186.457L5.21726 186.457H8.57401L8.54625 183.732L8.5186 181.007H5.1895H1.86049V183.732ZM90.1805 183.731V186.457H93.5636H96.9467L96.9203 183.755L96.894 181.052L93.5372 181.028L90.1805 181.004V183.731ZM25.908 189.881L25.8799 190.954L21.6281 190.978L17.3762 191.001V192.363V193.725H15.2378H13.0994V195.36V196.995H11.8562H10.6129V197.904V198.812H17.1275H23.6421V195.814V192.815L34.8064 192.862L45.9708 192.909L47.2886 192.953L48.6064 192.997V191.181V189.364H56.5704H64.5345L64.501 189.205L64.4676 189.046L55.0203 188.99L45.5729 188.933L35.7545 188.87L25.9361 188.807L25.908 189.881ZM72.7751 192.018V193.083L73.7857 193.109L74.7964 193.134L74.7732 195.973L74.75 198.812H81.4209H88.0918V197.904V196.995H86.8486H85.6053V195.36V193.725H83.467H81.3286V192.364V191.003L77.0518 190.979L72.775 190.954L72.7751 192.018ZM-97.8741 198.29L-97.8476 200.675L-96.2314 200.7L-94.6151 200.725V203.039V205.353H-92.8746H-91.1341V207.897V210.44H-90.1395H-89.1449V215.391V220.343H-86.8076H-84.4703V223.613V226.883H-82.68H-80.8897V223.613V220.343H-82.1827H-83.4757V215.442V210.541L-83.9979 210.513L-84.52 210.486L-84.5465 207.919L-84.5728 205.353H-85.5659H-86.5589V203.037V200.72H-87.4541H-88.3492V198.313V195.905H-93.1249H-97.9006L-97.8741 198.29ZM-63.9816 198.313V200.72H-64.8768H-65.7719V203.037V205.353H-66.7152H-67.6586L-67.6849 207.919L-67.7114 210.486L-68.2833 210.513L-68.8552 210.54V215.441V220.343H-69.8498H-70.8443V223.613V226.883H-68.7557H-66.667V223.613V220.343H-64.9265H-63.186V215.391V210.44H-62.1914H-61.1968V207.897V205.353H-59.4562H-57.7157V203.039V200.725L-56.0995 200.7L-54.4833 200.675L-54.4567 198.29L-54.4303 195.905H-59.2059H-63.9816V198.313ZM25.0345 201.765V203.082H28.8582H32.6819L34.9003 203.123L37.1189 203.163L55.3297 203.226L73.5404 203.288L73.6043 202.935L73.668 202.582L73.6691 201.662L73.6702 200.742L67.4789 200.688L61.2875 200.633L46.8162 200.539L32.3448 200.444L28.6897 200.446L25.0345 200.447V201.765ZM30.2728 204.505L30.2064 204.566V206.776V208.987L31.4248 208.997L32.6432 209.008L32.7924 209.02L32.9416 209.032L32.9687 210.69L32.9958 212.348H34.4357H35.8756V214.21V216.073H36.7708H37.6659V219.661V223.25H39.6054H41.5448V225.612V227.974H43.0864H44.6281V225.612V223.25H43.534H42.4399V219.661V216.073H41.9426H41.4453V214.256V212.439H40.6497H39.854V210.762V209.085L39.0832 209.059L38.3124 209.032V207.601V206.171L36.0497 206.171L33.787 206.171V205.366V204.562L33.026 204.503L32.265 204.445H31.3021H30.339L30.2728 204.505ZM65.3902 204.51L64.8183 204.545V205.448V206.352H61.8843H58.9502V207.715V209.078H58.2065H57.4628L57.4357 210.736L57.4086 212.394L56.588 212.42L55.7675 212.446V214.26V216.073H55.3211H54.8747L54.8487 219.638L54.8226 223.204L54.0021 223.231L53.1816 223.257V225.615V227.974H54.9221H56.6626V225.614V223.254L58.1297 223.229L59.5967 223.204L59.6227 219.638L59.6487 216.073H60.4909H61.3331L61.36 214.233L61.387 212.394L62.8518 212.368L64.3165 212.343L64.3437 210.688L64.3707 209.032L65.74 209.007L67.1094 208.982L67.0827 206.736L67.0562 204.49L66.5091 204.483L65.9621 204.475L65.3902 204.51ZM-96.2065 209.941V211.712H-94.267H-92.3276V209.941V208.169H-94.267H-96.2065V209.941ZM-59.9038 209.941V211.712H-58.0141H-56.1243V209.941V208.169H-58.0141H-59.9038V209.941ZM31.6652 214.498L31.5989 214.559V215.77V216.981H33.2399H34.881V215.709V214.438H33.3063H31.7314L31.6652 214.498ZM62.4313 215.709V216.981H64.0226H65.614V215.709V214.438H64.0226H62.4313V215.709ZM-89.2231 226.134L-89.1946 227.02H-88.2497H-87.3049L-87.2764 226.134L-87.248 225.248H-88.2497H-89.2515L-89.2231 226.134ZM-65.0544 226.134L-65.026 227.02H-64.0811H-63.1362L-63.1078 226.134L-63.0793 225.248H-64.0811H-65.0829L-65.0544 226.134ZM37.5664 227.428V228.064H38.4118H39.2572V227.428V226.793H38.4118H37.5664V227.428ZM58.0551 227.428V228.064H58.9005H59.7459V227.428V226.793H58.9005H58.0551V227.428ZM-80.6908 228.882V230.881H-79.6962H-78.7016V228.882V226.883H-79.6962H-80.6908V228.882ZM-73.6063 228.859L-73.5795 230.835L-72.6097 230.861L-71.64 230.887V228.885V226.883H-72.6366H-73.6331L-73.6063 228.859ZM44.827 229.427V230.881H45.6226H46.4183V229.427V227.974H45.6226H44.827V229.427ZM50.7945 229.427V230.881H51.6399H52.4853V229.427V227.974H51.6399H50.7945V229.427Z" fill="#AE1010"/>
</g>
</svg>
