<svg width="480" height="480" viewBox="0 0 480 480" fill="none" xmlns="http://www.w3.org/2000/svg">
<rect width="480" height="480" rx="18" fill="#1D0A35"/>
<path fill-rule="evenodd" clip-rule="evenodd" d="M190.582 88.0893C186.34 91.9525 180.472 100.969 177.548 108.129C171.127 123.843 158.483 166.542 156.271 179.975V179.975C155.434 185.054 159.353 189.671 164.501 189.671H192.072C223.222 189.671 232.235 188.764 246.003 184.241C257.89 180.337 265.724 179.264 273.875 180.417C280.109 181.301 294.134 182.7 305.038 183.53L314.211 184.229C320.777 184.729 326.545 188.774 329.252 194.777L332.494 201.964C351.655 244.459 383.91 265.352 403.221 247.779C421.232 231.39 422.889 191.515 407.597 142.525C396.777 107.858 391.437 96.4646 381.978 87.8592C372.614 79.3365 356.676 78.7443 338.443 86.2379C327.709 90.6492 320.071 91.4095 286.408 91.4095C252.744 91.4095 245.107 90.6492 234.373 86.2379C215.934 78.6616 200.216 79.3261 190.582 88.0893ZM360.44 113.267C365.253 119.54 361.162 128.045 353.776 127.116C347.329 126.307 344.534 120.492 347.106 113.241C348.816 108.424 356.734 108.439 360.44 113.267ZM229.019 123.734C229.019 132.353 229.418 132.784 237.388 132.784C245.092 132.784 245.757 133.4 245.757 140.542C245.757 147.684 245.092 148.299 237.388 148.299C229.418 148.299 229.019 148.731 229.019 157.349C229.019 165.681 228.45 166.399 221.845 166.399C215.24 166.399 214.671 165.681 214.671 157.349C214.671 148.731 214.272 148.299 206.302 148.299C198.598 148.299 197.933 147.684 197.933 140.542C197.933 133.4 198.598 132.784 206.302 132.784C214.272 132.784 214.671 132.353 214.671 123.734C214.671 115.403 215.24 114.684 221.845 114.684C228.45 114.684 229.019 115.403 229.019 123.734ZM340.04 134.261C342.106 136.498 343.797 139.324 343.797 140.542C343.797 143.415 336.889 150.885 334.232 150.885C331.576 150.885 324.667 143.415 324.667 140.542C324.667 137.669 331.576 130.199 334.232 130.199C335.358 130.199 337.972 132.027 340.04 134.261ZM377.432 132.875C383.03 136.115 383.446 143.833 378.269 148.48C370.815 155.169 361.473 142.202 367.805 133.953C371.239 129.477 371.509 129.446 377.432 132.875ZM361.767 158.766C363.759 165.549 358.804 172.044 352.401 171.049C347.276 170.255 344.785 163.739 347.106 157.199C349.165 151.399 359.945 152.553 361.767 158.766ZM108.547 197.524C100.378 200.162 91.165 208.969 86.5571 218.542C79.24 233.751 63.6684 290.263 62.3747 306.316C59.7492 338.881 71.1601 365.907 89.0703 369.54C107.258 373.23 134.336 349.402 148.097 317.597L150.641 311.722C153.495 305.13 159.996 300.865 167.18 300.873L193.973 300.904L220.433 300.934C227.786 300.942 234.395 305.422 237.126 312.249L238.053 314.567C246.848 336.556 262.584 356.149 277.996 364.302C290.236 370.776 292.285 371.138 300.915 368.343C307.771 366.122 312.204 362.316 316.932 354.587C323.068 344.562 323.472 342.136 323.472 315.27C323.472 288.319 322.867 284.714 313.163 253.84C296.374 200.418 285.026 189.568 255.846 199.037C236.494 205.318 156.412 207.11 142.086 201.581C128.413 196.309 116.701 194.892 108.547 197.524ZM268.51 231.168C270.501 237.95 265.547 244.446 259.143 243.45C254.019 242.656 251.527 236.14 253.849 229.601C255.908 223.801 266.687 224.954 268.51 231.168ZM135.761 238.801C136.823 246.84 137.842 247.944 144.872 248.674C151.897 249.403 152.703 250.274 152.045 256.431C151.436 262.13 149.946 263.508 143.674 264.165C137.031 264.86 135.948 266.032 135.304 273.215C134.692 280.055 133.439 281.606 127.99 282.283C121.904 283.041 121.414 282.415 121.414 273.88C121.414 265.065 121.046 264.659 113.045 264.659C105.34 264.659 104.675 264.043 104.675 256.901C104.675 250.977 105.761 249.144 109.262 249.144C118.458 249.144 121.414 246.207 121.414 237.061C121.414 228.828 121.938 228.179 127.99 228.934C133.485 229.616 134.762 231.238 135.761 238.801ZM248.961 252.159C254.157 261.124 240.286 269.23 233.928 260.946C231.778 258.143 231.745 255.885 233.796 251.738C236.957 245.353 245.15 245.581 248.961 252.159ZM286.018 248.829C287.778 250.036 288.854 253.799 288.409 257.194C287.766 262.127 286.169 263.366 280.463 263.366C275.475 263.366 273.07 261.957 272.489 258.691C270.631 248.26 277.687 243.119 286.018 248.829ZM267.182 270.999C272.161 277.487 269.203 284.052 261.3 284.052C254.002 284.052 251.047 278.868 253.849 270.973C255.559 266.156 263.476 266.172 267.182 270.999Z" fill="#4926C1"/>
<path fill-rule="evenodd" clip-rule="evenodd" d="M389.567 330.891C384.726 334.083 382.94 337.796 382.933 344.683L382.926 350.872L379.176 351.183L375.426 351.493L375.132 358.18L374.837 364.867L378.632 365.18L382.426 365.493L382.699 383.782L382.971 402.07L391.699 401.782L400.426 401.493L400.699 383.243L400.971 364.993H409.494H418.017L417.722 358.243L417.426 351.493L409.176 351.203L400.926 350.912V347.512C400.926 345.641 401.487 343.764 402.173 343.34C402.86 342.916 407.81 342.692 413.173 342.842L422.926 343.114V336.679C422.926 330.271 422.913 330.24 419.801 329.618C418.082 329.274 411.22 328.996 404.551 329C394.358 329.005 391.97 329.307 389.567 330.891ZM26.888 332.243C23.787 333.807 21.849 335.675 20.533 338.369C16.775 346.066 17.479 362.379 21.795 367.619C25.847 372.539 29.425 373.449 46.176 373.82L61.926 374.169V379.958C61.926 383.953 61.448 386.145 60.385 387.027C59.19 388.019 54.361 388.167 38.885 387.688L18.926 387.07V393.933V400.796L30.676 401.556C37.138 401.975 48.276 402.356 55.426 402.405C70.787 402.509 74.885 401.083 78.341 394.428C82.628 386.177 81.374 368.703 76.138 363.707C71.942 359.705 68.782 358.994 55.111 358.978C39.128 358.96 37.544 358.302 37.112 351.502C36.648 344.181 37.162 343.993 57.617 343.993H74.926V336.993V329.993H53.138C32.532 329.993 31.108 330.115 26.888 332.243ZM88.926 365.993V401.993H97.926H106.926V390.993V379.993H110.855H114.784L120.696 390.743L126.608 401.493L135.767 401.781C140.804 401.939 144.926 401.671 144.926 401.187C144.926 400.702 141.745 394.497 137.857 387.399C133.97 380.301 130.707 374.22 130.607 373.887C130.369 373.091 144.261 349.045 144.975 349.016C145.667 348.987 166.989 400.072 166.953 401.672C166.889 404.491 163.727 405.993 157.855 405.993H151.926V412.386C151.926 419.986 151.936 419.993 163.048 419.993C174.241 419.993 179.234 417.303 183.468 408.993C185.44 405.122 205.926 349.356 205.926 347.858C205.926 347.318 201.993 347.04 196.687 347.205L187.448 347.493L182.437 363.66C179.681 372.552 177.159 380.094 176.833 380.42C176.506 380.746 173.423 373.349 169.98 363.981L163.72 346.95L145.094 347.221L126.467 347.493L121.096 356.743L115.724 365.993H111.325H106.926V347.993V329.993H97.926H88.926V365.993ZM219.426 331.202C215.206 332.682 212.929 334.872 210.807 339.493C209.196 343.002 208.967 346.324 208.948 366.531C208.927 388.464 209.034 389.782 211.176 394.008C214.876 401.309 218.05 402.508 233.426 402.414C240.576 402.37 250.813 401.991 256.176 401.57L265.926 400.806V393.994V387.181L247.776 387.742C230.916 388.263 229.529 388.171 228.276 386.457C227.259 385.066 226.926 380.092 226.926 366.302C226.926 342.26 225.256 343.993 248.426 343.993H265.926V336.993V329.993L244.176 330.072C231.756 330.117 221.139 330.602 219.426 331.202ZM429.505 337.993C429.187 339.643 428.665 342.343 428.347 343.993C427.861 346.509 427.296 346.993 424.847 346.993H421.926V353.993V360.993H424.859H427.791L428.109 377.243C428.402 392.244 428.6 393.737 430.689 396.665C434.407 401.878 439.931 403.368 452.39 402.519L462.926 401.801V394.937V388.074L454.676 387.783L446.426 387.493L446.147 374.243L445.868 360.993H452.397H458.926V353.993V346.993H452.426H445.926V340.993V334.993H438.005H430.085L429.505 337.993ZM302.25 347.432C299.953 348.151 296.525 349.696 294.632 350.866C290.185 353.614 289.926 353.566 289.926 349.993V346.993H281.926H273.926V374.532V402.071L282.676 401.782L291.426 401.493L291.926 382.993L292.426 364.493L296.926 363.323C299.401 362.68 304.239 362.118 307.676 362.073L313.926 361.993V353.993V345.993L310.176 346.06C308.114 346.097 304.547 346.714 302.25 347.432ZM338.426 346.597C336.226 346.805 331.164 347.242 327.176 347.569L319.926 348.164V354.695V361.226L326.176 360.622C336.045 359.668 348.365 359.528 349.703 360.355C350.376 360.771 350.926 362.39 350.926 363.954V366.797L337.63 367.145C322.915 367.53 320.501 368.362 316.882 374.297C315.408 376.715 314.933 379.319 314.933 384.993C314.933 393.334 316.693 397.485 321.586 400.689C326.078 403.63 338.911 403.134 345.863 399.752C351.671 396.925 352.926 396.979 352.926 400.052C352.926 401.812 353.674 401.993 360.926 401.993H368.926L368.924 379.743C368.923 360.536 368.684 357.024 367.174 354.064C364.13 348.093 361.081 346.635 351.181 346.414C346.366 346.307 340.626 346.389 338.426 346.597ZM350.926 383.362C350.926 386.479 350.645 386.778 347.176 387.351C339.808 388.569 334.06 388.117 333.096 386.243C332.098 384.302 332.64 381.884 334.326 380.758C334.931 380.354 338.914 380.017 343.176 380.008L350.926 379.993V383.362Z" fill="#CC5155"/>
<path fill-rule="evenodd" clip-rule="evenodd" d="M414.176 329.682C415.138 329.934 416.714 329.934 417.676 329.682C418.638 329.431 417.851 329.225 415.926 329.225C414.001 329.225 413.214 329.431 414.176 329.682ZM74.262 336.993C74.262 341.118 74.439 342.806 74.654 340.743C74.87 338.681 74.87 335.306 74.654 333.243C74.439 331.181 74.262 332.868 74.262 336.993ZM89.163 365.743L88.926 401.993L98.176 401.787L107.426 401.582L98.689 401.249L89.951 400.916L89.676 365.204L89.4 329.493L89.163 365.743ZM422.254 336.493C422.259 340.343 422.439 341.795 422.656 339.721C422.872 337.646 422.869 334.496 422.648 332.721C422.427 330.945 422.25 332.643 422.254 336.493ZM22.331 335.243L20.426 337.493L22.676 335.588C24.79 333.798 25.381 332.993 24.581 332.993C24.391 332.993 23.379 334.005 22.331 335.243ZM445.342 340.993L445.426 347.493L451.631 347.79L457.837 348.086L458.186 354.79L458.534 361.493L458.73 354.243L458.926 346.993H452.474H446.021L445.639 340.743L445.257 334.493L445.342 340.993ZM409.688 342.7C410.932 342.939 412.732 342.93 413.688 342.68C414.644 342.43 413.626 342.234 411.426 342.245C409.226 342.256 408.444 342.461 409.688 342.7ZM18.121 347.493C18.141 349.143 18.365 349.697 18.619 348.724C18.873 347.751 18.856 346.401 18.582 345.724C18.308 345.047 18.101 345.843 18.121 347.493ZM400.176 348.243L400.426 351.493L408.631 351.783L416.836 352.072L417.2 358.283L417.563 364.493L417.494 357.993L417.426 351.493L409.236 351.204L401.047 350.914L400.486 347.954C399.946 345.101 399.935 345.112 400.176 348.243ZM309.135 346.719L312.844 347.109L313.184 354.801L313.524 362.493L313.725 354.243L313.926 345.993L309.676 346.161L305.426 346.329L309.135 346.719ZM345.702 346.726C348.054 346.938 351.654 346.935 353.702 346.72C355.75 346.505 353.826 346.332 349.426 346.336C345.026 346.339 343.35 346.515 345.702 346.726ZM127.144 347.544C127.799 348.199 163.053 348.199 163.708 347.544C163.984 347.269 155.757 347.043 145.426 347.043C135.095 347.043 126.868 347.269 127.144 347.544ZM187.577 347.743C187.321 348.156 190.107 348.369 193.768 348.217C205.368 347.736 206.729 347.318 197.235 347.153C192.18 347.065 187.834 347.33 187.577 347.743ZM275.926 347.61C281.81 348.358 289.929 348.435 289.927 347.743C289.927 347.33 286.214 347.06 281.676 347.143C277.138 347.225 274.551 347.436 275.926 347.61ZM328.195 347.686C329.168 347.94 330.518 347.923 331.195 347.649C331.872 347.375 331.076 347.168 329.426 347.188C327.776 347.208 327.222 347.432 328.195 347.686ZM423.176 347.682C424.138 347.934 425.714 347.934 426.676 347.682C427.638 347.431 426.851 347.225 424.926 347.225C423.001 347.225 422.214 347.431 423.176 347.682ZM36.178 351.493C36.189 353.693 36.394 354.475 36.633 353.231C36.872 351.987 36.863 350.187 36.613 349.231C36.363 348.275 36.167 349.293 36.178 351.493ZM363.926 350.493C365.218 351.868 366.5 352.993 366.775 352.993C367.05 352.993 366.218 351.868 364.926 350.493C363.634 349.118 362.352 347.993 362.077 347.993C361.802 347.993 362.634 349.118 363.926 350.493ZM375.341 352.355C375.053 353.104 374.982 356.367 375.183 359.605L375.548 365.493L375.737 358.803L375.926 352.114L379.676 351.721L383.426 351.329L379.645 351.161C377.249 351.055 375.672 351.492 375.341 352.355ZM290.926 352.993C290.025 353.575 289.901 353.968 290.617 353.978C291.272 353.986 292.086 353.543 292.426 352.993C293.193 351.751 292.847 351.751 290.926 352.993ZM18.121 356.493C18.141 358.143 18.365 358.697 18.619 357.724C18.873 356.751 18.856 355.401 18.582 354.724C18.308 354.047 18.101 354.843 18.121 356.493ZM338.176 359.709C339.688 359.938 342.164 359.938 343.676 359.709C345.188 359.48 343.951 359.293 340.926 359.293C337.901 359.293 336.664 359.48 338.176 359.709ZM323.195 360.686C324.168 360.94 325.518 360.923 326.195 360.649C326.872 360.375 326.076 360.168 324.426 360.188C322.776 360.208 322.222 360.432 323.195 360.686ZM445.308 372.493C445.31 379.093 445.472 381.663 445.667 378.204C445.863 374.745 445.862 369.345 445.664 366.204C445.466 363.063 445.306 365.893 445.308 372.493ZM298.739 362.676C299.46 362.965 300.323 362.929 300.655 362.597C300.987 362.265 300.397 362.029 299.343 362.072C298.178 362.12 297.941 362.357 298.739 362.676ZM351.005 364.712C350.928 366.862 350.54 366.941 338.676 367.246L326.426 367.561L338.707 367.777C348.72 367.953 351.093 367.722 351.552 366.526C351.861 365.719 351.883 364.482 351.599 363.776C351.316 363.07 351.048 363.492 351.005 364.712ZM19.926 364.934C19.926 365.452 20.371 366.15 20.915 366.486C21.481 366.836 21.649 366.435 21.308 365.545C20.643 363.813 19.926 363.496 19.926 364.934ZM291.593 364.66C291.226 365.026 290.926 373.334 290.926 383.121V400.915L282.176 401.27L273.426 401.624L282.426 401.559L291.426 401.493L291.926 382.742C292.201 372.428 292.388 363.991 292.343 363.992C292.297 363.992 291.959 364.293 291.593 364.66ZM77.49 366.286C77.866 367.272 78.425 367.827 78.733 367.519C79.041 367.212 78.734 366.405 78.05 365.726C77.062 364.746 76.948 364.861 77.49 366.286ZM400.151 382.704L399.926 400.915L391.176 401.248L382.426 401.582L391.207 401.787C397.593 401.937 400.123 401.642 400.482 400.708C400.753 400.001 400.84 391.564 400.675 381.958L400.376 364.493L400.151 382.704ZM109.19 366.711C110.71 366.94 112.96 366.934 114.19 366.697C115.42 366.46 114.176 366.272 111.426 366.279C108.676 366.287 107.67 366.481 109.19 366.711ZM34.195 373.686C35.168 373.94 36.518 373.923 37.195 373.649C37.872 373.375 37.076 373.168 35.426 373.188C33.776 373.208 33.222 373.432 34.195 373.686ZM80.275 380.993C80.275 385.668 80.448 387.58 80.658 385.243C80.869 382.906 80.869 379.08 80.658 376.743C80.448 374.406 80.275 376.318 80.275 380.993ZM62.236 379.493C62.241 382.793 62.428 384.022 62.651 382.225C62.873 380.428 62.869 377.728 62.641 376.225C62.412 374.722 62.23 376.193 62.236 379.493ZM351.158 382.993C351.158 384.918 351.364 385.705 351.615 384.743C351.867 383.781 351.867 382.205 351.615 381.243C351.364 380.281 351.158 381.068 351.158 382.993ZM24.676 387.699C25.913 387.937 27.939 387.937 29.176 387.699C30.413 387.46 29.401 387.265 26.926 387.265C24.451 387.265 23.439 387.46 24.676 387.699ZM258.176 387.682C259.138 387.934 260.714 387.934 261.676 387.682C262.638 387.431 261.851 387.225 259.926 387.225C258.001 387.225 257.214 387.431 258.176 387.682ZM48.176 388.721C50.239 388.937 53.614 388.937 55.676 388.721C57.739 388.506 56.051 388.329 51.926 388.329C47.801 388.329 46.114 388.506 48.176 388.721ZM234.176 388.721C236.239 388.937 239.614 388.937 241.676 388.721C243.739 388.506 242.051 388.329 237.926 388.329C233.801 388.329 232.114 388.506 234.176 388.721ZM336.676 388.699C337.914 388.937 339.938 388.937 341.176 388.699C342.414 388.46 341.401 388.265 338.926 388.265C336.451 388.265 335.438 388.46 336.676 388.699ZM451.702 388.726C454.054 388.938 457.654 388.935 459.702 388.72C461.75 388.505 459.826 388.332 455.426 388.336C451.026 388.339 449.35 388.515 451.702 388.726ZM213.426 397.993C214.421 399.093 215.461 399.993 215.736 399.993C216.011 399.993 215.421 399.093 214.426 397.993C213.431 396.893 212.391 395.993 212.116 395.993C211.841 395.993 212.431 396.893 213.426 397.993ZM430.926 397.371C430.926 397.578 431.714 398.366 432.676 399.121C434.262 400.364 434.297 400.329 433.054 398.743C431.747 397.077 430.926 396.548 430.926 397.371ZM126.813 401.284C127.25 401.719 131.617 401.941 136.517 401.777L145.426 401.479L135.721 400.986C130.384 400.715 126.375 400.849 126.813 401.284ZM31.176 401.682C32.138 401.934 33.714 401.934 34.676 401.682C35.638 401.431 34.851 401.225 32.926 401.225C31.001 401.225 30.214 401.431 31.176 401.682ZM253.195 401.686C254.168 401.94 255.518 401.923 256.195 401.649C256.872 401.375 256.076 401.168 254.426 401.188C252.776 401.208 252.222 401.432 253.195 401.686ZM356.676 401.725C359.013 401.936 362.839 401.936 365.176 401.725C367.513 401.515 365.601 401.342 360.926 401.342C356.251 401.342 354.339 401.515 356.676 401.725ZM53.206 402.729C55.835 402.936 59.885 402.933 62.206 402.724C64.527 402.514 62.376 402.345 57.426 402.348C52.476 402.351 50.577 402.523 53.206 402.729ZM227.676 402.725C230.014 402.936 233.838 402.936 236.176 402.725C238.514 402.515 236.601 402.342 231.926 402.342C227.251 402.342 225.338 402.515 227.676 402.725ZM329.176 402.709C330.688 402.938 333.164 402.938 334.676 402.709C336.188 402.48 334.951 402.293 331.926 402.293C328.901 402.293 327.664 402.48 329.176 402.709ZM442.654 402.715C444.429 402.936 447.579 402.939 449.654 402.723C451.728 402.506 450.276 402.326 446.426 402.321C442.576 402.317 440.878 402.494 442.654 402.715ZM178.85 414.743L176.426 417.493L179.176 415.069C181.746 412.803 182.385 411.993 181.6 411.993C181.421 411.993 180.184 413.231 178.85 414.743ZM154.676 419.655C155.364 419.933 156.489 419.933 157.176 419.655C157.864 419.378 157.301 419.151 155.926 419.151C154.551 419.151 153.989 419.378 154.676 419.655Z" fill="#B64851"/>
<path fill-rule="evenodd" clip-rule="evenodd" d="M415.676 329.655C416.364 329.933 417.489 329.933 418.176 329.655C418.864 329.378 418.301 329.151 416.926 329.151C415.551 329.151 414.989 329.378 415.676 329.655ZM409.195 342.686C410.168 342.94 411.518 342.923 412.195 342.649C412.872 342.375 412.076 342.168 410.426 342.188C408.776 342.208 408.222 342.432 409.195 342.686ZM18.0051 346.576C18.0531 347.741 18.2901 347.978 18.6091 347.181C18.8981 346.459 18.8621 345.596 18.5301 345.264C18.1981 344.932 17.9621 345.522 18.0051 346.576ZM313.275 353.993C313.275 358.668 313.448 360.58 313.658 358.243C313.869 355.906 313.869 352.08 313.658 349.743C313.448 347.406 313.275 349.318 313.275 353.993ZM343.688 346.7C344.932 346.939 346.732 346.93 347.688 346.68C348.644 346.43 347.626 346.234 345.426 346.245C343.226 346.256 342.444 346.461 343.688 346.7ZM400.33 348.993C400.423 351.424 400.653 351.501 408.631 351.783L416.836 352.072L417.2 358.283L417.563 364.493L417.494 357.993L417.426 351.493L409.239 351.204C401.691 350.937 401.019 350.742 400.642 348.704C400.299 346.852 400.249 346.899 400.33 348.993ZM327.739 347.676C328.46 347.965 329.323 347.929 329.655 347.597C329.987 347.265 329.397 347.029 328.343 347.072C327.178 347.12 326.941 347.357 327.739 347.676ZM36.1211 351.493C36.1411 353.143 36.3651 353.697 36.6191 352.724C36.8731 351.751 36.8561 350.401 36.5821 349.724C36.3081 349.047 36.1011 349.843 36.1211 351.493ZM375.341 352.355C375.053 353.104 374.982 356.367 375.183 359.605L375.548 365.493L375.737 358.806L375.926 352.12L379.176 351.716L382.426 351.313L379.145 351.153C377.175 351.057 375.654 351.537 375.341 352.355ZM18.0051 357.576C18.0531 358.741 18.2901 358.978 18.6091 358.181C18.8981 357.459 18.8621 356.596 18.5301 356.264C18.1981 355.932 17.9621 356.522 18.0051 357.576ZM340.688 359.7C341.932 359.939 343.732 359.93 344.688 359.68C345.644 359.43 344.626 359.234 342.426 359.245C340.226 359.256 339.444 359.461 340.688 359.7ZM324.739 360.676C325.46 360.965 326.323 360.929 326.655 360.597C326.987 360.265 326.397 360.029 325.343 360.072C324.178 360.12 323.941 360.357 324.739 360.676ZM291.151 382.704L290.926 400.915L282.176 401.248L273.426 401.582L282.207 401.787C288.593 401.937 291.123 401.642 291.482 400.708C291.753 400.001 291.84 391.564 291.675 381.958L291.376 364.493L291.151 382.704ZM400.151 382.704L399.926 400.915L391.176 401.248L382.426 401.582L391.207 401.787C397.593 401.937 400.123 401.642 400.482 400.708C400.753 400.001 400.84 391.564 400.675 381.958L400.376 364.493L400.151 382.704ZM109.688 366.7C110.932 366.939 112.732 366.93 113.688 366.68C114.644 366.43 113.626 366.234 111.426 366.245C109.226 366.256 108.444 366.461 109.688 366.7ZM332.676 367.733C336.114 367.929 341.739 367.929 345.176 367.733C348.614 367.538 345.801 367.378 338.926 367.378C332.051 367.378 329.239 367.538 332.676 367.733ZM33.7391 373.676C34.4601 373.965 35.3231 373.929 35.6551 373.597C35.9871 373.265 35.3971 373.029 34.3431 373.072C33.1781 373.12 32.9411 373.357 33.7391 373.676ZM80.0051 374.576C80.0531 375.741 80.2901 375.978 80.6091 375.181C80.8981 374.459 80.8621 373.596 80.5301 373.264C80.1981 372.932 79.9621 373.522 80.0051 374.576ZM62.2261 378.993C62.2261 382.018 62.4131 383.255 62.6421 381.743C62.8711 380.231 62.8711 377.755 62.6421 376.243C62.4131 374.731 62.2261 375.968 62.2261 378.993ZM80.0051 387.576C80.0531 388.741 80.2901 388.978 80.6091 388.181C80.8981 387.459 80.8621 386.596 80.5301 386.264C80.1981 385.932 79.9621 386.522 80.0051 387.576ZM27.1951 387.686C28.1681 387.94 29.5181 387.923 30.1951 387.649C30.8721 387.375 30.0761 387.168 28.4261 387.188C26.7761 387.208 26.2221 387.432 27.1951 387.686ZM257.676 387.655C258.364 387.933 259.489 387.933 260.176 387.655C260.864 387.378 260.301 387.151 258.926 387.151C257.551 387.151 256.989 387.378 257.676 387.655ZM50.1761 388.709C51.6891 388.938 54.1631 388.938 55.6761 388.709C57.1891 388.48 55.9511 388.293 52.9261 388.293C49.9011 388.293 48.6631 388.48 50.1761 388.709ZM233.694 388.718C235.491 388.94 238.191 388.936 239.694 388.708C241.197 388.479 239.726 388.297 236.426 388.303C233.126 388.308 231.897 388.495 233.694 388.718ZM336.688 388.7C337.932 388.939 339.732 388.93 340.688 388.68C341.644 388.43 340.626 388.234 338.426 388.245C336.226 388.256 335.444 388.461 336.688 388.7ZM452.176 388.721C454.239 388.937 457.614 388.937 459.676 388.721C461.739 388.506 460.051 388.329 455.926 388.329C451.801 388.329 450.114 388.506 452.176 388.721ZM30.6761 401.655C31.3641 401.933 32.4891 401.933 33.1761 401.655C33.8641 401.378 33.3011 401.151 31.9261 401.151C30.5511 401.151 29.9891 401.378 30.6761 401.655ZM93.1761 401.728C95.7881 401.934 100.064 401.934 102.676 401.728C105.288 401.522 103.151 401.353 97.9261 401.353C92.7011 401.353 90.5641 401.522 93.1761 401.728ZM131.176 401.728C133.789 401.934 138.063 401.934 140.676 401.728C143.289 401.522 141.151 401.353 135.926 401.353C130.701 401.353 128.563 401.522 131.176 401.728ZM253.676 401.655C254.364 401.933 255.489 401.933 256.176 401.655C256.864 401.378 256.301 401.151 254.926 401.151C253.551 401.151 252.989 401.378 253.676 401.655ZM356.676 401.725C359.013 401.936 362.839 401.936 365.176 401.725C367.513 401.515 365.601 401.342 360.926 401.342C356.251 401.342 354.339 401.515 356.676 401.725ZM53.2061 402.729C55.8351 402.936 59.8851 402.933 62.2061 402.724C64.5271 402.514 62.3761 402.345 57.4261 402.348C52.4761 402.351 50.5771 402.523 53.2061 402.729ZM224.676 402.655C225.364 402.933 226.489 402.933 227.176 402.655C227.864 402.378 227.301 402.151 225.926 402.151C224.551 402.151 223.989 402.378 224.676 402.655ZM231.694 402.718C233.491 402.94 236.191 402.936 237.694 402.708C239.197 402.479 237.726 402.297 234.426 402.303C231.126 402.308 229.897 402.495 231.694 402.718ZM327.739 402.676C328.46 402.965 329.323 402.929 329.655 402.597C329.987 402.265 329.397 402.029 328.343 402.072C327.178 402.12 326.941 402.357 327.739 402.676ZM334.739 402.676C335.46 402.965 336.323 402.929 336.655 402.597C336.987 402.265 336.397 402.029 335.343 402.072C334.178 402.12 333.941 402.357 334.739 402.676ZM440.739 402.676C441.46 402.965 442.323 402.929 442.655 402.597C442.987 402.265 442.397 402.029 441.343 402.072C440.178 402.12 439.941 402.357 440.739 402.676ZM446.19 402.711C447.71 402.94 449.96 402.934 451.19 402.697C452.42 402.46 451.176 402.272 448.426 402.279C445.676 402.287 444.67 402.481 446.19 402.711Z" fill="#A03F4D"/>
</svg>
