<svg width="110" height="113" viewBox="0 0 110 113" fill="none" xmlns="http://www.w3.org/2000/svg">
<mask id="mask0_18_104" style="mask-type:alpha" maskUnits="userSpaceOnUse" x="0" y="0" width="110" height="113">
<rect width="110" height="113" fill="#D9D9D9"/>
</mask>
<g mask="url(#mask0_18_104)">
<path fill-rule="evenodd" clip-rule="evenodd" d="M-119.788 -93.9454V-88.7339H-115.554H-111.32V-93.9454V-99.1569H-115.554H-119.788V-93.9454ZM-30.5271 -93.9454V-88.7339H-26.2932H-22.0592V-93.9454V-99.1569H-26.2932H-30.5271V-93.9454ZM13.3063 -91.2717V-86.3774H12.4097H11.5131V-85.247V-84.1166L10.1433 -84.0914L8.7735 -84.0662L8.74609 -82.6387L8.7186 -81.2112H6.92662H5.13464L5.16083 -78.2429L5.18713 -75.2747H18.9847H32.7822L32.8085 -78.2429L32.8347 -81.2112H28.3504H23.8661V-82.6614V-84.1115H22.4714H21.0767V-85.2445V-86.3774H20.1801H19.2835V-91.2717V-96.166H16.2949H13.3063V-91.2717ZM91.6085 -91.2717V-86.3774H90.7119H89.8153V-85.247V-84.1166L88.4455 -84.0914L87.0757 -84.0662L87.0483 -82.6396L87.0208 -81.2131L82.6152 -81.1895L78.2094 -81.1659L78.1818 -78.1973L78.1543 -75.2287L91.282 -75.2516L104.41 -75.2747L104.436 -78.2429L104.462 -81.2112H103.315H102.168V-82.6588V-84.1065L100.799 -84.1317L99.4287 -84.1569L99.4008 -85.2637L99.3728 -86.3704L98.5042 -86.3966L97.6356 -86.4227L97.6098 -91.2944L97.584 -96.166H94.5962H91.6085V-91.2717ZM-101.297 -88.1675L-101.359 -85.7883L-101.463 -70.5825L-101.566 -55.3767L-101.506 -55.2879L-101.446 -55.199H-98.6741H-95.9026L-95.8401 -62.6538L-95.7774 -70.1085L-95.6915 -80.2596L-95.6057 -90.4107L-95.6484 -90.4786L-95.691 -90.5466H-98.4633H-101.235L-101.297 -88.1675ZM-46.6042 -89.4363L-46.6603 -88.6886L-46.7131 -76.3623L-46.766 -64.0359L-46.8301 -59.4815L-46.8943 -54.9271H-44.0566H-41.219L-41.1526 -58.983L-41.0864 -63.039L-41.0345 -76.045L-40.9826 -89.0511L-40.9389 -89.6176L-40.8951 -90.1841H-43.7217H-46.5481L-46.6042 -89.4363ZM-108.159 -82.2377L-108.206 -82.1629L-108.27 -77.5405L-108.334 -72.9181L-108.35 -68.3196L-108.367 -63.7211L-108.324 -63.6836L-108.281 -63.6461L-106.887 -63.6144L-105.492 -63.5828L-105.442 -72.8728L-105.392 -82.1629V-82.174V-82.1853L-106.752 -82.2488L-108.111 -82.3124L-108.159 -82.2377ZM-37.0024 -77.8274V-73.809L-37.0686 -68.492L-37.1347 -63.1749H-35.7336H-34.3323L-34.2755 -64.1945L-34.2186 -65.2142L-34.1603 -73.5299L-34.102 -81.8457H-35.5522H-37.0024V-77.8274ZM27.1312 -55.8561L27.1038 -54.4286L25.2359 -54.404L23.368 -54.3793V-52.7499V-51.1205H21.6744H19.9809V-50.1688V-49.2172H17.1915H14.4021V-46.9966V-44.776H17.9386H21.4752V-44.0056V-43.2353H31.1882H40.9013V-44.0056V-44.776H41.2998H41.6983V-43.1981V-41.6201L42.5202 -41.5697L43.342 -41.5193L56.2181 -41.4755L69.0941 -41.4316V-43.0132V-44.5948H69.538H69.9819L70.0112 -43.9377L70.0405 -43.2806L79.7287 -43.2575L89.4168 -43.2343V-44.0052V-44.776H93.0032H96.5895V-46.9966V-49.2172H93.8001H91.0107V-50.1666V-51.1162L89.2923 -51.141L87.5738 -51.1658L87.5466 -52.7726L87.5194 -54.3793L85.6538 -54.404L83.7882 -54.4286L83.7608 -55.8561L83.7333 -57.2836H80.9127H78.092L78.0264 -54.9045L77.9608 -52.5253L77.9606 -49.6789L77.9604 -46.8325L69.6171 -46.8917L61.2738 -46.951L49.1699 -46.9985L37.0659 -47.0459L34.8493 -47.0993L32.6328 -47.1528V-52.2182V-57.2836H29.8957H27.1587L27.1312 -55.8561ZM-92.7903 -49.4583V-48.3108L-89.0794 -48.2899L-85.3685 -48.2689L-83.1768 -48.2599L-80.9852 -48.2507L-65.3695 -48.176L-49.7539 -48.1013V-49.2339V-50.3665L-56.055 -50.4259L-62.356 -50.4855L-77.5731 -50.5457L-92.7903 -50.6059V-49.4583ZM-77.6479 -5.3046V-1.54325H-80.8855H-84.1232V2.85136V7.24606L-87.6847 7.26981L-91.2461 7.29364L-91.2715 15.2906L-91.297 23.2877L-93.9115 23.3118L-96.5261 23.336L-96.553 25.2167L-96.58 27.0973H-98.1718H-99.7637V28.289V29.4807L-100.586 29.4225L-101.407 29.3643L-101.931 29.3638L-102.454 29.3632V25.1034V20.8435H-105.093H-107.733V25.1034V29.3632H-108.481H-109.228V30.3602V31.3572H-110.474H-111.721L-111.695 34.1895L-111.668 37.0219L-105.716 37.0452L-99.7637 37.0686V37.7023V38.3361H-98.1725H-96.5813L-96.5537 39.6276L-96.5261 40.9191L-93.911 40.9433L-91.2959 40.9675V46.3135V51.6594H-84.6213H-77.9467V49.7107V47.7621H-76.4524H-74.9581L-74.9579 61.8784L-74.9576 75.9948L-74.8921 78.1021L-74.8267 80.2093H-70.9234H-67.0202L-66.9545 78.1554L-66.8888 76.1015V61.9317V47.7621H-65.3945H-63.9001V49.7107V51.6594H-57.1757H-50.4513V46.3119V40.9645H-47.8611H-45.271V39.6503V38.3361H-43.677H-42.0831V37.7016V37.0672H-36.1058H-30.1286V34.2122V31.3572H-31.324H-32.5195V30.3602V29.3632H-33.3164H-34.1134V25.1034V20.8435H-36.7534H-39.3933V25.1034V29.3632H-39.8263H-40.2593L-41.1712 29.4221L-42.0831 29.4809V28.2892V27.0973H-43.677H-45.271V25.194V23.2907H-47.8606H-50.4502L-50.4757 15.2922L-50.5011 7.29364L-54.1124 7.2699L-57.7236 7.24606V2.85262V-1.54072L-60.9364 -1.56464L-64.1492 -1.58857L-64.1752 -5.32726L-64.2012 -9.06594H-70.9245H-77.6479V-5.3046ZM-68.1589 10.6016L-67.1876 10.6018V11.6894V12.777H-65.1475H-63.1073L-63.0804 14.6124L-63.0534 16.4478L-61.6338 16.4729L-60.2142 16.4981V20.0756V23.6532H-61.6587H-63.1032V25.464V27.2749L-65.1205 27.2994L-67.1378 27.3239L-67.1658 28.4342L-67.1938 29.5445H-70.9265H-74.6592V28.4591V27.3739L-76.2283 27.3489L-77.7973 27.3239L-77.8243 25.4886L-77.8512 23.6532H-79.742H-81.6327V20.0278V16.4024H-79.7399H-77.8471V14.5897V12.777H-76.2532H-74.6592V11.6295V10.482L-71.8947 10.5417L-69.1302 10.6014L-68.1589 10.6016ZM69.9907 39.5596V61.6292H74.125H78.2592V39.5596V17.4901H74.125H69.9907V39.5596ZM-106.538 64.1657V68.0617L-103.375 68.0857L-100.212 68.1096L-100.185 70.0809L-100.158 72.0522H-96.9724H-93.7865V74.0462V76.0401H-85.8666H-77.9467V68.2909V60.5416H-90.1503H-102.354V60.4056V60.2697H-104.446H-106.538V64.1657ZM-39.3933 60.4056V60.5416H-51.6467H-63.9001V68.2909V76.0401H-55.9304H-47.9608V74.0462V72.0522H-44.7729H-41.585V70.0582V68.0643H-38.3971H-35.2092V64.167V60.2697H-37.3013H-39.3933V60.4056ZM7.22936 71.8224V77.0308L6.20824 77.0566L5.18713 77.0824L5.15933 78.2833L5.13155 79.4843H3.5903H2.04906V82.9737V86.4631H10.5667H19.0843V84.8317V83.2003H20.3271H21.57L21.5973 84.7184L21.6246 86.2365L23.1936 86.2615L24.7627 86.2865V87.5983V88.9103H26.5559H28.349V90.0432V91.1761H33.2338H38.1185L38.0903 90.1565L38.0621 89.1369L36.8401 89.1114L35.6179 89.0859L35.6446 86.8455L35.6712 84.6051L36.8916 84.5797L38.1119 84.5542V83.8772V83.2003H34.2765H30.4411V81.8901V80.5798L29.7188 80.5532L28.9966 80.5266L28.9991 79.7335L29.0016 78.9404H22.5023H16.003L15.9746 78.0114L15.9462 77.0824L14.9749 77.0565L14.0036 77.0306V71.8224V66.6141H10.6165H7.22936V71.8224ZM95.6929 71.8256V77.0371H94.6469H93.6009V77.9888V78.9404H86.9298H80.2586L80.2303 79.8695L80.2019 80.7985L79.6788 80.8258L79.1558 80.8533L79.1547 81.7775L79.1536 82.7018L79.0919 83.0417L79.0301 83.3815H75.2576H71.485V83.966V84.5503L72.008 84.5777L72.531 84.6051L72.5576 86.8483L72.5843 89.0915H72.0346H71.485V90.1339V91.1761H76.3664H81.2479V90.0432V88.9103H83.0411H84.8342V87.5983V86.2865L86.4033 86.2615L87.9723 86.2365L87.9996 84.7184L88.0269 83.2003H89.2698H90.5126V84.8317V86.4631H99.0813H107.65L107.624 82.9964L107.598 79.5296L106.029 79.5047L104.46 79.4796V78.2584V77.0371H103.463H102.467V71.8256V66.6141H99.0801H95.6929V71.8256ZM56.5667 69.1289L57.6377 69.1581L58.7086 69.1289L59.7795 69.0998H57.6377H55.4958L56.5667 69.1289ZM69.9578 69.3191L70.0139 69.5144H62.0326H54.0513V71.3271V73.1398H59.5638H65.0764L71.6678 73.2L78.2592 73.2602V71.2514V69.2425H75.7348H73.2103L71.556 69.1832L69.9016 69.1238L69.9578 69.3191ZM80.2711 73.5477L80.2748 73.8196L80.3207 73.6592L80.3666 73.4989L80.317 73.3873L80.2674 73.2758L80.2711 73.5477ZM57.5575 80.7301L58.6228 80.7592L59.7491 80.7302L60.8754 80.7013L58.6837 80.7011L56.492 80.701L57.5575 80.7301ZM73.9949 80.8208L75.0603 80.8498L76.1866 80.8208L77.3128 80.7919L75.1212 80.7917L72.9295 80.7917L73.9949 80.8208ZM39.2718 84.2426L39.2086 85.2396L39.2083 85.7485L39.2077 86.2574L44.1639 86.3147L49.1201 86.3719L59.7048 86.4301L70.2896 86.4881V84.9459V83.4037L60.1033 83.3466L49.917 83.2897L44.6259 83.2676L39.335 83.2456L39.2718 84.2426Z" fill="#2E4990"/>
<path fill-rule="evenodd" clip-rule="evenodd" d="M51.5235 -102.085L51.456 -100.935L51.4213 -100.903L51.3866 -100.872H49.6805H47.9744V-98.8813V-96.891H45.8326H43.6907V-93.0063V-89.1217L44.2137 -89.0645L44.7367 -89.0074L46.3058 -89.0066L47.8748 -89.0058V-87.0118V-85.0179H49.6182H51.3615V-83.8541V-82.6905L53.918 -82.6306L56.4745 -82.5707H58.0494H59.6243L59.6521 -83.7717L59.6799 -84.9726L61.9463 -84.9612L64.2127 -84.9498V-86.6493V-88.3487L64.2749 -88.6319L64.3372 -88.9152H65.9187H67.5002L67.5189 -92.5859L67.5375 -96.2566L67.5438 -96.5058L67.55 -96.7551L65.9311 -96.78L64.3123 -96.8049V-98.7966V-100.788H62.0708H59.8293V-101.955V-103.122L59.518 -103.179L59.2067 -103.235H55.3989H51.5912L51.5235 -102.085ZM-117.664 -99.1797L-115.49 -99.1534L-113.38 -99.1797L-111.27 -99.206H-115.554L-119.837 -99.2059L-117.664 -99.1797ZM-28.4033 -99.1797L-26.2299 -99.1534L-24.1196 -99.1797L-22.0094 -99.206H-26.2931L-30.5769 -99.2059L-28.4033 -99.1797ZM58.5128 -98.283L58.541 -97.3638L58.7618 -97.3099L58.9826 -97.256L59.5077 -97.2548L60.0327 -97.2536L60.0058 -95.4182L59.9788 -93.5829L59.2067 -93.5564L58.4346 -93.5299V-92.6274V-91.7249H54.5494H50.6642V-92.6765V-93.6282H49.668H48.6718V-95.483V-97.3379L49.6929 -97.3637L50.714 -97.3895L50.7424 -98.3196L50.7708 -99.2496L54.6276 -99.226L58.4845 -99.2022L58.5128 -98.283ZM97.6322 -91.317V-86.4227L97.6604 -88.899L97.6886 -91.3751L97.6604 -93.7932L97.6322 -96.2113V-91.317ZM-101.314 -90.519L-101.364 -90.4006L-101.335 -89.2727L-101.307 -88.1448L-101.258 -89.3912L-101.208 -90.6375L-101.236 -90.6374L-101.264 -90.6372L-101.314 -90.519ZM-45.1963 -90.2069L-43.7767 -90.1791L-42.3571 -90.2069L-40.9375 -90.2347H-43.7767H-46.6159L-45.1963 -90.2069ZM-41.0123 -76.045L-41.0872 -62.2232L-41.1259 -59.4136L-41.1647 -56.6039L-41.1211 -57.1703L-41.0774 -57.7368H-39.1556H-37.2339L-37.1677 -61.4755L-37.1015 -65.2142L-37.0357 -73.5276L-36.9698 -81.841L-35.5167 -81.8686L-34.0636 -81.8962L-35.533 -81.9163L-37.0024 -81.9363V-84.61V-87.2838H-38.9423H-40.8822L-40.9099 -88.5753L-40.9375 -89.8668L-41.0123 -76.045ZM-103.375 -87.669L-105.343 -87.6425V-84.9743V-82.3062L-106.164 -82.2756L-106.986 -82.2451L-106.153 -82.2267L-105.32 -82.2082L-105.378 -81.9136L-105.435 -81.6191L-105.454 -69.8819L-105.472 -58.1447L-103.527 -58.1201L-101.582 -58.0956L-101.52 -62.3799L-101.458 -66.6643L-101.395 -77.2006L-101.333 -87.7369L-101.37 -87.7163L-101.407 -87.6957L-103.375 -87.669ZM11.4522 -85.2445L11.4525 -84.0662L11.4874 -84.6818L11.5223 -85.2973L11.4871 -85.8601L11.4518 -86.4227L11.4522 -85.2445ZM21.1155 -85.2445L21.1158 -84.0662L21.1506 -84.6818L21.1856 -85.2973L21.1503 -85.8601L21.1151 -86.4227L21.1155 -85.2445ZM99.4173 -85.2898V-84.1568L99.4527 -84.7233L99.488 -85.2898L99.4527 -85.8563L99.4173 -86.4227V-85.2898ZM-108.265 -82.2384L-108.331 -82.178V-81.6946V-81.2112H-111.22H-114.109V-80.5266V-79.8418L-116.057 -79.8575L-118.004 -79.8732L-118.041 -79.8392L-118.079 -79.8053L-118.144 -72.9403L-118.209 -66.0752H-116.209H-114.209V-65.3954V-64.7157L-112.889 -64.7154L-111.569 -64.715L-110 -64.6559L-108.431 -64.5967V-64.067V-63.5374L-107.161 -63.557L-105.89 -63.5766L-107.111 -63.6051L-108.331 -63.6337L-108.34 -64.1973L-108.349 -64.761L-108.327 -70.2897L-108.306 -75.8184L-108.244 -79.0587L-108.182 -82.299L-108.19 -82.2989L-108.198 -82.2988L-108.265 -82.2384ZM-34.1474 -76.5966L-34.213 -72.3899V-68.3365V-64.2831L-31.598 -64.2176L-28.9829 -64.1521L-28.7339 -64.1847L-28.4848 -64.2172L-28.435 -64.897L-28.3852 -65.5767H-26.4187H-24.4521L-24.4094 -65.6783L-24.3667 -65.7799L-24.3409 -72.5666L-24.3152 -79.3532L-26.3252 -79.3778L-28.3354 -79.4022V-80.0775V-80.7527L-31.2085 -80.778L-34.0817 -80.8034L-34.1474 -76.5966ZM-34.3126 -63.6779V-63.184L-34.8855 -63.1512L-35.4583 -63.1185L-34.8357 -63.1014L-34.213 -63.0843V-63.6281V-64.1719H-34.2628H-34.3126V-63.6779ZM28.5295 -57.3065L29.955 -57.2786L31.3189 -57.3066L32.6826 -57.3345L29.8932 -57.3344L27.1038 -57.3343L28.5295 -57.3065ZM80.8966 -57.307L83.7333 -57.2808L83.7608 -55.8548L83.7882 -54.4286L85.6538 -54.404L87.5194 -54.3793L87.5491 -52.7726L87.5787 -51.1658L87.6012 -52.8199L87.6236 -54.474H85.7333H83.8431L83.8156 -55.9015L83.7882 -57.329L80.9241 -57.331L78.0599 -57.3332L80.8966 -57.307ZM-44.4989 -54.8594L-43.3782 -54.8305L-42.2574 -54.8594L-41.1367 -54.8883H-43.3782H-45.6196L-44.4989 -54.8594ZM25.1861 -54.4967L23.2684 -54.4701L23.2909 -52.7726L23.3134 -51.0751L23.343 -52.7292L23.3725 -54.3833H25.2074H27.0422L27.1038 -54.474L27.1654 -54.5646L27.1346 -54.544L27.1038 -54.5234L25.1861 -54.4967ZM19.9185 -50.1688L19.9189 -49.1718L19.955 -49.6963L19.991 -50.2207L19.9546 -50.6933L19.9181 -51.1658L19.9185 -50.1688ZM-49.7325 -49.2869L-49.7539 -48.1331L-51.8709 -48.1068L-53.9878 -48.0804L-51.8678 -48.0596L-49.7477 -48.0389L-49.6976 -48.1574L-49.6476 -48.276L-49.6794 -49.3583L-49.7111 -50.4407L-49.7325 -49.2869ZM-92.858 -48.8546V-48.2655L-92.8179 -48.56L-92.7776 -48.8546L-92.8179 -49.1492L-92.858 -49.4437V-48.8546ZM14.3457 -46.9966L14.3455 -44.7307L14.3769 -45.8357L14.4082 -46.9408L14.377 -48.1016L14.3458 -49.2625L14.3457 -46.9966ZM-81.706 -48.2457L-81.4308 -48.2079L-81.2079 -48.247L-80.9852 -48.2861L-81.4833 -48.2849L-81.9814 -48.2836L-81.706 -48.2457ZM-71.4906 -48.1525L-70.2644 -48.1239L-69.0997 -48.1525L-67.9348 -48.1812L-70.3257 -48.1811L-72.7166 -48.181L-71.4906 -48.1525ZM41.0757 -44.712L41.2998 -44.6728L41.524 -44.712L41.7481 -44.7514H41.2998H40.8515L41.0757 -44.712ZM69.1352 -43.0087L69.1355 -41.3772L69.1684 -42.2202L69.2013 -43.0631L69.1682 -43.8517L69.1351 -44.6401L69.1352 -43.0087ZM41.8738 -41.5397L42.0991 -41.5003L42.2723 -41.5415L42.4454 -41.5828L42.047 -41.581L41.6485 -41.5792L41.8738 -41.5397ZM56.5147 -41.4477L56.8362 -41.4114L57.2121 -41.447L57.5879 -41.4827L56.8905 -41.4835L56.1932 -41.4842L56.5147 -41.4477ZM60.6512 -41.4472L61.0248 -41.4116L61.3984 -41.4472L61.7719 -41.4827H61.0248H60.2776L60.6512 -41.4472ZM-70.8996 -9.08886L-64.2012 -9.06465L-64.1752 -5.32661L-64.1492 -1.58855L-60.9374 -1.56462L-57.7255 -1.5407L-57.6982 2.83116L-57.6709 7.20302L-57.6724 2.80724L-57.6738 -1.58855L-60.8855 -1.61249L-64.0972 -1.63641L-64.1232 -5.37383L-64.1492 -9.11124L-70.8736 -9.11215L-77.598 -9.11314L-70.8996 -9.08886ZM-82.498 -1.56599L-80.8231 -1.5388L-79.2105 -1.56607L-77.598 -1.59335L-80.8855 -1.59327H-84.173L-82.498 -1.56599ZM-91.3291 7.30879L-91.3956 7.36916V15.2847V23.2001H-93.93H-96.4645L-96.5107 23.268L-96.557 23.336L-93.9275 23.3105L-91.298 23.2849L-91.2721 15.2666L-91.2461 7.24834H-91.2544H-91.2628L-91.3291 7.30879ZM-74.6592 11.6441V12.7771H-76.2532H-77.8471V14.5878V16.3986L-79.7648 16.4252L-81.6825 16.4519L-79.715 16.4725L-77.7475 16.4931V14.6827V12.8723L-76.1784 12.8473L-74.6094 12.8224L-74.5813 11.7574L-74.5533 10.6925L-72.9874 10.6834L-71.4215 10.6744L-71.1725 10.6018L-70.9234 10.5292L-72.7913 10.5203L-74.6592 10.5112V11.6441ZM-69.1085 10.6696L-67.2935 10.6965L-67.2655 11.7594L-67.2374 12.8224L-65.2201 12.8469L-63.2028 12.8714V14.6823V16.4931L-63.1281 16.4932L-63.0533 16.4933L-63.0821 14.6352L-63.111 12.7771H-65.1493H-67.1876V11.6894V10.6018L-69.0555 10.6223L-70.9234 10.6428L-69.1085 10.6696ZM-60.3138 20.0278V23.5626H-61.7583H-63.2028L-63.1801 25.4433L-63.1574 27.3239L-63.1282 25.4886L-63.0991 23.6532H-61.6566H-60.2141V20.0732V16.4931H-60.264H-60.3138V20.0278ZM-49.1811 23.2678L-47.8611 23.296L-46.5411 23.2678L-45.2212 23.2397H-47.8611H-50.5011L-49.1811 23.2678ZM-79.7669 23.6305L-77.8512 23.6571L-77.8243 25.4906L-77.7973 27.3239L-76.2282 27.3489L-74.6592 27.3739V28.4592V29.5445H-70.9291H-67.199L-67.1684 28.4114L-67.1378 27.2783L-67.2125 27.2785L-67.2872 27.2786V28.3662V29.4539H-70.9234H-74.5596V28.3662V27.2786H-76.1535H-77.7475V25.4206V23.5626L-79.715 23.5832L-81.6825 23.6037L-79.7669 23.6305ZM-42.044 28.2756V29.4992L-42.0092 28.8874L-41.9744 28.2756L-42.0092 27.6638L-42.044 27.052V28.2756ZM-109.29 30.3602V31.4025L-109.254 30.8814L-109.218 30.3602L-109.254 29.8391L-109.29 29.3179V30.3602ZM-42.0639 37.6767L-42.0831 38.3315L-43.7019 38.3589L-45.3208 38.3862L-43.6989 38.4065L-42.0768 38.4267L-42.025 38.3039L-41.9732 38.181L-42.009 37.6015L-42.0447 37.0219L-42.0639 37.6767ZM-98.9917 38.4035L-98.1698 38.4341L-97.3479 38.4035L-96.5261 38.373H-98.1698H-99.8136L-98.9917 38.4035ZM-91.3488 46.3119V51.7047L-91.3209 49.0083L-91.293 46.3119L-91.3209 43.6156L-91.3488 40.9192V46.3119ZM-77.9469 48.8271L-77.9471 49.892L-78.0128 52.5431L-78.0784 55.1941H-90.2162H-102.354V57.6866V60.1791H-104.496H-106.638V64.167V68.1549H-103.452H-100.266L-100.236 70.1262L-100.206 72.0975L-100.209 70.1036L-100.212 68.1096L-103.375 68.0857L-106.538 68.0617V64.1657V60.2697H-104.446H-102.354V60.4056V60.5416H-90.1492H-77.9445L-77.9467 68.3135L-77.9489 76.0855L-77.9478 76.7879L-77.9467 77.4903H-76.4275H-74.9083L-74.9338 62.6262L-74.9593 47.7621H-76.453H-77.9467L-77.9469 48.8271ZM-66.8888 61.9317V76.1015L-66.9544 78.1544L-67.0201 80.2073L-70.9642 80.2326L-74.9083 80.2578L-70.9234 80.2563L-66.9386 80.2547L-66.9111 78.8725L-66.8836 77.4903H-65.367H-63.8503L-63.8828 69.0159L-63.9154 60.5416H-51.6543H-39.3933V60.4075V60.2733L-37.2764 60.2469L-35.1594 60.2206L-37.3262 60.1998L-39.493 60.1791V57.6866V55.1941H-51.6307H-63.7684L-63.8341 52.5431L-63.8997 49.892L-63.8999 48.8271L-63.9001 47.7621H-65.3944H-66.8888V61.9317ZM30.1671 61.4185L29.0464 61.4539V65.1533V68.8526L30.5656 68.9108L32.0849 68.969L41.6983 69.0172L51.3117 69.0653L65.7381 69.1635L80.1643 69.2616L80.2043 69.2253L80.2441 69.189L80.2559 65.4317L80.2675 61.6745L78.043 61.6568L75.8185 61.6391L57.3388 61.5436L38.8591 61.4481L35.0735 61.4156L31.2879 61.383L30.1671 61.4185ZM7.17638 71.8256V77.0824L7.20437 74.4831L7.23236 71.8839L7.20447 69.2263L7.17647 66.5688L7.17638 71.8256ZM95.64 71.8256V77.0824L95.668 74.4831L95.6959 71.8839L95.668 69.2263L95.64 66.5688L95.64 71.8256ZM-40.016 68.1321L-38.3971 68.1595L-36.7783 68.1321L-35.1594 68.1048H-38.3971H-41.6348L-40.016 68.1321ZM-93.8435 74.0462V76.0855L-93.8117 75.0658L-93.7799 74.0462L-93.8117 73.0265L-93.8435 72.0069V74.0462ZM29.0245 76.6973L28.9785 80.4359L29.0373 80.4924L29.0962 80.5489L51.8596 80.6534L74.6231 80.7579L77.4125 80.7782L80.2019 80.7985L80.2279 77.0145L80.2539 73.2305L77.6377 73.2284L75.0216 73.2264L53.1049 73.0944L31.1883 72.9625L30.1294 72.9606L29.0705 72.9586L29.0245 76.6973ZM5.08115 77.1554L5.03123 77.2738L5.05992 78.4016L5.08852 79.5296L5.13783 78.2832L5.18713 77.0369L5.15914 77.037L5.13105 77.0371L5.08115 77.1554ZM1.99747 83.0417L1.99926 86.5085L10.5667 86.5092L19.1341 86.51L10.5928 86.4861L2.05147 86.4622L2.02357 83.0185L1.99567 79.5749L1.99747 83.0417ZM39.2412 83.9254V84.6051L39.2803 84.2653L39.3194 83.9254L39.2803 83.5855L39.2412 83.2456V83.9254ZM43.9659 86.346L44.1911 86.3854L44.3643 86.3441L44.5375 86.3029L44.139 86.3047L43.7405 86.3065L43.9659 86.346ZM55.1222 86.4401L56.1434 86.4695L57.1645 86.4401L58.1856 86.4108H56.1434H54.1011L55.1222 86.4401ZM94.7789 86.5311L99.095 86.5557L103.346 86.5311L107.598 86.5065H99.0303H90.4628L94.7789 86.5311ZM30.8078 91.244L33.2166 91.27L35.6892 91.244L38.1617 91.2181H33.2803H28.3989L30.8078 91.244ZM73.9008 91.244L76.3664 91.27L78.8321 91.244L81.2977 91.2181H76.3664H71.4352L73.9008 91.244Z" fill="#3ABDAB"/>
<path fill-rule="evenodd" clip-rule="evenodd" d="M-78.4448 -117.726V-113.637L-82.0176 -113.673L-85.5904 -113.708L-85.6533 -112.845L-85.7162 -111.982L-85.7167 -108.062L-85.7172 -104.142H-89.7518H-93.7865V-98.5259V-92.9099L-94.708 -92.8839L-95.6295 -92.8578L-91.1573 -92.8932L-86.6852 -92.9287L-86.7633 -79.5699L-86.8415 -66.2112L-86.902 -59.5042L-86.9624 -52.7972L-89.5526 -52.7687L-92.1427 -52.7402L-93.9579 -52.8011L-95.7731 -52.862L-95.8042 -54.0078L-95.8352 -55.1537L-95.8569 -53.9528L-95.8785 -52.7519H-94.9819H-94.0853L-94.0852 -51.6869V-50.622L-82.9435 -50.5894L-71.8018 -50.5568L-71.7362 -51.5325L-71.6706 -52.5082V-57.8885V-63.2688L-64.186 -63.2638L-56.7016 -63.2588L-56.6716 -63.2861L-56.6416 -63.3134L-56.535 -77.4965L-56.4285 -91.6795L-56.4277 -94.6252L-56.4269 -97.5708L-56.3625 -100.719L-56.2981 -103.867L-53.7981 -103.893L-51.2981 -103.919L-53.8135 -103.94L-56.3289 -103.961V-108.764V-113.568H-59.9153H-63.5016V-117.632V-121.696L-67.3122 -121.755L-71.1227 -121.815L-74.7837 -121.816L-78.4448 -121.816V-117.726ZM60.3977 -118.214L63.2074 -118.187L63.2443 -117.599L63.281 -117.011L63.2736 -117.623L63.2663 -118.236L60.4271 -118.238L57.5879 -118.24L60.3977 -118.214ZM41.0423 -108.492V-106.816L41.0752 -107.654L41.108 -108.492L41.0752 -109.331L41.0423 -110.169V-108.492ZM46.8039 -110.057L47.2771 -110.023L47.7503 -110.057L48.2235 -110.091H47.2771H46.3307L46.8039 -110.057ZM67.8239 -109.966L68.6956 -109.935L69.5673 -109.966L70.439 -109.996H68.6956H66.9523L67.8239 -109.966ZM70.3351 -105.547L70.335 -101.831L70.3642 -103.66L70.3933 -105.489L70.3642 -107.376L70.3351 -109.263V-105.547ZM-67.4616 -106.713L-66.8888 -106.656V-105.504V-104.351L-65.5281 -104.292L-64.1675 -104.232H-63.2867H-62.4058V-102.296V-100.36L-61.8828 -100.303L-61.3598 -100.246L-60.2878 -100.245L-59.2158 -100.245L-59.2417 -96.3699L-59.2677 -92.4953L-60.8866 -92.4703L-62.5054 -92.4454V-90.499V-88.5526H-64.7316H-66.9576L-67.0203 -87.3616L-67.0828 -86.1706L-67.1103 -86.1458L-67.1378 -86.121L-71.2223 -86.1812L-75.3068 -86.2415L-75.3235 -87.3593L-75.3401 -88.4773L-75.4062 -88.5376L-75.4722 -88.598L-77.1728 -88.6268L-78.8733 -88.6555L-78.8174 -90.5915L-78.7614 -92.5273L-78.9101 -92.5793L-79.0589 -92.6312H-81.0592H-83.0595L-82.9938 -95.2823L-82.9282 -97.9333L-82.928 -99.1597L-82.9278 -100.386L-81.2862 -100.35L-79.6447 -100.314L-79.1962 -100.375L-78.7476 -100.436L-78.7207 -102.402L-78.6939 -104.368H-76.9505H-75.2071L-75.1793 -105.567L-75.1515 -106.766L-71.593 -106.768L-68.0344 -106.769L-67.4616 -106.713ZM-48.4134 -100.245V-96.5738L-48.3842 -98.4092L-48.3551 -100.245L-48.3842 -102.08L-48.4134 -103.915V-100.245ZM14.7757 -101.174L16.2949 -101.146L17.8141 -101.174L19.3333 -101.201H16.2949H13.2565L14.7757 -101.174ZM94.5706 -101.174L97.5826 -101.148L97.6108 -98.6344L97.6389 -96.1206L97.6621 -98.6811L97.6854 -101.242L94.622 -101.22L91.5587 -101.199L94.5706 -101.174ZM32.9651 -99.9726V-99.2929L33.0042 -99.6327L33.0433 -99.9726L33.0042 -100.313L32.9651 -100.652V-99.9726ZM74.8956 -100.358L78.2565 -100.333L78.2849 -97.5242L78.3134 -94.7157L78.3113 -97.5481L78.3091 -100.38L74.922 -100.382L71.5348 -100.384L74.8956 -100.358ZM-46.6266 -91.453V-90.2294L-46.5918 -90.8412L-46.557 -91.453L-46.5918 -92.0647L-46.6266 -92.6765V-91.453ZM-95.6439 -91.317L-95.6445 -90.5013L-95.6065 -90.8838L-95.5685 -91.2662L-95.606 -91.6995L-95.6434 -92.1327L-95.6439 -91.317ZM-119.763 -80.2369L-119.788 -71.6946L-118.966 -71.7128L-118.144 -71.731L-118.915 -71.7619L-119.687 -71.7928L-119.713 -80.286L-119.739 -88.7792L-119.763 -80.2369ZM-30.4812 -84.746V-80.7127L-30.4524 -82.7294L-30.4236 -84.746L-30.4524 -86.7626L-30.4812 -88.7792V-84.746ZM-22.1589 -80.2142V-71.7852H-23.2036H-24.2483L-24.2758 -74.9348L-24.3034 -78.0843L-24.3269 -74.8894L-24.3505 -71.6946H-23.2049H-22.0592V-80.1689V-88.6433H-22.1091H-22.1589V-80.2142ZM32.8741 -86.5134L32.8744 -84.61L32.9064 -85.5892L32.9385 -86.5686L32.9062 -87.4926L32.8741 -88.4167L32.8741 -86.5134ZM78.1992 -82.4801V-81.1659L78.2337 -81.823L78.268 -82.4801L78.2337 -83.1372L78.1992 -83.7943V-82.4801ZM-28.3019 -80.033V-79.3532L-28.2628 -79.6931L-28.2237 -80.033L-28.2628 -80.3728L-28.3019 -80.7127V-80.033ZM-116.868 -79.8747L-115.892 -79.845L-114.976 -79.8749L-114.059 -79.9047L-115.952 -79.9045L-117.845 -79.9044L-116.868 -79.8747ZM-118.152 -75.9997L-118.151 -74.0964L-118.119 -75.0756L-118.087 -76.0549L-118.119 -76.9789L-118.152 -77.9031L-118.152 -75.9997ZM32.7764 -72.6009V-69.9272L32.8069 -71.2641L32.8373 -72.6009L32.8069 -73.9378L32.7764 -75.2746V-72.6009ZM78.1022 -70.8335L78.1024 -68.9302L78.1344 -69.9094L78.1665 -70.8887L78.1342 -71.8128L78.1021 -72.7369L78.1022 -70.8335ZM32.7305 -62.1779L32.7287 -58.9604L32.6704 -54.2397L32.6122 -49.519L39.2722 -49.4588L45.9322 -49.3986L50.7887 -49.3985L55.6452 -49.3984V-54.3267V-59.2549L55.7075 -59.5382L55.7698 -59.8214H53.1835H50.5974L45.6497 -59.8815L40.7021 -59.9417V-62.6439V-65.3461L36.7172 -65.3708L32.7323 -65.3955L32.7305 -62.1779ZM78.0022 -59.1416L78.0021 -57.3289L78.0346 -58.2078L78.0671 -59.0867L78.0347 -60.0205L78.0024 -60.9543L78.0022 -59.1416ZM-46.9645 -52.6667V-52.5816L-47.3381 -52.546L-47.7117 -52.5104L-47.2883 -52.4952L-46.8649 -52.48V-52.6159V-52.7519H-46.9147H-46.9645V-52.6667ZM-48.7346 -52.2987V-51.9815L-48.6891 -52.1401L-48.6435 -52.2987L-48.6891 -52.4573L-48.7346 -52.6159V-52.2987ZM-49.5279 -50.4232L-49.3517 -50.3814L-49.229 -50.4266L-49.1064 -50.4717L-49.4053 -50.4684L-49.7041 -50.465L-49.5279 -50.4232ZM-81.9316 -46.1809V-44.1416H-81.1844H-80.4372V-42.2383V-40.3349H-79.6403H-78.8433V-38.205V-36.0751H-78.3452H-77.8471V-32.0418V-28.0086H-76.8011H-75.755V-25.3349V-22.6611H-77.2479H-78.7407L-78.7693 -25.3122L-78.798 -27.9633L-78.7957 -25.2896L-78.7935 -22.6158L-77.2268 -22.5909L-75.66 -22.5659L-75.6328 -20.9595L-75.6056 -19.353H-74.1611H-72.7166V-20.9844V-22.6158L-73.0404 -22.6442L-73.3641 -22.6726V-25.3406V-28.0086H-73.8124H-74.2607V-32.0321V-36.0557L-74.4102 -36.1079L-74.5596 -36.16V-38.2475V-40.3349H-74.9083H-75.2569V-42.2383V-44.1416H-75.506H-75.755V-46.1809V-48.2202H-78.8433H-81.9316V-46.1809ZM-67.9846 -46.1356V-44.1416H-68.2835H-68.5823V-42.2383V-40.3349H-68.8812H-69.18V-38.205V-36.0751H-69.3793H-69.5785V-32.0418V-28.0086H-69.8774H-70.1763V-25.34V-22.6716L-70.5997 -22.6436L-71.023 -22.6158L-71.0502 -20.9617L-71.0773 -19.3077H-69.5808H-68.0842V-20.9372V-22.5668L-66.0669 -22.5913L-64.0496 -22.6158L-64.0473 -25.3349L-64.045 -28.0539L-64.0737 -25.3575L-64.1024 -22.6611H-65.7944H-67.4865V-25.3349V-28.0086H-66.6895H-65.8926V-32.0418V-36.0751H-65.3944H-64.8963V-38.205V-40.3349H-64.0994H-63.3024V-42.2383V-44.1416H-62.5552H-61.8081V-46.1356V-48.1295H-64.8963H-67.9846V-46.1356ZM89.4366 -43.9846L89.4168 -43.2386L87.1006 -43.2125L84.7844 -43.1864L87.1037 -43.1655L89.4231 -43.1446L89.4744 -43.2664L89.5258 -43.3881L89.4911 -44.0595L89.4564 -44.7307L89.4366 -43.9846ZM-87.1693 -42.2836L-87.1691 -40.3802L-87.1371 -41.3595L-87.105 -42.3388L-87.1373 -43.2628L-87.1694 -44.1869L-87.1693 -42.2836ZM22.7011 -43.1675L23.8774 -43.1388L24.9924 -43.1676L26.1076 -43.1964L23.8163 -43.1964L21.525 -43.1963L22.7011 -43.1675ZM70.1899 -39.8505L70.2398 -36.4829H74.5733H78.9068L78.9347 -37.6363L78.9625 -38.7896L80.5286 -38.817L82.0947 -38.8444L80.4758 -38.8646L78.857 -38.8848V-37.7065V-36.5283H74.5733H70.2896V-39.8311V-43.1339L70.2148 -43.176L70.1401 -43.2181L70.1899 -39.8505ZM28.893 -40.2217L28.897 -38.8395L30.4661 -38.8359L32.0352 -38.8323L30.4936 -38.8608L28.952 -38.8894L28.9204 -40.2467L28.8889 -41.604L28.893 -40.2217ZM47.8748 -40.6521V-39.7911H48.3729H48.871V-38.4769V-37.1627H49.4164H49.9619L49.9893 -35.6899L50.0167 -34.2171L50.3404 -34.1887L50.6642 -34.1602V-31.3564V-28.5524H51.4114H52.1585V-26.7428V-24.9332L51.0876 -24.904L50.0167 -24.8749L51.6853 -24.8556L53.354 -24.8364V-23.7034V-22.5705H53.8023H54.2506V-23.6971V-24.8238L54.0264 -24.8527L53.8023 -24.8817L53.7754 -26.7624L53.7484 -28.643H53.5014H53.2543V-31.4074V-34.1718H53.1049H52.9555V-35.6672V-37.1627H52.7562H52.557V-38.4401V-39.7174L52.3578 -39.7648L52.1585 -39.8122V-40.6155V-41.4188L54.2256 -41.4453L56.2928 -41.4718L52.0838 -41.4924L47.8748 -41.5132V-40.6521ZM57.5381 -40.6521V-39.7911H57.3388H57.1396V-38.4769V-37.1627H56.9403H56.7411V-35.7097V-34.2567L56.5917 -34.2046L56.4422 -34.1524V-31.4083V-28.6642L56.2451 -28.6173L56.0479 -28.5704L56.0209 -26.726L55.9939 -24.8817L55.72 -24.8531L55.446 -24.8243V-23.6975V-22.5705L55.8694 -22.5703L56.2928 -22.5701L56.2616 -23.625L56.2304 -24.6799L56.3238 -24.7649L56.4171 -24.8498L58.3474 -24.8626L60.2776 -24.8754L59.0573 -24.904L57.8369 -24.9326V-26.738V-28.5433L58.4097 -28.5705L58.9826 -28.5977L59.0089 -31.3847L59.0353 -34.1718H59.3302H59.6251L59.6525 -35.6446L59.6799 -37.1174L60.2002 -37.1447L60.7206 -37.1721L60.7482 -38.4589L60.7757 -39.7458L61.2988 -39.7732L61.8218 -39.8006V-40.5977V-41.3948L60.701 -41.4536L59.5803 -41.5124L58.5592 -41.5127L57.5381 -41.5132V-40.6521ZM67.2213 -40.5876L67.2013 -39.7979L66.2798 -39.768L65.3583 -39.7381L66.2829 -39.7193L67.2076 -39.7005L67.2587 -39.8218L67.3099 -39.9431L67.2756 -40.6601L67.2413 -41.3772L67.2213 -40.5876ZM-84.2995 -38.2277L-84.3225 -36.0751H-83.4767H-82.631L-82.6035 -32.0645L-82.576 -28.0539L-82.5776 -32.0872L-82.5791 -36.1204L-83.3992 -36.1467L-84.2192 -36.173L-84.2479 -38.2766L-84.2765 -40.3802L-84.2995 -38.2277ZM-59.4939 -38.2766L-59.5168 -36.1731L-60.3387 -36.1467L-61.1605 -36.1204L-61.162 -32.0872L-61.1636 -28.0539L-61.1361 -32.0645L-61.1086 -36.0751H-60.3096H-59.5105L-59.4619 -36.1905L-59.4133 -36.3058L-59.4421 -38.343L-59.471 -40.3802L-59.4939 -38.2766ZM42.4605 -39.7685L42.507 -39.7005H43.3451H44.1832L44.2139 -38.4543L44.2447 -37.208L44.2666 -38.4933L44.2884 -39.7787L43.3512 -39.8075L42.4141 -39.8364L42.4605 -39.7685ZM-87.6349 -38.0016L-86.813 -37.9711L-85.9911 -38.0016L-85.1692 -38.0322H-86.813H-88.4567L-87.6349 -38.0016ZM-57.7485 -38.0016L-56.9267 -37.9711L-56.1048 -38.0016L-55.2829 -38.0322H-56.9267H-58.5704L-57.7485 -38.0016ZM44.7616 -37.0959L45.2847 -37.0626L45.8077 -37.0959L46.3307 -37.1292H45.2847H44.2386L44.7616 -37.0959ZM63.8889 -37.0959L64.4119 -37.0626L64.9349 -37.0959L65.4579 -37.1292H64.4119H63.3659L63.8889 -37.0959ZM34.2086 -36.4604L36.4319 -36.4341L38.5919 -36.4604L40.7519 -36.4867H36.3686L31.9852 -36.4866L34.2086 -36.4604ZM64.0584 -34.489L64.0632 -33.492L65.1842 -33.4874L66.3051 -33.4827L65.2123 -33.5129L64.1195 -33.5432L64.0865 -34.5145L64.0535 -35.486L64.0584 -34.489ZM43.9149 -33.4703L44.4877 -33.4376L45.0605 -33.4703L45.6333 -33.5031H44.4877H43.342L43.9149 -33.4703ZM-86.0736 -32.6904L-86.125 -32.5687L-86.0954 -31.8974L-86.0658 -31.2261L-85.244 -31.1998L-84.4221 -31.1735V-31.9929V-32.8122H-85.2221H-86.0223L-86.0736 -32.6904ZM-59.3176 -32.0002V-31.1808H-58.5225H-57.7274L-57.6704 -31.3876L-57.6133 -31.5943L-57.6436 -32.1806L-57.6738 -32.7669L-58.4957 -32.7932L-59.3176 -32.8196V-32.0002ZM44.9858 -31.3621V-30.8183H45.5835H46.1812V-31.3621V-31.9059H45.5835H44.9858V-31.3621ZM63.5153 -31.3621V-30.8183H64.1131H64.7108V-31.3621V-31.9059H64.1131H63.5153V-31.3621ZM47.9993 -28.5758L48.6718 -28.5442L49.3442 -28.5758L50.0167 -28.6075H48.6718H47.3269L47.9993 -28.5758ZM60.701 -28.5762L61.224 -28.5429L61.7471 -28.5762L62.2701 -28.6095H61.224H60.178L60.701 -28.5762ZM48.4905 -25.3621L48.4725 -24.8454L47.8997 -24.8127L47.3269 -24.78L47.9028 -24.7629L48.4788 -24.7457L48.5314 -24.8705L48.5841 -24.9954L48.5462 -25.437L48.5084 -25.8787L48.4905 -25.3621ZM61.1432 -25.3122L61.1244 -24.7457L61.7471 -24.7629L62.3697 -24.78L61.8016 -24.8126L61.2337 -24.8452L61.1979 -25.3619L61.1621 -25.8787L61.1432 -25.3122ZM-62.7606 -23.2503L-62.7545 -22.5252L-61.9575 -22.5197L-61.1605 -22.5142L-61.9286 -22.5459L-62.6967 -22.5778L-62.7317 -23.2766L-62.7665 -23.9753L-62.7606 -23.2503ZM-82.2553 -22.5042L-81.8319 -22.4695L-81.4085 -22.5042L-80.9852 -22.5389H-81.8319H-82.6787L-82.2553 -22.5042ZM-73.9619 -20.9844V-19.3983H-74.7588H-75.5558V-20.9844V-22.5705H-74.7588H-73.9619V-20.9844ZM-68.1838 -20.9844V-19.3983H-68.9808H-69.7778V-20.9844V-22.5705H-68.9808H-68.1838V-20.9844ZM62.519 7.271L62.5191 7.33897L66.23 7.31921L69.9409 7.29936L68.6458 7.27426L67.3507 7.24907L64.9348 7.22604L62.5189 7.20302L62.519 7.271ZM41.524 7.31622L43.3918 7.34296L45.2598 7.31622L47.1276 7.2894H43.3918H39.6561L41.524 7.31622ZM-72.9376 10.6658L-74.5533 10.6969L-74.5813 11.7597L-74.6094 12.8224L-76.1784 12.8473L-77.7475 12.8723V14.6827V16.4931H-79.6901H-81.6327V20.0278V23.5626H-79.6901H-77.7475V25.4206V27.2786H-76.1535H-74.5596V28.3663V29.4539H-70.9234H-67.2873V28.3663V27.2786H-65.245H-63.2028V25.4206V23.5626H-61.7583H-60.3138V20.0278V16.4931H-61.7583H-63.2028V14.6823V12.8714L-65.2201 12.8469L-67.2374 12.8224L-67.2655 11.7574L-67.2935 10.6925L-68.9591 10.6915L-70.6246 10.6905L-70.9732 10.6626L-71.3219 10.6348L-72.9376 10.6658ZM-68.2835 15.0841V15.941L-67.611 15.9678L-66.9386 15.9946V17.7167V19.4387L-67.611 19.4656L-68.2835 19.4923V20.3492V21.2061H-71.82H-75.3566V20.3486V19.4911L-76.2282 19.4649L-77.0999 19.4387L-77.127 17.694L-77.154 15.9493H-76.2553H-75.3566V15.0883V14.2272H-71.82H-68.2835V15.0841ZM50.5045 15.8586V17.1729L50.539 16.5157L50.5733 15.8586L50.539 15.2016L50.5045 14.5444V15.8586ZM59.0719 15.8586V17.1729L59.1064 16.5157L59.1408 15.8586L59.1064 15.2016L59.0719 14.5444V15.8586ZM63.7574 19.2121V21.3421L63.789 20.2771L63.8205 19.2121L63.789 18.1472L63.7574 17.0822V19.2121ZM33.4115 17.4673L35.5352 17.4937L37.5956 17.4673L39.6561 17.4409L35.472 17.4409H31.2879L33.4115 17.4673ZM74.1746 17.4669L78.2589 17.4921L78.2843 39.5606L78.3097 61.6292L78.3094 39.537L78.3091 17.4448L74.1997 17.4432L70.0903 17.4417L74.1746 17.4669ZM-108.904 29.3386L-108.53 29.3742L-108.157 29.3386L-107.783 29.3031H-108.53H-109.278L-108.904 29.3386ZM-102.03 29.3386L-101.657 29.3742L-101.283 29.3386L-100.909 29.3031H-101.657H-102.404L-102.03 29.3386ZM-40.5115 29.339L-40.0854 29.3739L-39.7145 29.3385L-39.3435 29.3031L-40.1405 29.3037L-40.9375 29.3042L-40.5115 29.339ZM-33.7372 29.339L-33.3112 29.3739L-32.9403 29.3385L-32.5693 29.3031L-33.3662 29.3037L-34.1632 29.3042L-33.7372 29.339ZM43.5662 29.6122L44.6869 29.6411L45.8077 29.6122L46.9284 29.5833H44.6869H42.4454L43.5662 29.6122ZM63.7593 29.6599L63.7107 29.7752L63.7395 31.8125L63.7684 33.8497L63.7913 31.7446L63.8142 29.6395L65.4828 29.6123L67.1515 29.5851L65.4798 29.5648L63.8079 29.5445L63.7593 29.6599ZM-110.847 31.3334L-110.324 31.3667L-109.801 31.3334L-109.278 31.3001H-110.324H-111.37L-110.847 31.3334ZM-31.8932 31.3336L-31.3167 31.3665L-30.7973 31.3333L-30.278 31.3001L-31.3738 31.3005L-32.4697 31.3008L-31.8932 31.3336ZM48.7465 33.871L50.465 33.8992V35.166V36.4328H54.7985H59.132V35.166V33.8992L60.8505 33.8721L62.5689 33.8451L60.8006 33.8247L59.0324 33.8043V35.0732V36.3421H54.8013H50.5702L50.5424 35.0959L50.5148 33.8497L48.7714 33.8462L47.028 33.8429L48.7465 33.871ZM-97.2732 53.4268V55.1942H-87.6598H-78.0463V53.4268V51.6594H-87.6598H-97.2732V53.4268ZM-63.8005 53.4268V55.1942H-54.1871H-44.5736V53.4268V51.6594H-54.1871H-63.8005V53.4268ZM7.17398 63.8951V66.6595L7.20428 65.2773L7.23456 63.8951L7.20428 62.5129L7.17398 61.1307V63.8951ZM13.9481 63.8498L13.948 66.5688L13.9785 65.2376L14.0089 63.9063L13.9785 62.5185L13.9482 61.1307L13.9481 63.8498ZM95.6376 63.8951V66.6595L95.6679 65.2773L95.6981 63.8951L95.6679 62.5129L95.6376 61.1307V63.8951ZM49.1005 61.5157L50.177 61.5448L51.1926 61.5155L52.2083 61.4862L50.1163 61.4863L48.0242 61.4865L49.1005 61.5157ZM78.3033 70.1489L78.3091 71.1006L82.5679 71.102L86.8267 71.1035L82.5963 71.0785L78.3658 71.0533L78.3317 70.1252L78.2975 69.1972L78.3033 70.1489ZM24.894 71.1231L27.0674 71.1494L29.1777 71.1231L31.2879 71.0968H27.0042L22.7205 71.0968L24.894 71.1231ZM-83.127 78.4404V80.8438H-82.2304H-81.3338V83.155V85.4662H-80.3392H-79.3445L-79.3181 88.0266L-79.2916 90.587L-78.7686 90.6144L-78.2456 90.6419V95.5314V100.421H-76.9505H-75.6554V103.684V106.947H-74.5596H-73.4638V108.941V110.935H-72.6668H-71.8698V108.941V106.947H-72.3181H-72.7664V103.684V100.421H-73.2645H-73.7626V95.4813V90.5417H-73.9619H-74.1611V88.004V85.4662H-74.5596H-74.9581V83.155V80.8438H-75.3068H-75.6554V79.1671V77.4903H-76.7969H-77.9383L-77.9674 76.7879L-77.9965 76.0855L-80.5618 76.0613L-83.127 76.0371V78.4404ZM-63.8005 76.7652V77.4903H-64.996H-66.1914V79.1671V80.8438H-66.5401H-66.8888V83.155V85.4662H-67.2873H-67.6857V87.9933V90.5206L-67.885 90.568L-68.0842 90.6154V95.5181V100.421H-68.4827H-68.8812V103.684V106.947H-69.3793H-69.8774V108.941V110.935L-69.1053 110.935L-68.3333 110.935L-68.3619 108.941L-68.3905 106.947H-67.3926H-66.3945L-66.3657 108.918L-66.3368 110.889L-66.3139 108.918L-66.291 106.947H-65.9424H-65.5937V103.684V100.421H-64.5975H-63.6013V95.5312V90.6414L-63.0284 90.6142L-62.4556 90.587L-62.4291 88.0266L-62.4027 85.4662H-61.4578H-60.513V83.155V80.8438H-59.6164H-58.7198V78.442V76.0402H-61.2602H-63.8005V76.7652ZM16.6228 77.1044L17.2994 77.1362L17.9179 77.1041L18.5364 77.072L17.2413 77.0724L15.9462 77.0727L16.6228 77.1044ZM91.7372 77.1044L92.4137 77.1362L93.0323 77.1041L93.6507 77.072L92.3557 77.0724L91.0606 77.0727L91.7372 77.1044ZM-74.918 78.8498V80.2547L-74.8841 79.5523L-74.8501 78.8498L-74.8841 78.1474L-74.918 77.445V78.8498ZM-89.4593 83.155L-89.4592 85.5115L-89.4283 84.3052L-89.3973 83.099L-89.4283 81.9487L-89.4594 80.7985L-89.4593 83.155ZM-52.4003 83.155L-52.4002 85.5115L-52.3692 84.3052L-52.3382 83.099L-52.3693 81.9487L-52.4004 80.7985L-52.4003 83.155ZM19.7567 83.2674L20.3794 83.2995L21.002 83.2674L21.6246 83.2352H20.3794H19.1341L19.7567 83.2674ZM38.4371 83.2654L38.7123 83.3032L38.9352 83.2641L39.158 83.225L38.6599 83.2262L38.1617 83.2275L38.4371 83.2654ZM88.595 83.2674L89.2176 83.2995L89.8402 83.2674L90.4628 83.2352H89.2176H87.9723L88.595 83.2674ZM70.5635 83.4471L70.8873 83.4837L71.2111 83.4471L71.5348 83.4106H70.8873H70.2398L70.5635 83.4471ZM38.4357 84.6247L38.7097 84.6625L38.9836 84.6247L39.2576 84.587H38.7097H38.1617L38.4357 84.6247ZM70.5653 84.6255L70.8909 84.6621L71.163 84.6246L71.4352 84.587L70.8375 84.5879L70.2398 84.5888L70.5653 84.6255ZM-55.9072 87.9781L-55.9304 90.5354L-56.9516 90.5647L-57.9727 90.5941L-56.9485 90.6132L-55.9242 90.6324L-55.8758 90.5178L-55.8275 90.4032L-55.8557 87.912L-55.884 85.4209L-55.9072 87.9781ZM43.713 87.7547L43.7405 89.1369L44.5126 89.1633L45.2847 89.1898V90.8627V92.5357H46.0816H46.8786V94.3484V96.1611H47.3767H47.8748V99.7411V103.321H48.9689H50.0632L50.0897 105.691L50.1163 108.061L50.988 108.042L51.8596 108.023V109.479V110.935H52.557H53.2543V109.484V108.034H52.9057H52.557V105.683V103.332L52.1336 103.304L51.7102 103.276L51.6841 99.7185L51.6581 96.1611H51.46H51.2619V94.3031V92.4451H50.9653H50.6687L50.6416 90.791L50.6144 89.1369L50.3404 89.1082L50.0665 89.0795V87.7732V86.4669L52.1336 86.4404L54.2007 86.4139L48.9431 86.3933L43.6855 86.3725L43.713 87.7547ZM58.1358 87.7192V89.0916H57.8369H57.5381V90.7626V92.4335L57.2143 92.462L56.8905 92.4904L56.8635 94.3257L56.8366 96.1611H56.6892H56.5418V99.7411V103.321H56.1932H55.8445V105.678V108.034H55.3962H54.9479V109.484V110.935H55.5954H56.243V109.484V108.034H57.4384H58.6339V105.681V103.329L59.4558 103.302L60.2776 103.276L60.3037 99.7185L60.3297 96.1611H60.7769H61.224V94.352V92.543L62.0459 92.5167L62.8678 92.4904L62.895 90.8363L62.9221 89.1822H63.667H64.4119V87.8227V86.4632H61.8862H59.3604L58.7482 86.405L58.1358 86.3467V87.7192ZM-54.6885 90.0432L-54.6852 91.8559H-52.7426H-50.7999L-50.7967 90.0432L-50.7933 88.2305L-50.8237 90.0206L-50.8539 91.8106H-52.7426H-54.6312L-54.6615 90.0206L-54.6918 88.2305L-54.6885 90.0432ZM38.1842 89.1566L38.3064 89.2355L38.3337 90.8629L38.361 92.4904L39.8305 92.4942L41.3 92.4979L39.8577 92.4691L38.4153 92.4402L38.3881 90.796L38.361 89.1518L38.2115 89.1148L38.0621 89.0778L38.1842 89.1566ZM69.8579 89.152L69.7915 89.2124V90.8263V92.4402L68.3221 92.4653L66.8526 92.4904L66.8256 94.3222L66.7987 96.1541L65.9789 96.1856L65.1591 96.217L66.0059 96.2117L66.8526 96.2064L66.8796 94.3735L66.9065 92.5405L68.3739 92.5155L69.8413 92.4904L69.8684 90.8399L69.8956 89.1895L70.7151 89.159L71.5348 89.1284L70.7296 89.1101L69.9243 89.0916L69.8579 89.152ZM-85.4432 90.6085L-84.9202 90.6419L-84.3972 90.6085L-83.8742 90.5753H-84.9202H-85.9662L-85.4432 90.6085ZM-89.976 91.8782L-89.0047 91.9078L-88.0334 91.8782L-87.062 91.8486H-89.0047H-90.9473L-89.976 91.8782ZM67.821 95.8234L67.799 97.1624L69.4677 97.1376L71.1363 97.1127L71.1409 95.8439L71.1454 94.575L71.1131 95.8212L71.0809 97.0674H69.4925H67.9041L67.8736 95.7759L67.843 94.4843L67.821 95.8234ZM-88.2077 95.572V96.5236H-87.1617H-86.1156V95.572V94.6203H-87.1617H-88.2077V95.572ZM-55.6887 94.7408L-55.7395 94.8612L-55.7104 95.6698L-55.6814 96.4783L-54.6603 96.5041L-53.6392 96.53V95.5751V94.6203H-54.6385H-55.6378L-55.6887 94.7408ZM42.1703 96.2285L42.9911 96.2591L43.0183 99.7674L43.0456 103.276L43.0693 99.7185L43.093 96.1611L42.2213 96.1796L41.3496 96.198L42.1703 96.2285ZM37.8428 97.135L38.7194 97.1652L39.5364 97.1348L40.3534 97.1043L38.6599 97.1045L36.9663 97.1047L37.8428 97.135ZM39.4275 99.8091L39.4568 100.466L40.3285 100.492L41.2002 100.519V99.8353V99.152H40.2992H39.3982L39.4275 99.8091ZM67.0021 99.8318V100.512H67.8488H68.6956V99.8318V99.152H67.8488H67.0021V99.8318ZM-79.2964 103.684V106.992L-79.2668 105.338L-79.2373 103.684L-79.2668 102.03L-79.2964 100.376V103.684ZM-83.5504 105.291L-83.0274 105.325L-82.5044 105.291L-81.9814 105.258H-83.0274H-84.0734L-83.5504 105.291ZM-59.3425 105.291L-58.8195 105.325L-58.2964 105.291L-57.7734 105.258H-58.8195H-59.8655L-59.3425 105.291ZM43.3669 106.832L43.7903 106.866L44.2137 106.832L44.6371 106.797H43.7903H42.9436L43.3669 106.832ZM63.8889 106.832L64.3123 106.866L64.7357 106.832L65.1591 106.797H64.3123H63.4655L63.8889 106.832Z" fill="#FFC114"/>
<path fill-rule="evenodd" clip-rule="evenodd" d="M48.2494 -114.18L48.2235 -110.078L44.6783 -110.114L41.1332 -110.149L41.0671 -107.675L41.0009 -105.2V-102.904V-100.607H37.0265H33.052L32.9943 -99.3155L32.9366 -98.0239L32.8853 -86.6946L32.834 -75.3652L32.8081 -70.3803L32.7822 -65.3954L36.7421 -65.3718L40.7021 -65.348V-62.6448V-59.9417L45.6497 -59.8815L50.5973 -59.8214H53.1835H55.7698L55.7075 -59.5381L55.6452 -59.2549V-54.312V-49.3692L44.139 -49.4334L32.6328 -49.4974V-48.3251V-47.1527L34.8493 -47.0998L37.0659 -47.047L57.474 -46.9484L77.8822 -46.8499L77.9192 -46.8836L77.9564 -46.9173L78.0182 -59.7818L78.0799 -72.6462L78.115 -72.6985L78.1501 -72.7508L78.2204 -86.543L78.2907 -100.335L75.2614 -100.336L72.2322 -100.336L71.2539 -100.395L70.2755 -100.454L70.3075 -105.184L70.3394 -109.915L67.8078 -109.974L65.2762 -110.033H64.2463H63.2164V-114.097V-118.161L59.016 -118.221L54.8156 -118.281H51.5454H48.2753L48.2494 -114.18ZM-56.3625 -100.72L-56.427 -97.5708L-56.4277 -94.6251L-56.4285 -91.6795L-56.535 -77.4964L-56.6416 -63.3134L-56.6716 -63.2861L-56.7016 -63.2588L-64.186 -63.2638L-71.6706 -63.2688V-57.8885V-52.5081L-71.7353 -51.5451L-71.8001 -50.582L-73.0055 -50.5536L-74.2109 -50.5251L-65.8427 -50.4829L-57.4746 -50.4407H-53.141H-48.8075L-48.7794 -51.5056L-48.7514 -52.5706H-47.8598H-46.9683L-46.9146 -52.7745L-46.8609 -52.9784L-46.7384 -71.5586L-46.6159 -90.1387L-46.6461 -91.3849L-46.6764 -92.6312H-47.5926L-48.5087 -92.6311L-48.4809 -98.2505L-48.453 -103.87H-52.3756H-56.298L-56.3625 -100.72ZM59.518 -103.179L59.8293 -103.122V-101.955V-100.788H62.0708H64.3123V-98.7966V-96.8049L65.9311 -96.78L67.55 -96.7551L67.5438 -96.5058L67.5375 -96.2566L67.5189 -92.5859L67.5002 -88.9151H65.9187H64.3372L64.2749 -88.6319L64.2127 -88.3487V-86.6493V-84.9498L61.9463 -84.9612L59.6799 -84.9725L59.6521 -83.7716L59.6243 -82.5707H58.0494H56.4745L53.918 -82.6305L51.3615 -82.6904V-83.8541V-85.0179H49.6182H47.8748V-87.0118V-89.0058L46.3058 -89.0066L44.7367 -89.0073L44.2137 -89.0645L43.6907 -89.1217V-93.0063V-96.891H45.8326H47.9744V-98.8813V-100.872H49.6805H51.3866L51.4213 -100.903L51.456 -100.935L51.5235 -102.085L51.5912 -103.235H55.3989H59.2067L59.518 -103.179ZM13.3063 -98.6584V-96.1659H16.2949H19.2835V-98.6584V-101.151H16.2949H13.3063V-98.6584ZM91.6085 -98.6584V-96.1659H94.5971H97.5858V-98.6584V-101.151H94.5971H91.6085V-98.6584ZM-94.6582 -92.8356L-95.5797 -92.8056L-95.5803 -91.6987L-95.5809 -90.5919L-95.6325 -87.8728L-95.684 -85.1538L-95.7835 -70.7882L-95.8831 -56.4226L-95.8159 -54.6418L-95.7486 -52.8611L-93.9457 -52.8006L-92.1427 -52.7402L-89.5526 -52.7686L-86.9624 -52.7972L-86.902 -59.5042L-86.8415 -66.2111L-86.7634 -79.5571L-86.6853 -92.9031L-90.211 -92.8842L-93.7367 -92.8655L-94.6582 -92.8356ZM-119.688 -80.2595V-71.7852H-118.941H-118.194L-118.179 -74.8441L-118.163 -77.903L-118.14 -77.9937L-118.117 -78.0843L-118.105 -79.0133L-118.094 -79.9423H-116.102H-114.109V-80.5767V-81.2112H-112.714H-111.32V-84.9725V-88.7339H-115.504H-119.688V-80.2595ZM-30.4274 -84.749V-80.7642L-29.3565 -80.7384L-28.2856 -80.7127L-28.2563 -80.0556L-28.227 -79.3985H-26.239H-24.2509V-75.5918V-71.7852H-23.2059H-22.1609L-22.135 -80.2595L-22.1091 -88.7339H-26.2682H-30.4274V-84.749ZM32.6715 -56.1507L32.6718 -54.9724L32.7067 -55.588L32.7417 -56.2035L32.7064 -56.7663L32.6711 -57.3289L32.6715 -56.1507ZM-91.215 -50.5994L-89.5898 -50.5721L-88.0271 -50.5995L-86.4643 -50.6269L-89.6522 -50.6268L-92.8401 -50.6267L-91.215 -50.5994ZM-89.8016 -46.238V-44.1416H-88.4567H-87.1119V-42.2382V-40.3349H-85.6674H-84.2228V-38.2539V-36.173L-83.401 -36.1467L-82.5791 -36.1204L-82.5532 -32.0645L-82.5272 -28.0086H-80.6355H-78.7437V-25.3348V-22.6611H-77.2494H-75.755V-25.3348V-28.0086H-76.8011H-77.8471V-32.0418V-36.0751H-78.3452H-78.8433V-38.205V-40.3349H-79.6403H-80.4372V-42.2382V-44.1416H-81.1844H-81.9316L-81.932 -46.2035L-81.9325 -48.2654L-85.867 -48.3L-89.8016 -48.3344V-46.238ZM-61.8081 -46.1355V-44.1416H-62.5552H-63.3024V-42.2382V-40.3349H-64.0994H-64.8963V-38.205V-36.0751H-65.3944H-65.8926V-32.0418V-28.0086H-66.6895H-67.4865V-25.3348V-22.6611H-65.7929H-64.0994V-25.3348V-28.0086H-62.6559H-61.2125L-61.1865 -32.0645L-61.1605 -36.1204L-60.3387 -36.1467L-59.5168 -36.173V-38.2539V-40.3349H-58.0723H-56.6278V-42.2356V-44.1363L-55.3078 -44.1616L-53.9878 -44.1869L-53.9609 -46.1582L-53.9341 -48.1295H-57.8711H-61.8081V-46.1355ZM26.0788 -42.4422L26.1076 -41.6491L27.5272 -41.624L28.9468 -41.5988V-40.2418V-38.8847H30.4909H32.035V-37.7065V-36.5282H36.3686H40.7021V-39.8817V-43.2352H33.376H26.05L26.0788 -42.4422ZM70.267 -39.8817L70.2943 -36.5282H74.5757H78.857V-37.7065V-38.8847H80.4509H82.0448V-40.2443V-41.6038H83.4395H84.8342V-42.4195V-43.2352H77.537L70.2397 -43.2353L70.267 -39.8817ZM42.4171 -40.6974L42.4454 -39.8364L43.3669 -39.8103L44.2884 -39.7843V-38.4734V-37.1627H45.2847H46.2809V-35.6672V-34.1717H46.8288H47.3767V-31.41V-28.6483L48.6967 -28.623L50.0166 -28.5977L50.0436 -26.7623L50.0705 -24.927H51.1146H52.1585V-26.7397V-28.5524H51.4113H50.6642V-31.3563V-34.1602L50.3404 -34.1887L50.0166 -34.217L49.9893 -35.6899L49.9619 -37.1627H49.4164H48.871V-38.4769V-39.7911H48.3729H47.8748V-40.6493V-41.5075L45.1318 -41.533L42.3889 -41.5585L42.4171 -40.6974ZM61.8218 -40.6115V-39.8006L61.2988 -39.7731L60.7757 -39.7458L60.7481 -38.4588L60.7206 -37.172L60.2002 -37.1446L59.6799 -37.1174L59.6525 -35.6445L59.6251 -34.1717H59.3302H59.0353L59.0089 -31.3847L58.9826 -28.5977L58.4097 -28.5705L57.8369 -28.5433V-26.7351V-24.927H59.0324H60.2278V-26.785V-28.643H61.224H62.2202V-31.4028V-34.1627L62.7931 -34.1899L63.3659 -34.217L63.3933 -35.6899L63.4207 -37.1627H64.4144H65.4081V-38.4769V-39.7911H66.2976H67.1871L67.2191 -40.607L67.2511 -41.423L64.5364 -41.4227L61.8218 -41.4225V-40.6115ZM-88.4069 -36.5282V-35.0781H-86.813H-85.2191V-36.5282V-37.9784H-86.813H-88.4069V-36.5282ZM-58.5206 -36.526V-35.0734L-56.9516 -35.0985L-55.3825 -35.1234L-55.3551 -36.5509L-55.3276 -37.9784H-56.9242H-58.5206V-36.526ZM43.3918 -34.5343V-33.5373H44.4877H45.5835V-34.5343V-35.5312H44.4877H43.3918V-34.5343ZM64.113 -34.5343V-33.5373H65.2089H66.3047V-34.5343V-35.5312H65.2089H64.113V-34.5343ZM47.3767 -25.3348V-24.8363H47.9246H48.4725V-25.3348V-25.8333H47.9246H47.3767V-25.3348ZM61.224 -25.3348V-24.8363H61.7719H62.3199V-25.3348V-25.8333H61.7719H61.224V-25.3348ZM52.2581 -23.7034V-22.5705H52.806H53.354V-23.7034V-24.8363H52.806H52.2581V-23.7034ZM56.2861 -24.7173L56.2359 -24.5981L56.2643 -23.607L56.2928 -22.6158H56.8407H57.3886L57.4166 -23.7261L57.4446 -24.8363H56.8904H56.3363L56.2861 -24.7173ZM-82.6289 -23.2956V-22.5705H-81.8319H-81.035V-23.2956V-24.0206H-81.8319H-82.6289V-23.2956ZM-62.7047 -23.2956V-22.5705H-61.9077H-61.1107V-23.2956V-24.0206H-61.9077H-62.7047V-23.2956ZM-75.5558 -20.9844V-19.3983H-74.7588H-73.9619V-20.9844V-22.5705H-74.7588H-75.5558V-20.9844ZM-69.7778 -20.9844V-19.3983H-68.9808H-68.1838V-20.9844V-22.5705H-68.9808H-69.7778V-20.9844ZM47.0778 2.98854V7.33901H43.342H39.6062V12.4146V17.4901H35.472H31.3377V39.413V61.336L35.6463 61.3884L39.9549 61.4409L54.9425 61.5325L69.93 61.624L69.96 61.5968L69.9899 61.5695L69.9907 39.5072L69.9915 17.4448L69.9911 12.3919L69.9907 7.33901H66.2549H62.5191V2.98854V-1.36193H54.7985H47.0778V2.98854ZM59.132 15.8587V17.1276H61.4731H63.8142V19.2575V21.3874H65.4579H67.1017V25.5113V29.6352H65.4579H63.8142V31.7061V33.777L62.8429 33.8356L61.8716 33.8941L60.5018 33.8945L59.132 33.895V35.1639V36.4328H54.7985H50.465V35.1639V33.895H48.8294H47.1938L47.0362 33.84L46.8786 33.785V31.7101V29.6352H44.6869H42.4953V25.5113V21.3874H44.6869H46.8786V19.2575V17.1276H48.6718H50.465V15.8587V14.5898H54.7985H59.132V15.8587ZM-107.667 16.4629L-107.733 16.5233V18.6835V20.8436H-105.093H-102.454V18.623V16.4025H-105.027H-107.601L-107.667 16.4629ZM-39.3933 18.623V20.8436H-36.7534H-34.1134V18.623V16.4025H-36.7534H-39.3933V18.623ZM7.22937 63.8951V66.6142L10.5916 66.6143H13.9538L13.926 63.8952L13.8983 61.1761H10.5638H7.22937V63.8951ZM95.6929 63.894V66.6142H99.0815H102.47L102.444 63.9178L102.417 61.2214L99.0552 61.1976L95.6929 61.1736V63.894ZM31.316 70.0295L31.2879 71.1006L27.0291 71.1243L22.7703 71.1478V72.5064V73.865H20.6284H18.4866V75.4964V77.1278H17.2413H15.996V78.0341V78.9405H22.5212H29.0464V75.9487V72.957L40.2289 73.0042L51.4113 73.0514L52.7313 73.0949L54.0513 73.1385V71.3264V69.5145H62.0283H70.0053L69.9718 69.3559L69.9383 69.1973L60.4756 69.1409L51.0129 69.0845L41.1785 69.0214L31.3442 68.9584L31.316 70.0295ZM78.2592 72.1624V73.2242L79.2715 73.25L80.2838 73.2758L80.2606 76.1082L80.2374 78.9405H86.9191H93.6009V78.0341V77.1278H92.3556H91.1104V75.4964V73.865H88.9685H86.8267V72.5073V71.1497L82.543 71.1252L78.2592 71.1006L78.2592 72.1624ZM-92.6674 78.4194L-92.6408 80.7985L-91.022 80.8234L-89.4031 80.8484V83.1573V85.4662H-87.6598H-85.9164V88.004V90.5418H-84.9202H-83.924V95.4814V100.421H-81.5829H-79.2418V103.684V106.947H-77.4486H-75.6554V103.684V100.421H-76.9505H-78.2456V95.5314V90.6419L-78.7686 90.6144L-79.2916 90.5871L-79.3181 88.0266L-79.3445 85.4662H-80.3392H-81.3338V83.155V80.8438H-82.2304H-83.127V78.442V76.0402H-87.9105H-92.6939L-92.6674 78.4194ZM-58.7198 78.442V80.8438H-59.6164H-60.513V83.155V85.4662H-61.4578H-62.4027L-62.4291 88.0266L-62.4556 90.5871L-63.0284 90.6143L-63.6013 90.6415V95.5312V100.421H-64.5975H-65.5937V103.684V106.947H-63.5016H-61.4096V103.684V100.421H-59.6662H-57.9229V95.4814V90.5418H-56.9267H-55.9304V88.004V85.4662H-54.1871H-52.4437V83.1573V80.8484L-50.8249 80.8234L-49.206 80.7985L-49.1794 78.4194L-49.1529 76.0402H-53.9363H-58.7198V78.442ZM30.4411 81.8861V83.2003H34.2709H38.1009L40.3229 83.2409L42.5451 83.2816L60.7855 83.3436L79.0258 83.4056L79.0898 83.0537L79.1536 82.7018L79.1547 81.7837L79.1558 80.8656L72.9544 80.8115L66.753 80.7574L52.2581 80.6628L37.7632 80.5683L34.1022 80.5701L30.4411 80.5719V81.8861ZM35.6878 84.6203L35.6214 84.6807V86.8862V89.0916L36.8418 89.102L38.0621 89.1125L38.2115 89.1247L38.361 89.1369L38.3882 90.791L38.4153 92.4451H39.8576H41.2998V94.3031V96.1611H42.1964H43.093V99.7412V103.321H45.0356H46.9782V105.678V108.034H48.5223H50.0665V105.678V103.321H48.9706H47.8748V99.7412V96.1611H47.3767H46.8786V94.3484V92.5357H46.0816H45.2847V90.8628V89.1898L44.5126 89.1634L43.7405 89.1369V87.7093V86.2817L41.4741 86.2818L39.2078 86.2819V85.4795V84.677L38.4456 84.6185L37.6833 84.5599H36.7188H35.7542L35.6878 84.6203ZM70.8624 84.6249L70.2896 84.6596V85.5614V86.4632H67.3507H64.4119V87.8227V89.1822H63.667H62.9221L62.895 90.8363L62.8678 92.4904L62.0459 92.5167L61.224 92.5431V94.3521V96.1611H60.7769H60.3297L60.3037 99.7185L60.2776 103.276L59.4557 103.302L58.6339 103.329V105.681V108.034H60.3772H62.1206V105.68V103.326L63.59 103.301L65.0594 103.276L65.0855 99.7185L65.1115 96.1611H65.9551H66.7987L66.8256 94.3258L66.8526 92.4904L68.3199 92.4653L69.787 92.4403L69.8142 90.7885L69.8413 89.1369L71.2127 89.1117L72.5843 89.0864L72.5576 86.8458L72.531 84.6052L71.9831 84.5977L71.4352 84.5903L70.8624 84.6249ZM-90.9971 90.0433V91.8106H-89.0545H-87.1119V90.0433V88.2759H-89.0545H-90.9971V90.0433ZM-54.6354 90.0433V91.8106H-52.7426H-50.8498V90.0433V88.2759H-52.7426H-54.6354V90.0433ZM37.0825 94.5901L37.0161 94.6505V95.859V97.0675H38.6598H40.3036V95.7986V94.5297H38.7263H37.1489L37.0825 94.5901ZM67.8987 95.7986V97.0675H69.4926H71.0865V95.7986V94.5297H69.4926H67.8987V95.7986ZM-84.0023 106.199L-83.9738 107.083H-83.0274H-82.081L-82.0525 106.199L-82.024 105.315H-83.0274H-84.0308L-84.0023 106.199ZM-59.7943 106.199L-59.7659 107.083H-58.8195H-57.8731L-57.8446 106.199L-57.8161 105.315H-58.8195H-59.8228L-59.7943 106.199ZM42.9934 107.49V108.125H43.8401H44.6869V107.49V106.856H43.8401H42.9934V107.49ZM63.5153 107.49V108.125H64.3621H65.2089V107.49V106.856H64.3621H63.5153V107.49ZM-75.4562 108.941V110.935H-74.46H-73.4638V108.941V106.947H-74.46H-75.4562V108.941ZM-68.3602 108.918L-68.3333 110.889L-67.362 110.915L-66.3907 110.941V108.944V106.947H-67.3889H-68.387L-68.3602 108.918ZM50.2657 109.484V110.935H51.0627H51.8596V109.484V108.034H51.0627H50.2657V109.484ZM56.243 109.484V110.935H57.0898H57.9365V109.484V108.034H57.0898H56.243V109.484Z" fill="#6F7966"/>
</g>
</svg>
