<svg width="127" height="116" viewBox="0 0 127 116" fill="none" xmlns="http://www.w3.org/2000/svg">
<mask id="mask0_18_101" style="mask-type:alpha" maskUnits="userSpaceOnUse" x="0" y="0" width="127" height="116">
<rect width="127" height="116" fill="#D9D9D9"/>
</mask>
<g mask="url(#mask0_18_101)">
<path fill-rule="evenodd" clip-rule="evenodd" d="M13.4653 36.0696V41.308H17.6995H21.9336V36.0696V30.8312H17.6995H13.4653V36.0696ZM102.732 36.0696V41.308H106.966H111.2V36.0696V30.8312H106.966H102.732V36.0696ZM146.568 38.7572V43.6767H145.671H144.774V44.8129V45.9492L143.404 45.9745L142.035 45.9998L142.007 47.4347L141.98 48.8696H140.188H138.396L138.422 51.8532L138.448 54.8368H152.246H166.045L166.071 51.8532L166.097 48.8696H161.613H157.128V47.4119V45.9543H155.733H154.339V44.8155V43.6767H153.442H152.545V38.7572V33.8376H149.557H146.568V38.7572ZM224.875 38.7572V43.6767H223.978H223.082V44.8129V45.9492L221.712 45.9745L220.342 45.9998L220.314 47.4338L220.287 48.8677L215.881 48.8914L211.475 48.9151L211.447 51.8991L211.42 54.883L224.548 54.8599L237.677 54.8368L237.703 51.8532L237.73 48.8696H236.583H235.435V47.4145V45.9594L234.066 45.9341L232.696 45.9087L232.668 44.7962L232.64 43.6837L231.771 43.6574L230.902 43.6312L230.877 38.7344L230.851 33.8376H227.863H224.875V38.7572ZM31.9567 41.8774L31.8947 44.2689L31.7913 59.5532L31.6879 74.8375L31.7482 74.9268L31.8085 75.016H34.5802H37.3518L37.4144 67.5228L37.477 60.0296L37.5629 49.8261L37.6488 39.6226L37.6061 39.5543L37.5634 39.486H34.791H32.0186L31.9567 41.8774ZM86.6534 40.602L86.5973 41.3536L86.5445 53.7436L86.4916 66.1335L86.4274 70.7114L86.3633 75.2893H89.2012H92.0389L92.1053 71.2125L92.1716 67.1357L92.2235 54.0624L92.2754 40.9892L92.3191 40.4198L92.3628 39.8504H89.5361H86.7095L86.6534 40.602ZM25.095 47.8378L25.0473 47.913L24.9836 52.5592L24.9201 57.2055L24.9033 61.8277L24.8866 66.45L24.9294 66.4877L24.9723 66.5254L26.3671 66.5572L27.7619 66.589L27.8117 57.251L27.8615 47.913V47.9018V47.8905L26.5021 47.8266L25.1427 47.7627L25.095 47.8378ZM96.2558 52.2709V56.31L96.1896 61.6545L96.1235 66.999H97.5247H98.9261L98.9829 65.9741L99.0398 64.9492L99.098 56.5905L99.1564 48.2318H97.7061H96.2558V52.2709ZM160.393 74.3555L160.366 75.7904L158.498 75.8152L156.63 75.84V77.4778V79.1157H154.936H153.243V80.0722V81.0288H150.453H147.664V83.2608V85.4928H151.2H154.737V86.2672V87.0416H164.451H174.165V86.2672V85.4928H174.563H174.962V87.0789V88.665L175.783 88.7158L176.605 88.7664L189.482 88.8104L202.359 88.8545V87.2648V85.6751H202.803H203.247L203.276 86.3355L203.306 86.996L212.994 87.0193L222.683 87.0425V86.2677V85.4928H226.27H229.856V83.2608V81.0288H227.067H224.277V80.0744V79.1199L222.559 79.0951L220.84 79.0701L220.813 77.455L220.786 75.84L218.92 75.8152L217.054 75.7904L217.027 74.3555L216.999 72.9207H214.178H211.358L211.292 75.3121L211.226 77.7036L211.226 80.5647L211.226 83.4258L202.882 83.3662L194.538 83.3067L182.434 83.2589L170.329 83.2113L168.112 83.1576L165.895 83.1039V78.0123V72.9207H163.158H160.421L160.393 74.3555ZM40.4644 80.7864V81.9398L44.1755 81.9609L47.8866 81.9819L50.0784 81.991L52.2702 82.0002L67.8868 82.0753L83.5035 82.1504V81.012V79.8735L77.202 79.8138L70.9006 79.7539L55.6825 79.6934L40.4644 79.6329V80.7864ZM55.6077 125.168V128.949H52.3699H49.132V133.366V137.784L45.5703 137.807L42.0086 137.831L41.9832 145.87L41.9577 153.908L39.3431 153.932L36.7283 153.957L36.7014 155.847L36.6744 157.737H35.0825H33.4904V158.935V160.133L32.6685 160.074L31.8466 160.016L31.3235 160.015L30.8005 160.015V155.733V151.451H28.1604H25.5202V155.733V160.015H24.773H24.0258V161.017V162.019H22.7791H21.5323L21.5586 164.866L21.5849 167.713L27.5377 167.737L33.4904 167.76V168.397V169.034H35.0818H36.673L36.7007 170.332L36.7283 171.63L39.3436 171.655L41.9588 171.679V177.053V182.426H48.6338H55.3089V180.467V178.509H56.8033H58.2977L58.2979 192.698L58.2982 206.887L58.3636 209.005L58.4291 211.123H62.3326H66.2361L66.3018 209.059L66.3675 206.994V192.751V178.509H67.8619H69.3563V180.467V182.426H76.0812H82.8061V177.051V171.676H85.3964H87.9867V170.355V169.034H89.5807H91.1748V168.396V167.759H97.1524H103.13V164.889V162.019H101.935H100.739V161.017V160.015H99.942H99.145V155.733V151.451H96.5048H93.8647V155.733V160.015H93.4317H92.9987L92.0868 160.074L91.1748 160.133V158.935V157.737H89.5807H87.9867V155.824V153.911H85.3969H82.8072L82.7817 145.871L82.7563 137.831L79.1447 137.807L75.5333 137.784V133.367V128.951L72.3203 128.927L69.1073 128.903L69.0813 125.145L69.0553 121.387H62.3315H55.6077V125.168ZM65.0973 141.156L66.0686 141.157V142.25V143.343H68.1089H70.1493L70.1762 145.188L70.2032 147.033L71.6229 147.058L73.0426 147.083V150.679V154.275H71.598H70.1534V156.096V157.916L68.1359 157.94L66.1185 157.965L66.0905 159.081L66.0625 160.197H62.3295H58.5966V159.106V158.015L57.0274 157.99L55.4583 157.965L55.4313 156.12L55.4044 154.275H53.5135H51.6226V150.631V146.987H53.5156H55.4085V145.165V143.343H57.0025H58.5966V142.19V141.036L61.3612 141.096L64.1259 141.156L65.0973 141.156ZM203.256 170.264V192.447H207.39H211.525V170.264V148.08H207.39H203.256V170.264ZM26.7158 194.997V198.913L29.8789 198.937L33.0421 198.961L33.069 200.943L33.0958 202.924H36.282H39.4681V204.928V206.933H47.3885H55.3089V199.143V191.354H43.1045H30.9001V191.218V191.081H28.8079H26.7158V194.997ZM93.8647 191.218V191.354H81.6105H69.3563V199.143V206.933H77.3265H85.2967V204.928V202.924H88.4848H91.6729V200.92V198.916H94.861H98.0491V194.998V191.081H95.9569H93.8647V191.218ZM140.49 202.693V207.928L139.469 207.954L138.448 207.98L138.42 209.188L138.392 210.395H136.851H135.31V213.902V217.41H143.828H152.346V215.77V214.13H153.589H154.832L154.859 215.656L154.887 217.182L156.456 217.207L158.025 217.232V218.551V219.869H159.818H161.611V221.008V222.147H166.496H171.382L171.353 221.122L171.325 220.097L170.103 220.071L168.881 220.046L168.907 217.794L168.934 215.542L170.154 215.516L171.375 215.491V214.81V214.13H167.539H163.704V212.813V211.496L162.981 211.469L162.259 211.442L162.262 210.645L162.264 209.848H155.764H149.265L149.236 208.914L149.208 207.98L148.236 207.954L147.265 207.928V202.693V197.458H143.878H140.49V202.693ZM228.96 202.696V207.935H227.914H226.867V208.891V209.848H220.196H213.524L213.496 210.782L213.468 211.716L212.945 211.743L212.421 211.771L212.42 212.7L212.419 213.629L212.358 213.97L212.296 214.312H208.523H204.75V214.899V215.487L205.273 215.514L205.796 215.542L205.823 217.797L205.85 220.052H205.3H204.75V221.099V222.147H209.632H214.514V221.008V219.869H216.307H218.1V218.551V217.232L219.669 217.207L221.239 217.182L221.266 215.656L221.293 214.13H222.536H223.779V215.77V217.41H232.348H240.917L240.891 213.925L240.865 210.44L239.296 210.415L237.727 210.39V209.162V207.935H236.731H235.734V202.696V197.458H232.347H228.96V202.696ZM189.831 199.986L190.902 200.015L191.973 199.986L193.044 199.957H190.902H188.76L189.831 199.986ZM203.223 200.177L203.279 200.373H195.297H187.315V202.195V204.017H192.828H198.341L204.933 204.078L211.525 204.138V202.119V200.1H209H206.476L204.821 200.04L203.167 199.981L203.223 200.177ZM213.537 204.427L213.541 204.701L213.586 204.54L213.632 204.378L213.583 204.266L213.533 204.154L213.537 204.427ZM190.822 211.647L191.887 211.676L193.014 211.647L194.14 211.618L191.948 211.618L189.756 211.618L190.822 211.647ZM207.26 211.738L208.326 211.767L209.452 211.738L210.578 211.709L208.387 211.709L206.195 211.709L207.26 211.738ZM172.535 215.178L172.472 216.18L172.471 216.691L172.471 217.203L177.427 217.26L182.384 217.318L192.969 217.376L203.555 217.435V215.884V214.334L193.368 214.277L183.181 214.22L177.889 214.198L172.598 214.175L172.535 215.178Z" fill="#2E4990"/>
<path fill-rule="evenodd" clip-rule="evenodd" d="M184.787 27.888L184.72 29.0444L184.685 29.076L184.65 29.1077H182.944H181.238V31.1083V33.1088H179.096H176.954V37.0136V40.9182L177.477 40.9757L178 41.0332L179.569 41.0339L181.138 41.0347V43.039V45.0433H182.882H184.625V46.213V47.3827L187.182 47.4429L189.739 47.503H191.314H192.889L192.916 46.2959L192.944 45.0888L195.211 45.1002L197.477 45.1117V43.4034V41.6952L197.54 41.4105L197.602 41.1259H199.183H200.765L200.784 37.4362L200.802 33.7465L200.809 33.496L200.815 33.2455L199.196 33.2204L197.577 33.1954V31.1934V29.1914H195.335H193.094V28.0185V26.8455L192.782 26.7886L192.471 26.7316H188.663H184.855L184.787 27.888ZM15.5892 30.8084L17.7627 30.8348L19.8731 30.8084L21.9835 30.7819H17.6995L13.4155 30.782L15.5892 30.8084ZM104.855 30.8084L107.029 30.8348L109.139 30.8084L111.25 30.7819H106.966L102.682 30.782L104.855 30.8084ZM191.777 31.7097L191.805 32.6336L192.026 32.6878L192.247 32.7419L192.772 32.7431L193.297 32.7444L193.27 34.5892L193.243 36.4341L192.471 36.4607L191.699 36.4873V37.3945V38.3017H187.813H183.928V37.3451V36.3885H182.932H181.935V34.5241V32.6597L182.957 32.6337L183.978 32.6078L184.006 31.6729L184.035 30.738L187.892 30.7618L191.749 30.7857L191.777 31.7097ZM230.899 38.7116V43.6312L230.927 41.1422L230.955 38.6532L230.927 36.2226L230.899 33.7921V38.7116ZM31.9398 39.5138L31.8899 39.6328L31.9186 40.7664L31.9472 41.9002L31.9965 40.6474L32.0458 39.3946L32.0178 39.3947L31.9897 39.3949L31.9398 39.5138ZM88.0614 39.8275L89.4811 39.8554L90.9008 39.8275L92.3205 39.7995H89.4811H86.6417L88.0614 39.8275ZM92.2457 54.0624L92.1707 67.9556L92.132 70.7798L92.0932 73.604L92.1369 73.0346L92.1805 72.4652H94.1024H96.0243L96.0905 68.7072L96.1567 64.9492L96.2225 56.5929L96.2884 48.2366L97.7416 48.2088L99.1948 48.181L97.7253 48.1609L96.2558 48.1408V45.4532V42.7657H94.3157H92.3758L92.3481 41.4675L92.3205 40.1693L92.2457 54.0624ZM29.8789 42.3784L27.9113 42.4051V45.0871V47.769L27.0894 47.7997L26.2674 47.8304L27.1004 47.8489L27.9335 47.8674L27.876 48.1635L27.8185 48.4596L27.8003 60.2574L27.7821 72.0552L29.7273 72.0799L31.6724 72.1045L31.7342 67.7981L31.796 63.4916L31.8586 52.9009L31.9214 42.3102L31.884 42.331L31.8466 42.3516L29.8789 42.3784ZM144.714 44.8155L144.714 45.9998L144.749 45.3811L144.784 44.7624L144.748 44.1967L144.713 43.6312L144.714 44.8155ZM154.377 44.8155L154.378 45.9998L154.413 45.3811L154.448 44.7624L154.412 44.1967L154.377 43.6312L154.377 44.8155ZM232.684 44.77V45.9087L232.72 45.3393L232.755 44.77L232.72 44.2006L232.684 43.6312V44.77ZM24.9889 47.8371L24.9225 47.8978V48.3837V48.8696H22.0333H19.1441V49.5578V50.246L17.1966 50.2303L15.2489 50.2145L15.2117 50.2487L15.1744 50.2828L15.1092 57.1832L15.044 64.0837H17.0442H19.0444V64.767V65.4503L20.3645 65.4505L21.6846 65.4509L23.2537 65.5104L24.8228 65.5699V66.1023V66.6346L26.0931 66.6149L27.3633 66.5952L26.1429 66.5665L24.9225 66.5378L24.9135 65.9713L24.9044 65.4047L24.9263 59.8475L24.9481 54.2902L25.0099 51.0332L25.0719 47.7762L25.0636 47.7763L25.0553 47.7763L24.9889 47.8371ZM99.111 53.508L99.0454 57.7364V61.8108V65.8851L101.661 65.951L104.276 66.0167L104.525 65.984L104.774 65.9513L104.824 65.2681L104.874 64.5848H106.84H108.807L108.85 64.4827L108.892 64.3805L108.918 57.5589L108.944 50.7372L106.934 50.7125L104.923 50.6879V50.0092V49.3305L102.05 49.305L99.1767 49.2795L99.111 53.508ZM98.9457 66.4934V66.9899L98.3729 67.0228L97.8 67.0557L98.4227 67.0729L99.0454 67.0901V66.5435V65.9969H98.9955H98.9457V66.4934ZM161.792 72.8977L163.218 72.9258L164.581 72.8976L165.945 72.8696L163.156 72.8697L160.366 72.8698L161.792 72.8977ZM214.162 72.8972L216.999 72.9235L217.027 74.3569L217.054 75.7904L218.92 75.8152L220.786 75.84L220.815 77.455L220.845 79.0701L220.867 77.4075L220.89 75.7449H218.999H217.109L217.082 74.31L217.054 72.8751L214.19 72.873L211.325 72.8709L214.162 72.8972ZM88.7588 75.3574L89.8796 75.3865L91.0004 75.3574L92.1212 75.3283H89.8796H87.638L88.7588 75.3574ZM158.448 75.722L156.53 75.7488L156.553 77.455L156.575 79.1612L156.605 77.4986L156.635 75.836H158.47H160.305L160.366 75.7449L160.428 75.6538L160.397 75.6744L160.366 75.6951L158.448 75.722ZM153.18 80.0722L153.181 81.0744L153.217 80.5472L153.253 80.02L153.216 79.545L153.18 79.0701L153.18 80.0722ZM83.5249 80.9587L83.5035 82.1184L81.3864 82.1449L79.2693 82.1714L81.3895 82.1923L83.5097 82.2132L83.5597 82.094L83.6098 81.9748L83.578 80.8869L83.5463 79.7989L83.5249 80.9587ZM40.3966 81.3932V81.9854L40.4368 81.6893L40.477 81.3932L40.4368 81.0971L40.3966 80.8011V81.3932ZM147.607 83.2608L147.607 85.5384L147.638 84.4277L147.67 83.317L147.638 82.1501L147.607 80.9833L147.607 83.2608ZM51.5493 82.0053L51.8246 82.0433L52.0475 82.004L52.2702 81.9646L51.7721 81.9659L51.274 81.9672L51.5493 82.0053ZM61.7654 82.099L62.9916 82.1277L64.1565 82.0989L65.3214 82.0701L62.9304 82.0702L60.5393 82.0703L61.7654 82.099ZM174.339 85.5572L174.563 85.5966L174.787 85.5572L175.011 85.5176H174.563H174.115L174.339 85.5572ZM202.4 87.2694L202.4 88.9092L202.433 88.0619L202.466 87.2146L202.433 86.422L202.4 85.6295L202.4 87.2694ZM175.137 88.7459L175.362 88.7855L175.536 88.744L175.709 88.7026L175.31 88.7044L174.912 88.7062L175.137 88.7459ZM189.779 88.8383L190.1 88.8749L190.476 88.8391L190.852 88.8032L190.155 88.8024L189.457 88.8017L189.779 88.8383ZM193.916 88.8389L194.289 88.8747L194.663 88.8389L195.036 88.8032H194.289H193.542L193.916 88.8389ZM62.3564 121.364L69.0553 121.389L69.0813 125.146L69.1073 128.903L72.3193 128.927L75.5314 128.951L75.5587 133.346L75.586 137.74L75.5845 133.322L75.5831 128.903L72.3712 128.879L69.1593 128.855L69.1333 125.098L69.1073 121.342L62.3824 121.341L55.6576 121.34L62.3564 121.364ZM50.7573 128.926L52.4323 128.953L54.045 128.926L55.6576 128.898L52.3699 128.899H49.0821L50.7573 128.926ZM41.9256 137.847L41.8592 137.907V145.864V153.82H39.3245H36.7899L36.7437 153.888L36.6973 153.957L39.327 153.931L41.9567 153.905L41.9826 145.845L42.0086 137.786H42.0003H41.992L41.9256 137.847ZM58.5966 142.204V143.343H57.0025H55.4085V145.163V146.983L53.4907 147.01L51.5728 147.037L53.5405 147.058L55.5081 147.078V145.258V143.439L57.0773 143.414L58.6464 143.389L58.6745 142.318L58.7025 141.248L60.2685 141.239L61.8345 141.23L62.0835 141.157L62.3326 141.084L60.4646 141.075L58.5966 141.065V142.204ZM64.1476 141.225L65.9627 141.252L65.9907 142.32L66.0188 143.389L68.0363 143.413L70.0537 143.438V145.258V147.078L70.1285 147.078L70.2032 147.078L70.1744 145.211L70.1455 143.343H68.1071H66.0686V142.25V141.157L64.2006 141.177L62.3326 141.198L64.1476 141.225ZM72.9429 150.631V154.184H71.4983H70.0537L70.0765 156.075L70.0992 157.965L70.1284 156.12L70.1575 154.275H71.6001H73.0426V150.677V147.078H72.9928H72.9429V150.631ZM84.0763 153.888L85.3964 153.916L86.7164 153.888L88.0365 153.86H85.3964H82.7563L84.0763 153.888ZM53.4886 154.253L55.4044 154.279L55.4313 156.122L55.4583 157.965L57.0274 157.99L58.5966 158.015V159.106V160.197H62.3269H66.0573L66.0879 159.058L66.1185 157.919L66.0437 157.919L65.969 157.919V159.013V160.106H62.3326H58.6962V159.013V157.919H57.1022H55.5081V156.052V154.184L53.5405 154.205L51.5728 154.226L53.4886 154.253ZM91.2138 158.922V160.151L91.2487 159.537L91.2835 158.922L91.2487 158.307L91.2138 157.692V158.922ZM23.9639 161.017V162.065L23.9998 161.541L24.0358 161.017L23.9998 160.493L23.9639 159.969V161.017ZM91.194 168.371L91.1748 169.029L89.5558 169.057L87.9369 169.084L89.5589 169.105L91.181 169.125L91.2329 169.002L91.2847 168.878L91.2489 168.296L91.2131 167.713L91.194 168.371ZM34.2626 169.102L35.0845 169.132L35.9064 169.102L36.7283 169.071H35.0845H33.4406L34.2626 169.102ZM41.9059 177.051V182.472L41.9338 179.761L41.9618 177.051L41.9338 174.341L41.9059 171.63V177.051ZM55.3087 179.579L55.3085 180.65L55.2428 183.314L55.1772 185.979H43.0386H30.9001V188.484V190.99H28.7581H26.6161V194.998V199.007H29.8022H32.9884L33.0183 200.988L33.0482 202.97L33.0452 200.965L33.0421 198.961L29.8789 198.937L26.7158 198.913V194.997V191.081H28.8079H30.9001V191.218V191.354H43.1056H55.3111L55.3089 199.166L55.3067 206.978L55.3078 207.684L55.3089 208.39H56.8282H58.3475L58.322 193.45L58.2965 178.509H56.8027H55.3089L55.3087 179.579ZM66.3675 192.751V206.994L66.3019 209.058L66.2362 211.121L62.2919 211.147L58.3475 211.172L62.3326 211.171L66.3177 211.169L66.3452 209.78L66.3727 208.39H67.8894H69.4062L69.3737 199.872L69.3411 191.354H81.603H93.8647V191.219V191.085L95.9818 191.058L98.0989 191.031L95.932 191.011L93.7651 190.99V188.484V185.979H81.6266H69.4881L69.4224 183.314L69.3568 180.65L69.3565 179.579L69.3563 178.509H67.8619H66.3675V192.751ZM163.43 192.236L162.309 192.271V195.99V199.708L163.828 199.767L165.347 199.825L174.962 199.874L184.576 199.922L199.003 200.021L213.43 200.119L213.47 200.083L213.51 200.046L213.522 196.27L213.533 192.493L211.309 192.475L209.084 192.457L190.603 192.361L172.122 192.265L168.336 192.233L164.55 192.2L163.43 192.236ZM140.437 202.696V207.98L140.465 205.368L140.493 202.755L140.465 200.084L140.437 197.412L140.437 202.696ZM228.907 202.696V207.98L228.935 205.368L228.963 202.755L228.935 200.084L228.907 197.412L228.907 202.696ZM93.242 198.984L94.861 199.011L96.4799 198.984L98.0989 198.956H94.861H91.6231L93.242 198.984ZM39.4111 204.928V206.978L39.4429 205.953L39.4747 204.928L39.4429 203.904L39.4111 202.879V204.928ZM162.287 207.593L162.241 211.351L162.3 211.408L162.359 211.465L185.124 211.57L207.888 211.675L210.678 211.695L213.468 211.716L213.494 207.912L213.52 204.109L210.903 204.106L208.287 204.104L186.369 203.972L164.451 203.839L163.392 203.837L162.333 203.835L162.287 207.593ZM138.342 208.054L138.292 208.173L138.321 209.306L138.349 210.44L138.399 209.187L138.448 207.935L138.42 207.935L138.392 207.935L138.342 208.054ZM135.258 213.97L135.26 217.455L143.828 217.456L152.396 217.457L143.854 217.433L135.312 217.409L135.284 213.947L135.256 210.486L135.258 213.97ZM172.504 214.859V215.542L172.543 215.2L172.583 214.859L172.543 214.517L172.504 214.175V214.859ZM177.229 217.292L177.454 217.331L177.628 217.29L177.801 217.248L177.402 217.25L177.004 217.252L177.229 217.292ZM188.386 217.386L189.408 217.416L190.429 217.386L191.45 217.357H189.408H187.365L188.386 217.386ZM228.046 217.478L232.362 217.503L236.614 217.478L240.865 217.453H232.297H223.729L228.046 217.478ZM164.07 222.215L166.479 222.241L168.952 222.215L171.425 222.189H166.543H161.661L164.07 222.215ZM207.166 222.215L209.632 222.241L212.098 222.215L214.563 222.189H209.632H204.7L207.166 222.215Z" fill="#3ABDAB"/>
<path fill-rule="evenodd" clip-rule="evenodd" d="M54.8107 12.1659V16.2763L51.2377 16.2405L47.6646 16.2047L47.6018 17.0724L47.5389 17.9402L47.5384 21.8804L47.5379 25.8206H43.503H39.4681V31.4655V37.1105L38.5465 37.1366L37.625 37.1628L42.0975 37.1272L46.5698 37.0916L46.4917 50.5193L46.4135 63.947L46.3531 70.6886L46.2926 77.4302L43.7023 77.4589L41.1119 77.4875L39.2966 77.4263L37.4813 77.3651L37.4502 76.2134L37.4193 75.0616L37.3975 76.2687L37.3759 77.4758H38.2726H39.1692L39.1693 78.5462V79.6167L50.3118 79.6494L61.4542 79.6822L61.5197 78.7015L61.5854 77.7208V72.3126V66.9046L69.0704 66.9096L76.5553 66.9146L76.5853 66.8872L76.6153 66.8598L76.7219 52.6035L76.8284 38.3472L76.8292 35.3863L76.83 32.4255L76.8945 29.2612L76.9588 26.097L79.459 26.071L81.9592 26.045L79.4436 26.0239L76.928 26.0028V21.1743V16.3459H73.3415H69.7549V12.261V8.17625L65.9441 8.11603L62.1334 8.05582L58.472 8.05563L54.8107 8.05554V12.1659ZM193.662 11.6761L196.472 11.7025L196.509 12.2936L196.546 12.8847L196.538 12.2694L196.531 11.6541L193.692 11.6519L190.852 11.6497L193.662 11.6761ZM174.305 21.4476V23.133L174.338 22.2903L174.371 21.4476L174.338 20.6049L174.305 19.7622V21.4476ZM180.067 19.8747L180.541 19.9089L181.014 19.8747L181.487 19.8406H180.541H179.594L180.067 19.8747ZM201.089 19.9668L201.961 19.9971L202.832 19.9668L203.704 19.9363H201.961H200.217L201.089 19.9668ZM203.6 24.4085L203.6 28.1437L203.629 26.305L203.658 24.4662L203.629 22.5697L203.6 20.6733V24.4085ZM65.7947 23.2363L66.3675 23.2932V24.4517V25.6101L67.7282 25.6698L69.0889 25.7295H69.9699H70.8508V27.6755V29.6215L71.3738 29.6789L71.8969 29.7364L72.9689 29.7372L74.0409 29.738L74.015 33.6326L73.989 37.5273L72.3701 37.5523L70.7511 37.5774V39.5338V41.4902H68.5249H66.2987L66.236 42.6874L66.1735 43.8846L66.146 43.9095L66.1185 43.9344L62.0337 43.8739L57.949 43.8133L57.9323 42.6897L57.9156 41.5659L57.8496 41.5053L57.7835 41.4447L56.0829 41.4157L54.3822 41.3868L54.4381 39.4409L54.4941 37.495L54.3454 37.4428L54.1966 37.3906H52.1962H50.1958L50.2614 34.7259L50.3271 32.0611L50.3273 30.8284L50.3275 29.5957L51.9692 29.6319L53.6108 29.6682L54.0593 29.6067L54.508 29.5451L54.5349 27.569L54.5617 25.5928H56.3051H58.0486L58.0764 24.3878L58.1042 23.1827L61.663 23.1811L65.2218 23.1795L65.7947 23.2363ZM84.8441 29.738V33.4276L84.8732 31.5828L84.9023 29.738L84.8732 27.8932L84.8441 26.0483V29.738ZM148.037 28.804L149.557 28.8317L151.076 28.804L152.595 28.7763H149.557H146.518L148.037 28.804ZM227.837 28.8041L230.849 28.8296L230.878 31.3564L230.906 33.8832L230.929 31.3095L230.952 28.7359L227.889 28.7573L224.825 28.7787L227.837 28.8041ZM166.228 30.0113V30.6946L166.267 30.3529L166.306 30.0113L166.267 29.6697L166.228 29.328V30.0113ZM208.161 29.6235L211.522 29.6493L211.55 32.4723L211.579 35.2953L211.577 32.4483L211.575 29.6013L208.187 29.5994L204.8 29.5976L208.161 29.6235ZM86.631 38.5749V39.8048L86.6658 39.1899L86.7006 38.5749L86.6658 37.96L86.631 37.3451V38.5749ZM37.6105 38.7116L37.6099 39.5315L37.648 39.1471L37.686 38.7626L37.6485 38.3271L37.611 37.8917L37.6105 38.7116ZM13.4897 49.8489L13.4653 58.4353L14.2872 58.417L15.1092 58.3987L14.3375 58.3676L13.5659 58.3366L13.54 49.7995L13.5141 41.2625L13.4897 49.8489ZM102.777 45.3165V49.3706L102.806 47.3436L102.835 45.3165L102.806 43.2895L102.777 41.2625V45.3165ZM111.1 49.8717V58.3442H110.055H109.011L108.983 55.1784L108.956 52.0126L108.932 55.224L108.908 58.4353H110.054H111.2V49.9172V41.3991H111.15H111.1V49.8717ZM166.137 43.54L166.137 45.4532L166.169 44.4689L166.201 43.4846L166.169 42.5558L166.137 41.6269L166.137 43.54ZM211.465 47.5941V48.9151L211.499 48.2546L211.534 47.5941L211.499 46.9336L211.465 46.2731V47.5941ZM104.957 50.0539V50.7371L104.996 50.3955L105.035 50.0539L104.996 49.7122L104.957 49.3706V50.0539ZM16.3846 50.2129L17.3611 50.2428L18.2775 50.2128L19.1939 50.1828L17.301 50.183L15.408 50.1832L16.3846 50.2129ZM15.1015 54.1079L15.1017 56.0211L15.1338 55.0368L15.1658 54.0525L15.1336 53.1237L15.1014 52.1948L15.1015 54.1079ZM166.039 57.5243V60.2118L166.07 58.8681L166.1 57.5243L166.07 56.1805L166.039 54.8368V57.5243ZM211.368 59.3008L211.368 61.214L211.4 60.2297L211.432 59.2453L211.4 58.3165L211.368 57.3876L211.368 59.3008ZM165.993 68.0011L165.991 71.2353L165.933 75.9803L165.875 80.7254L172.535 80.7859L179.196 80.8464L184.053 80.8465L188.909 80.8466V75.8929V70.9392L188.972 70.6545L189.034 70.3698H186.447H183.861L178.913 70.3094L173.965 70.2489V67.5327V64.8166L169.98 64.7917L165.995 64.767L165.993 68.0011ZM211.268 71.053L211.268 72.8751L211.3 71.9917L211.333 71.1083L211.3 70.1696L211.268 69.231L211.268 71.053ZM86.293 77.5614V77.647L85.9194 77.6828L85.5458 77.7185L85.9692 77.7338L86.3927 77.7491V77.6124V77.4758H86.3428H86.293V77.5614ZM84.5228 77.9313V78.2502L84.5684 78.0907L84.614 77.9313L84.5684 77.7719L84.5228 77.6124V77.9313ZM83.7295 79.8165L83.9058 79.8585L84.0284 79.8131L84.151 79.7677L83.8522 79.7711L83.5533 79.7745L83.7295 79.8165ZM51.3238 84.0807V86.1305H52.071H52.8182V88.0437V89.9569H53.6152H54.4122V92.0978V94.2387H54.9104H55.4085V98.2927V102.347H56.4546H57.5007V105.034V107.722H56.0078H54.5148L54.4862 105.057L54.4576 102.392L54.4598 105.08L54.462 107.767L56.0289 107.792L57.5957 107.818L57.6229 109.432L57.6501 111.047H59.0947H60.5393V109.407V107.767L60.2155 107.739L59.8917 107.71V105.029V102.347H59.4434H58.9951V98.3025V94.2582L58.8456 94.2057L58.6962 94.1533V92.055V89.9569H58.3475H57.9988V88.0437V86.1305H57.7497H57.5007V84.0807V82.0309H54.4122H51.3238V84.0807ZM65.2716 84.1263V86.1305H64.9727H64.6739V88.0437V89.9569H64.375H64.0761V92.0978V94.2387H63.8768H63.6776V98.2927V102.347H63.3787H63.0798V105.029V107.711L62.6564 107.739L62.233 107.767L62.2058 109.43L62.1787 111.093H63.6753H65.172V109.455V107.817L67.1895 107.792L69.2069 107.767L69.2092 105.034L69.2115 102.301L69.1828 105.012L69.1541 107.722H67.4619H65.7698V105.034V102.347H66.5668H67.3638V98.2927V94.2387H67.8619H68.3601V92.0978V89.9569H69.1571H69.9541V88.0437V86.1305H70.7013H71.4485V84.1263V82.122H68.3601H65.2716V84.1263ZM222.703 86.2883L222.683 87.0382L220.367 87.0644L218.05 87.0907L220.37 87.1116L222.689 87.1327L222.741 87.0102L222.792 86.8879L222.757 86.2131L222.723 85.5384L222.703 86.2883ZM46.0857 87.9981L46.0858 89.9113L46.1179 88.927L46.15 87.9427L46.1177 87.0139L46.0856 86.085L46.0857 87.9981ZM155.963 87.1096L157.139 87.1385L158.255 87.1095L159.37 87.0806L157.078 87.0807L154.787 87.0807L155.963 87.1096ZM203.455 90.4438L203.505 93.8287H207.839H212.172L212.2 92.6694L212.228 91.5102L213.794 91.4826L215.36 91.455L213.742 91.4348L212.123 91.4145V92.5988V93.7832H207.839H203.555V90.4633V87.1434L203.48 87.1012L203.405 87.0588L203.455 90.4438ZM162.155 90.0706L162.159 91.46L163.729 91.4636L165.298 91.4672L163.756 91.4385L162.214 91.4099L162.183 90.0456L162.151 88.6812L162.155 90.0706ZM181.138 89.638V90.5035H181.637H182.135V91.8245V93.1454H182.68H183.226L183.253 94.6259L183.28 96.1063L183.604 96.1348L183.928 96.1634V98.9818V101.8H184.675H185.422V103.619V105.438L184.351 105.467L183.28 105.497L184.949 105.516L186.618 105.535V106.674V107.813H187.066H187.515V106.681V105.548L187.29 105.519L187.066 105.49L187.039 103.599L187.012 101.709H186.765H186.518V98.9305V96.1518H186.369H186.219V94.6486V93.1454H186.02H185.821V91.8614V90.5775L185.622 90.5299L185.422 90.4822V89.6748V88.8674L187.49 88.8408L189.557 88.8141L185.348 88.7934L181.138 88.7725V89.638ZM190.802 89.638V90.5035H190.603H190.404V91.8245V93.1454H190.205H190.005V94.6059V96.0665L189.856 96.1189L189.706 96.1713V98.9296V101.688L189.509 101.735L189.312 101.782L189.285 103.636L189.258 105.49L188.984 105.519L188.71 105.548V106.68V107.813L189.134 107.813L189.557 107.813L189.526 106.753L189.495 105.693L189.588 105.607L189.681 105.522L191.612 105.509L193.542 105.496L192.322 105.467L191.101 105.439V103.624V101.809L191.674 101.782L192.247 101.755L192.273 98.9532L192.3 96.1518H192.595H192.889L192.917 94.6714L192.944 93.191L193.465 93.1636L193.985 93.1361L194.013 91.8426L194.04 90.549L194.563 90.5215L195.086 90.4939V89.6927V88.8915L193.965 88.8324L192.845 88.7733L191.823 88.773L190.802 88.7725V89.638ZM200.486 89.7029L200.466 90.4966L199.545 90.5267L198.623 90.5568L199.548 90.5756L200.472 90.5946L200.524 90.4727L200.575 90.3507L200.541 89.63L200.506 88.9092L200.486 89.7029ZM48.9557 92.075L48.9327 94.2387H49.7785H50.6243L50.6518 98.27L50.6793 102.301L50.6777 98.2472L50.6762 94.1931L49.8561 94.1667L49.036 94.1403L49.0073 92.0258L48.9786 89.9113L48.9557 92.075ZM73.7629 92.0258L73.74 94.1402L72.918 94.1667L72.0961 94.1931L72.0946 98.2472L72.093 102.301L72.1205 98.27L72.148 94.2387H72.9471H73.7462L73.7949 94.1227L73.8435 94.0068L73.8147 91.959L73.7858 89.9113L73.7629 92.0258ZM175.724 90.5262L175.77 90.5946H176.608H177.447L177.477 91.8472L177.508 93.0999L177.53 91.808L177.552 90.516L176.615 90.487L175.677 90.4579L175.724 90.5262ZM45.6201 92.3022L46.442 92.3329L47.2639 92.3022L48.0859 92.2715H46.442H44.7982L45.6201 92.3022ZM75.5084 92.3022L76.3303 92.3329L77.1522 92.3022L77.9741 92.2715H76.3303H74.6864L75.5084 92.3022ZM178.025 93.2126L178.548 93.2461L179.071 93.2126L179.594 93.1792H178.548H177.502L178.025 93.2126ZM197.154 93.2126L197.677 93.2461L198.2 93.2126L198.723 93.1792H197.677H196.631L197.154 93.2126ZM167.471 93.8514L169.695 93.8778L171.855 93.8514L174.015 93.825H169.631L165.248 93.8251L167.471 93.8514ZM197.323 95.833L197.328 96.8351L198.449 96.8398L199.57 96.8445L198.477 96.8141L197.384 96.7836L197.351 95.8073L197.318 94.8308L197.323 95.833ZM177.178 96.8569L177.751 96.8898L178.324 96.8569L178.897 96.824H177.751H176.605L177.178 96.8569ZM47.1815 97.6408L47.13 97.7632L47.1596 98.438L47.1892 99.1127L48.0112 99.1391L48.8331 99.1656V98.3419V97.5184H48.033H47.2328L47.1815 97.6408ZM73.9392 98.3347V99.1582H74.7343H75.5295L75.5865 98.9504L75.6435 98.7426L75.6133 98.1533L75.5831 97.5639L74.7611 97.5375L73.9392 97.511V98.3347ZM178.249 98.976V99.5226H178.847H179.445V98.976V98.4294H178.847H178.249V98.976ZM196.78 98.976V99.5226H197.378H197.975V98.976V98.4294H197.378H196.78V98.976ZM181.263 101.777L181.935 101.808L182.608 101.777L183.28 101.745H181.935H180.59L181.263 101.777ZM193.965 101.776L194.489 101.81L195.012 101.776L195.535 101.743H194.489H193.442L193.965 101.776ZM181.754 105.007L181.736 105.526L181.163 105.559L180.59 105.592L181.166 105.609L181.742 105.627L181.795 105.501L181.848 105.376L181.81 104.932L181.772 104.488L181.754 105.007ZM194.408 105.057L194.389 105.627L195.012 105.609L195.634 105.592L195.066 105.559L194.498 105.527L194.462 105.007L194.427 104.488L194.408 105.057ZM70.496 107.13L70.5021 107.859L71.2991 107.864L72.0961 107.87L71.328 107.838L70.5599 107.806L70.5249 107.103L70.49 106.401L70.496 107.13ZM51 107.88L51.4234 107.915L51.8468 107.88L52.2702 107.845H51.4234H50.5766L51 107.88ZM59.294 109.407V111.002H58.4969H57.6999V109.407V107.813H58.4969H59.294V109.407ZM65.0724 109.407V111.002H64.2753H63.4783V109.407V107.813H64.2753H65.0724V109.407ZM195.784 137.809L195.784 137.877L199.495 137.857L203.206 137.837L201.911 137.812L200.616 137.786L198.2 137.763L195.783 137.74L195.784 137.809ZM174.787 137.854L176.655 137.881L178.523 137.854L180.391 137.827H176.655H172.919L174.787 137.854ZM60.3183 141.221L58.7025 141.252L58.6745 142.32L58.6464 143.389L57.0773 143.414L55.5081 143.439V145.258V147.078H53.5654H51.6227V150.631V154.184H53.5654H55.5081V156.052V157.919H57.1022H58.6962V159.013V160.106H62.3326H65.969V159.013V157.919H68.0114H70.0537V156.052V154.184H71.4983H72.9429V150.631V147.078H71.4983H70.0537V145.258V143.438L68.0363 143.413L66.0188 143.389L65.9907 142.318L65.9627 141.248L64.2971 141.247L62.6315 141.246L62.2828 141.218L61.9341 141.19L60.3183 141.221ZM64.9727 145.662V146.523L65.6452 146.55L66.3177 146.577V148.308V150.039L65.6452 150.066L64.9727 150.093V150.954V151.816H61.436H57.8992V150.954V150.092L57.0274 150.065L56.1557 150.039L56.1286 148.285L56.1016 146.532H57.0003H57.8992V145.666V144.801H61.436H64.9727V145.662ZM183.768 146.441V147.762L183.803 147.101L183.837 146.441L183.803 145.78L183.768 145.12V146.441ZM192.336 146.441V147.762L192.371 147.101L192.405 146.441L192.371 145.78L192.336 145.12V146.441ZM197.022 149.811V151.952L197.054 150.882L197.085 149.811L197.054 148.741L197.022 147.67V149.811ZM166.674 148.057L168.798 148.084L170.859 148.057L172.919 148.031L168.735 148.031H164.55L166.674 148.057ZM207.44 148.057L211.524 148.082L211.55 170.265L211.575 192.447L211.575 170.241L211.575 148.035L207.465 148.033L203.355 148.032L207.44 148.057ZM24.3496 159.99L24.7232 160.026L25.0968 159.99L25.4704 159.954H24.7232H23.976L24.3496 159.99ZM31.2239 159.99L31.5975 160.026L31.9711 159.99L32.3447 159.954H31.5975H30.8503L31.2239 159.99ZM92.7465 159.99L93.1726 160.026L93.5435 159.99L93.9145 159.954L93.1175 159.955L92.3205 159.956L92.7465 159.99ZM99.5212 159.99L99.9473 160.026L100.318 159.99L100.689 159.954L99.8922 159.955L99.0952 159.956L99.5212 159.99ZM176.83 160.265L177.95 160.294L179.071 160.265L180.192 160.236H177.95H175.709L176.83 160.265ZM197.024 160.313L196.975 160.429L197.004 162.477L197.033 164.524L197.056 162.408L197.079 160.292L198.748 160.265L200.416 160.238L198.745 160.217L197.073 160.197L197.024 160.313ZM22.4069 161.995L22.9299 162.029L23.453 161.995L23.976 161.962H22.9299H21.8838L22.4069 161.995ZM101.365 161.995L101.942 162.028L102.461 161.995L102.981 161.962L101.885 161.962L100.789 161.962L101.365 161.995ZM182.01 164.546L183.729 164.574V165.848V167.121H188.063H192.396V165.848V164.574L194.115 164.547L195.833 164.52L194.065 164.499L192.297 164.479V165.754V167.03H188.065H183.834L183.806 165.777L183.779 164.524L182.035 164.521L180.292 164.518L182.01 164.546ZM35.9811 184.203V185.979H45.5952H55.2092V184.203V182.426H45.5952H35.9811V184.203ZM69.456 184.203V185.979H79.07H88.6841V184.203V182.426H79.07H69.456V184.203ZM140.435 194.725V197.504L140.465 196.114L140.496 194.725L140.465 193.336L140.435 191.946V194.725ZM147.21 194.679L147.209 197.412L147.24 196.074L147.27 194.736L147.24 193.341L147.21 191.946L147.21 194.679ZM228.904 194.725V197.504L228.935 196.114L228.965 194.725L228.935 193.336L228.904 191.946V194.725ZM182.364 192.333L183.441 192.363L184.456 192.333L185.472 192.304L183.38 192.304L181.288 192.304L182.364 192.333ZM211.569 201.011L211.575 201.968L215.834 201.969L220.093 201.971L215.862 201.945L211.631 201.92L211.597 200.987L211.563 200.054L211.569 201.011ZM158.156 201.99L160.33 202.017L162.44 201.99L164.55 201.964H160.266L155.982 201.964L158.156 201.99ZM50.1282 209.345V211.761H51.0249H51.9215V214.084V216.407H52.9162H53.911L53.9374 218.981L53.9639 221.555L54.4869 221.582L55.01 221.61V226.525V231.439H56.3051H57.6003V234.719V237.999H58.6962H59.7921V240.003V242.007H60.5891H61.3861V240.003V237.999H60.9378H60.4895V234.719V231.439H59.9914H59.4932V226.474V221.509H59.294H59.0947V218.958V216.407H58.6962H58.2977V214.084V211.761H57.949H57.6003V210.076V208.39H56.4588H55.3172L55.2881 207.684L55.2591 206.978L52.6936 206.954L50.1282 206.93V209.345ZM69.456 207.662V208.39H68.2604H67.0649V210.076V211.761H66.7162H66.3675V214.084V216.407H65.969H65.5705V218.948V221.488L65.3713 221.536L65.172 221.583V226.511V231.439H64.7735H64.375V234.719V237.999H63.8768H63.3787V240.003V242.007L64.1508 242.007L64.9229 242.007L64.8943 240.003L64.8657 237.999H65.8637H66.8618L66.8907 239.98L66.9196 241.962L66.9425 239.98L66.9653 237.999H67.314H67.6627V234.719V231.439H68.659H69.6552V226.524V221.609L70.2281 221.582L70.8009 221.555L70.8274 218.981L70.8539 216.407H71.7988H72.7437V214.084V211.761H73.6403H74.537V209.347V206.933H71.9965H69.456V207.662ZM149.884 208.002L150.561 208.034L151.18 208.002L151.798 207.97L150.503 207.97L149.208 207.971L149.884 208.002ZM225.004 208.002L225.68 208.034L226.299 208.002L226.917 207.97L225.622 207.97L224.327 207.971L225.004 208.002ZM58.3377 209.757V211.169L58.3717 210.463L58.4057 209.757L58.3717 209.051L58.3377 208.345V209.757ZM43.7955 214.084L43.7956 216.453L43.8266 215.24L43.8576 214.028L43.8265 212.872L43.7954 211.716L43.7955 214.084ZM80.857 214.084L80.8571 216.453L80.888 215.24L80.919 214.028L80.8879 212.872L80.8569 211.716L80.857 214.084ZM153.019 214.197L153.641 214.23L154.264 214.197L154.887 214.165H153.641H152.396L153.019 214.197ZM171.7 214.195L171.975 214.233L172.198 214.194L172.421 214.155L171.923 214.156L171.425 214.157L171.7 214.195ZM221.861 214.197L222.484 214.23L223.107 214.197L223.729 214.165H222.484H221.239L221.861 214.197ZM203.829 214.378L204.152 214.415L204.476 214.378L204.8 214.341H204.152H203.505L203.829 214.378ZM171.699 215.562L171.973 215.6L172.247 215.562L172.521 215.524H171.973H171.425L171.699 215.562ZM203.83 215.562L204.156 215.599L204.428 215.561L204.7 215.524L204.103 215.525L203.505 215.526L203.83 215.562ZM77.3498 218.932L77.3266 221.503L76.3054 221.532L75.2842 221.562L76.3085 221.581L77.3328 221.6L77.3811 221.485L77.4295 221.37L77.4013 218.866L77.373 216.362L77.3498 218.932ZM176.976 218.708L177.004 220.097L177.776 220.124L178.548 220.15V221.832V223.513H179.345H180.142V225.335V227.157H180.64H181.138V230.756V234.355H182.233H183.327L183.353 236.737L183.38 239.119L184.252 239.1L185.124 239.081V240.544V242.007H185.821H186.518V240.55V239.092H186.17H185.821V236.728V234.365L185.398 234.337L184.974 234.309L184.948 230.733L184.922 227.157H184.724H184.526V225.29V223.422H184.229H183.932L183.905 221.76L183.878 220.097L183.604 220.068L183.33 220.039V218.726V217.413L185.398 217.387L187.465 217.36L182.207 217.339L176.949 217.318L176.976 218.708ZM191.4 218.672V220.051H191.101H190.802V221.731V223.411L190.479 223.439L190.155 223.468L190.128 225.313L190.101 227.157H189.953H189.806V230.756V234.355H189.457H189.109V236.723V239.092H188.66H188.212V240.55V242.007H188.86H189.507V240.55V239.092H190.703H191.898V236.727V234.362L192.72 234.335L193.542 234.309L193.568 230.733L193.594 227.157H194.041H194.489V225.339V223.521L195.31 223.494L196.132 223.468L196.16 221.805L196.187 220.143H196.932H197.677V218.776V217.41H195.151H192.625L192.012 217.351L191.4 217.292V218.672ZM78.5686 221.008L78.5719 222.83H80.5146H82.4574L82.4607 221.008L82.464 219.186L82.4337 220.985L82.4034 222.785H80.5146H78.6259L78.5956 220.985L78.5652 219.186L78.5686 221.008ZM171.447 220.117L171.569 220.196L171.597 221.832L171.624 223.468L173.094 223.472L174.563 223.475L173.121 223.446L171.678 223.417L171.651 221.765L171.624 220.112L171.475 220.075L171.325 220.038L171.447 220.117ZM203.123 220.112L203.056 220.173V221.795V223.417L201.587 223.443L200.117 223.468L200.09 225.309L200.064 227.15L199.244 227.182L198.424 227.214L199.271 227.208L200.117 227.203L200.144 225.361L200.171 223.518L201.639 223.493L203.106 223.468L203.133 221.809L203.161 220.15L203.98 220.119L204.8 220.089L203.995 220.07L203.189 220.051L203.123 220.112ZM47.8119 221.576L48.3349 221.61L48.858 221.576L49.381 221.543H48.3349H47.2889L47.8119 221.576ZM43.2788 222.853L44.2502 222.882L45.2216 222.853L46.193 222.823H44.2502H42.3075L43.2788 222.853ZM201.086 226.818L201.064 228.164L202.733 228.139L204.401 228.114L204.406 226.839L204.411 225.563L204.378 226.816L204.346 228.069H202.758H201.169L201.138 226.77L201.108 225.472L201.086 226.818ZM45.0472 226.565V227.522H46.0933H47.1394V226.565V225.609H46.0933H45.0472V226.565ZM77.5683 225.73L77.5175 225.851L77.5466 226.664L77.5756 227.476L78.5968 227.502L79.618 227.528V226.569V225.609H78.6186H77.6192L77.5683 225.73ZM175.434 227.225L176.254 227.256L176.282 230.782L176.309 234.309L176.333 230.733L176.356 227.157L175.485 227.176L174.613 227.195L175.434 227.225ZM171.106 228.136L171.982 228.167L172.8 228.136L173.617 228.106L171.923 228.106L170.229 228.106L171.106 228.136ZM172.691 230.824L172.72 231.485L173.592 231.511L174.463 231.538V230.851V230.164H173.562H172.661L172.691 230.824ZM200.267 230.847V231.53H201.114H201.961V230.847V230.164H201.114H200.267V230.847ZM53.9591 234.719V238.044L53.9887 236.382L54.0182 234.719L53.9887 233.056L53.9591 231.394V234.719ZM49.7048 236.335L50.2279 236.368L50.7509 236.335L51.274 236.301H50.2279H49.1818L49.7048 236.335ZM73.9143 236.335L74.4374 236.368L74.9604 236.335L75.4834 236.301H74.4374H73.3913L73.9143 236.335ZM176.63 237.883L177.054 237.918L177.477 237.883L177.901 237.848H177.054H176.207L176.63 237.883ZM197.154 237.883L197.577 237.918L198 237.883L198.424 237.848H197.577H196.73L197.154 237.883Z" fill="#FFC114"/>
<path fill-rule="evenodd" clip-rule="evenodd" d="M181.513 15.731L181.487 19.8534L177.942 19.8178L174.396 19.7821L174.33 22.2695L174.264 24.757V27.0652V29.3736H170.289H166.315L166.257 30.6718L166.199 31.97L166.148 43.3579L166.097 54.7457L166.071 59.7563L166.045 64.767L170.005 64.7908L173.965 64.8146V67.5318V70.2489L178.913 70.3094L183.861 70.3698H186.447H189.034L188.972 70.6545L188.909 70.9392V75.9076V80.876L177.402 80.8115L165.895 80.747V81.9255V83.1039L168.112 83.1571L170.329 83.2102L190.738 83.3092L211.148 83.4082L211.185 83.3744L211.222 83.3405L211.284 70.4096L211.345 57.4788L211.381 57.4262L211.416 57.3736L211.486 43.5103L211.556 29.6469L208.527 29.6465L205.497 29.646L204.519 29.5867L203.541 29.5275L203.573 24.7727L203.604 20.018L201.073 19.9584L198.541 19.8989H197.511H196.481V15.8142V11.7294L192.28 11.669L188.08 11.6086H184.809H181.539L181.513 15.731ZM76.8945 29.2597L76.83 32.4255L76.8292 35.3864L76.8284 38.3472L76.7219 52.6035L76.6153 66.8598L76.5853 66.8872L76.5553 66.9146L69.0704 66.9096L61.5854 66.9046V72.3127V77.7208L61.5206 78.6889L61.4559 79.6569L60.2504 79.6854L59.0449 79.714L67.4136 79.7565L75.7823 79.7989H80.1161H84.4499L84.478 78.7285L84.506 77.658H85.3977H86.2892L86.3429 77.453L86.3966 77.2481L86.5192 58.572L86.6417 39.896L86.6114 38.6433L86.5812 37.3906H85.665L84.7488 37.3907L84.7766 31.7423L84.8045 26.0939H80.8817H76.9589L76.8945 29.2597ZM192.782 26.7886L193.094 26.8455V28.0185V29.1914H195.335H197.577V31.1934V33.1954L199.196 33.2204L200.815 33.2455L200.809 33.496L200.802 33.7465L200.784 37.4362L200.765 41.1259H199.183H197.602L197.54 41.4105L197.477 41.6952V43.4034V45.1117L195.211 45.1002L192.944 45.0888L192.916 46.2959L192.889 47.503H191.314H189.739L187.182 47.4429L184.625 47.3827V46.213V45.0433H182.882H181.138V43.039V41.0347L179.569 41.0339L178 41.0332L177.477 40.9757L176.954 40.9182V37.0136V33.1088H179.096H181.238V31.1083V29.1077H182.944H184.65L184.685 29.076L184.72 29.0444L184.787 27.888L184.855 26.7316H188.663H192.471L192.782 26.7886ZM146.568 31.3323V33.8376H149.557H152.545V31.3323V28.827H149.557H146.568V31.3323ZM224.875 31.3323V33.8376H227.864H230.853V31.3323V28.827H227.864H224.875V31.3323ZM38.5963 37.1852L37.6748 37.2153L37.6742 38.3279L37.6735 39.4405L37.622 42.1735L37.5705 44.9066L37.471 59.3464L37.3713 73.7862L37.4386 75.5761L37.5058 77.366L39.3089 77.4268L41.1119 77.4876L43.7023 77.459L46.2926 77.4303L46.3531 70.6887L46.4135 63.9471L46.4916 50.5322L46.5697 37.1173L43.0438 37.1363L39.5179 37.1551L38.5963 37.1852ZM13.5649 49.8262V58.3443H14.3121H15.0593L15.0745 55.2695L15.0897 52.1948L15.1128 52.1037L15.136 52.0126L15.1475 51.0788L15.159 50.145H17.1515H19.1441V49.5073V48.8696H20.5389H21.9336V45.0888V41.3081H17.7493H13.5649V49.8262ZM102.831 45.3135V49.3189L103.902 49.3448L104.973 49.3706L105.002 50.0311L105.032 50.6916H107.02H109.008V54.5179V58.3443H110.053H111.098L111.124 49.8262L111.15 41.3081H106.991H102.831V45.3135ZM165.934 74.0595L165.934 75.2438L165.969 74.625L166.004 74.0064L165.969 73.4407L165.934 72.8751L165.934 74.0595ZM42.0398 79.6394L43.665 79.6668L45.2279 79.6393L46.7907 79.6117L43.6026 79.6118L40.4146 79.6119L42.0398 79.6394ZM43.4532 84.0233V86.1306H44.7982H46.1431V88.0437V89.9569H47.5877H49.0323V92.0486V94.1402L49.8543 94.1667L50.6762 94.1932L50.7021 98.27L50.7281 102.347H52.6199H54.5118V105.034V107.722H56.0063H57.5007V105.034V102.347H56.4546H55.4085V98.2928V94.2387H54.9104H54.4122V92.0978V89.9569H53.6152H52.8182V88.0437V86.1306H52.071H51.3238L51.3234 84.058L51.3229 81.9854L47.3881 81.9507L43.4532 81.9161V84.0233ZM71.4485 84.1263V86.1306H70.7013H69.9541V88.0437V89.9569H69.1571H68.3601V92.0978V94.2387H67.8619H67.3638V98.2928V102.347H66.5668H65.7698V105.034V107.722H67.4634H69.1571V105.034V102.347H70.6007H72.0442L72.0702 98.27L72.0961 94.1932L72.918 94.1667L73.74 94.1402V92.0486V89.9569H75.1846H76.6292V88.0464V86.1359L77.9492 86.1104L79.2693 86.085L79.2962 84.1035L79.323 82.1221H75.3858H71.4485V84.1263ZM159.341 87.8388L159.37 88.6359L160.79 88.6611L162.209 88.6865V90.0504V91.4145H163.753H165.298V92.5989V93.7832H169.631H173.965V90.4124V87.0416H166.639H159.312L159.341 87.8388ZM203.532 90.4124L203.559 93.7832H207.841H212.123V92.5989V91.4145H213.717H215.311V90.048V88.6814H216.705H218.1V87.8615V87.0416H210.803L203.505 87.0415L203.532 90.4124ZM175.68 89.5925L175.709 90.458L176.63 90.4842L177.552 90.5103V91.828V93.1455H178.548H179.544V94.6487V96.1519H180.092H180.64V98.9279V101.704L181.96 101.729L183.28 101.755L183.307 103.6L183.334 105.444H184.378H185.422V103.622V101.8H184.675H183.928V98.9818V96.1634L183.604 96.1348L183.28 96.1063L183.253 94.6259L183.226 93.1455H182.68H182.135V91.8245V90.5035H181.637H181.138V89.6409V88.7782L178.395 88.7526L175.652 88.727L175.68 89.5925ZM195.086 89.6788V90.4939L194.563 90.5215L194.04 90.5491L194.013 91.8426L193.985 93.1361L193.465 93.1636L192.944 93.191L192.917 94.6715L192.889 96.1519H192.595H192.3L192.273 98.9533L192.247 101.755L191.674 101.782L191.101 101.809V103.627V105.444H192.297H193.492V103.577V101.709H194.489H195.485V98.9351V96.161L196.058 96.1337L196.631 96.1063L196.658 94.6259L196.685 93.1455H197.679H198.673V91.8245V90.5035H199.562H200.452L200.484 89.6834L200.516 88.8632L197.801 88.8635L195.086 88.8637V89.6788ZM44.848 93.7832V95.2408H46.442H48.0361V93.7832V92.3256H46.442H44.848V93.7832ZM74.7362 93.7855V95.2455L76.3054 95.2203L77.8745 95.1953L77.9019 93.7604L77.9294 92.3256H76.3328H74.7362V93.7855ZM176.655 95.7875V96.7896H177.751H178.847V95.7875V94.7853H177.751H176.655V95.7875ZM197.378 95.7875V96.7896H198.474H199.57V95.7875V94.7853H198.474H197.378V95.7875ZM180.64 105.034V105.535H181.188H181.736V105.034V104.533H181.188H180.64V105.034ZM194.489 105.034V105.535H195.036H195.584V105.034V104.533H195.036H194.489V105.034ZM185.522 106.674V107.813H186.07H186.618V106.674V105.535H186.07H185.522V106.674ZM189.55 105.655L189.5 105.775L189.528 106.771L189.557 107.767H190.105H190.653L190.681 106.651L190.709 105.535H190.155H189.601L189.55 105.655ZM50.6264 107.084V107.813H51.4234H52.2204V107.084V106.355H51.4234H50.6264V107.084ZM70.5519 107.084V107.813H71.3489H72.1459V107.084V106.355H71.3489H70.5519V107.084ZM57.6999 109.407V111.002H58.4969H59.294V109.407V107.813H58.4969H57.6999V109.407ZM63.4783 109.407V111.002H64.2753H65.0724V109.407V107.813H64.2753H63.4783V109.407ZM180.341 133.504V137.877H176.605H172.869V142.979V148.08H168.735H164.6V170.117V192.153L168.909 192.205L173.218 192.258L188.207 192.35L203.195 192.442L203.225 192.415L203.255 192.387L203.256 170.211L203.257 148.035L203.256 142.956L203.256 137.877H199.52H195.784V133.504V129.131H188.063H180.341V133.504ZM192.396 146.441V147.716H194.738H197.079V149.857V151.998H198.723H200.367V156.143V160.288H198.723H197.079V162.37V164.451L196.107 164.51L195.136 164.569L193.766 164.57L192.396 164.57V165.845V167.121H188.063H183.729V165.845V164.57H182.093H180.457L180.3 164.515L180.142 164.459V162.374V160.288H177.95H175.759V156.143V151.998H177.95H180.142V149.857V147.716H181.935H183.729V146.441V145.165H188.063H192.396V146.441ZM25.5867 147.048L25.5202 147.109V149.28V151.451H28.1604H30.8005V149.219V146.987H28.2268H25.653L25.5867 147.048ZM93.8647 149.219V151.451H96.5048H99.145V149.219V146.987H96.5048H93.8647V149.219ZM140.49 194.725V197.458L143.853 197.458H147.215L147.187 194.725L147.16 191.992H143.825H140.49V194.725ZM228.96 194.724V197.458H232.348H235.737L235.711 194.748L235.685 192.037L232.322 192.013L228.96 191.989V194.724ZM164.579 200.891L164.55 201.968L160.291 201.991L156.032 202.015V203.381V204.746H153.89H151.748V206.386V208.026H150.503H149.258V208.937V209.848H155.783H162.309V206.841V203.834L173.492 203.881L184.675 203.929L185.995 203.972L187.315 204.016V202.195V200.373H195.293H203.27L203.237 200.214L203.203 200.054L193.74 199.998L184.277 199.941L174.442 199.878L164.607 199.814L164.579 200.891ZM211.525 203.035V204.102L212.537 204.128L213.55 204.154L213.526 207.001L213.503 209.848H220.185H226.867V208.937V208.026H225.622H224.377V206.386V204.746H222.235H220.093V203.382V202.017L215.809 201.992L211.525 201.968L211.525 203.035ZM40.5872 209.324L40.6138 211.716L42.2328 211.741L43.8517 211.766V214.087V216.407H45.5952H47.3387V218.958V221.509H48.3349H49.3312V226.474V231.439H51.6725H54.0137V234.719V237.999H55.807H57.6003V234.719V231.439H56.3051H55.01V226.525V221.61L54.4869 221.582L53.9639 221.555L53.9374 218.981L53.911 216.407H52.9162H51.9215V214.084V211.761H51.0249H50.1282V209.347V206.933H45.3444H40.5607L40.5872 209.324ZM74.537 209.347V211.761H73.6403H72.7437V214.084V216.407H71.7988H70.8539L70.8274 218.981L70.8009 221.555L70.2281 221.582L69.6552 221.609V226.524V231.439H68.659H67.6627V234.719V237.999H69.7549H71.847V234.719V231.439H73.5905H75.334V226.474V221.509H76.3303H77.3265V218.958V216.407H79.07H80.8135V214.087V211.766L82.4325 211.741L84.0514 211.716L84.078 209.324L84.1045 206.933H79.3208H74.537V209.347ZM163.704 212.809V214.13H167.534H171.364L173.586 214.171L175.808 214.212L194.05 214.274L212.291 214.336L212.355 213.982L212.419 213.629L212.42 212.706L212.421 211.783L206.22 211.729L200.018 211.674L185.522 211.579L171.026 211.484L167.365 211.486L163.704 211.488V212.809ZM168.951 215.557L168.884 215.618V217.835V220.052L170.105 220.062L171.325 220.073L171.475 220.085L171.624 220.097L171.651 221.76L171.678 223.422H173.121H174.563V225.29V227.158H175.46H176.356V230.756V234.355H178.299H180.242V236.723V239.092H181.786H183.33V236.723V234.355H182.234H181.138V230.756V227.158H180.64H180.142V225.335V223.513H179.345H178.548V221.832V220.15L177.776 220.124L177.004 220.097V218.662V217.227L174.737 217.227L172.471 217.227V216.421V215.614L171.709 215.555L170.946 215.496H169.982H169.017L168.951 215.557ZM204.127 215.562L203.555 215.597V216.503V217.41H200.616H197.677V218.776V220.143H196.932H196.187L196.16 221.805L196.132 223.468L195.31 223.494L194.489 223.521V225.339V227.158H194.041H193.594L193.568 230.733L193.542 234.309L192.72 234.336L191.898 234.362V236.727V239.092H193.642H195.385V236.726V234.359L196.855 234.334L198.324 234.309L198.35 230.733L198.376 227.158H199.22H200.064L200.09 225.313L200.117 223.468L201.585 223.443L203.052 223.417L203.079 221.757L203.106 220.097L204.478 220.072L205.85 220.046L205.823 217.794L205.796 215.542L205.248 215.534L204.7 215.527L204.127 215.562ZM42.2577 221.008V222.785H44.2004H46.1431V221.008V219.232H44.2004H42.2577V221.008ZM78.6217 221.008V222.785H80.5146H82.4076V221.008V219.232H80.5146H78.6217V221.008ZM170.345 225.578L170.279 225.639V226.854V228.069H171.923H173.567V226.793V225.518H171.989H170.412L170.345 225.578ZM201.164 226.793V228.069H202.758H204.352V226.793V225.518H202.758H201.164V226.793ZM49.2529 237.247L49.2814 238.135H50.2279H51.1743L51.2028 237.247L51.2313 236.359H50.2279H49.2244L49.2529 237.247ZM73.4624 237.247L73.4909 238.135H74.4374H75.3838L75.4123 237.247L75.4408 236.359H74.4374H73.4339L73.4624 237.247ZM176.257 238.545V239.183H177.104H177.95V238.545V237.908H177.104H176.257V238.545ZM196.78 238.545V239.183H197.627H198.474V238.545V237.908H197.627H196.78V238.545ZM57.7996 240.003V242.007H58.7958H59.7921V240.003V237.999H58.7958H57.7996V240.003ZM64.896 239.98L64.9229 241.962L65.8943 241.988L66.8657 242.014V240.006V237.999H65.8674H64.8692L64.896 239.98ZM183.529 240.55V242.007H184.327H185.124V240.55V239.092H184.327H183.529V240.55ZM189.507 240.55V242.007H190.354H191.201V240.55V239.092H190.354H189.507V240.55Z" fill="#F14C5A"/>
<mask id="mask1_18_101" style="mask-type:alpha" maskUnits="userSpaceOnUse" x="13" y="0" width="98" height="113">
<rect x="13.4155" y="0.805542" width="97.4859" height="111.972" fill="#D9D9D9"/>
</mask>
<g mask="url(#mask1_18_101)">
</g>
</g>
</svg>
