<svg width="82" height="121" viewBox="0 0 82 121" fill="none" xmlns="http://www.w3.org/2000/svg">
<mask id="mask0_18_103" style="mask-type:alpha" maskUnits="userSpaceOnUse" x="0" y="0" width="82" height="121">
<rect width="82" height="121" fill="#D9D9D9"/>
</mask>
<g mask="url(#mask0_18_103)">
<path fill-rule="evenodd" clip-rule="evenodd" d="M-8.9608 -84.3185V-79.1076H-4.69476H-0.428711V-84.3185V-89.5294H-4.69476H-8.9608V-84.3185ZM80.9775 -84.3185V-79.1076H85.2435H89.5095V-84.3185V-89.5294H85.2435H80.9775V-84.3185ZM125.144 -81.6451V-76.7514H124.24H123.337V-75.6211V-74.4908L121.957 -74.4656L120.576 -74.4404L120.549 -73.0131L120.521 -71.5858H118.715H116.91L116.936 -68.6178L116.963 -65.6499H130.865H144.767L144.794 -68.6178L144.82 -71.5858H140.302H135.784V-73.0358V-74.4857H134.378H132.973V-75.6185V-76.7514H132.07H131.166V-81.6451V-86.5388H128.155H125.144V-81.6451ZM204.04 -81.6451V-76.7514H203.137H202.233V-75.6211V-74.4908L200.853 -74.4656L199.473 -74.4404L199.446 -73.014L199.418 -71.5877L194.979 -71.564L190.54 -71.5405L190.512 -68.5722L190.484 -65.6039L203.711 -65.6269L216.939 -65.6499L216.965 -68.6178L216.992 -71.5858H215.836H214.68V-73.0332V-74.4807L213.3 -74.5059L211.92 -74.5311L211.892 -75.6378L211.864 -76.7444L210.988 -76.7706L210.113 -76.7967L210.087 -81.6677L210.061 -86.5388H207.051H204.04V-81.6451ZM9.66977 -78.5412L9.60733 -76.1623L9.50314 -60.9583L9.39895 -45.7543L9.45968 -45.6654L9.52051 -45.5766H12.313H15.1055L15.1685 -53.0305L15.2317 -60.4843L15.3182 -70.6342L15.4047 -80.7841L15.3617 -80.8521L15.3187 -80.9201H12.5254H9.7322L9.66977 -78.5412ZM64.7782 -79.8099L64.7217 -79.0623L64.6685 -66.7374L64.6152 -54.4125L64.5506 -49.8586L64.4859 -45.3048H67.3452H70.2043L70.2712 -49.3602L70.3379 -53.4156L70.3902 -66.4202L70.4425 -79.4248L70.4866 -79.9912L70.5307 -80.5576H67.6827H64.8347L64.7782 -79.8099ZM2.75647 -72.6121L2.70839 -72.5373L2.64425 -67.9155L2.5802 -63.2937L2.56334 -58.6957L2.54648 -54.0977L2.58964 -54.0601L2.6328 -54.0227L4.03809 -53.991L5.44337 -53.9594L5.49356 -63.2483L5.54375 -72.5373V-72.5485V-72.5597L4.1741 -72.6232L2.80455 -72.6869L2.75647 -72.6121ZM74.4529 -68.2023V-64.1844L74.3863 -58.868L74.3196 -53.5516H75.7314H77.1433L77.2005 -54.5711L77.2579 -55.5906L77.3166 -63.9054L77.3754 -72.2201H75.9141H74.4529V-68.2023ZM139.073 -46.2337L139.046 -44.8063L137.164 -44.7817L135.282 -44.757V-43.1278V-41.4986H133.575H131.869V-40.547V-39.5954H129.058H126.248V-37.3751V-35.1549H129.811H133.375V-34.3846V-33.6142H143.161H152.948V-34.3846V-35.1549H153.35H153.751V-33.5771V-31.9993L154.579 -31.9488L155.407 -31.8985L168.381 -31.8547L181.355 -31.8108V-33.3922V-34.9736H181.802H182.25L182.279 -34.3166L182.309 -33.6596L192.07 -33.6364L201.832 -33.6133V-34.3841V-35.1549H205.446H209.059V-37.3751V-39.5954H206.249H203.438V-40.5448V-41.4943L201.707 -41.519L199.975 -41.5439L199.948 -43.1504L199.92 -44.757L198.04 -44.7817L196.161 -44.8063L196.133 -46.2337L196.105 -47.661H193.263H190.421L190.355 -45.2821L190.289 -42.9032L190.289 -40.0572L190.289 -37.211L181.882 -37.2703L173.475 -37.3296L161.279 -37.3771L149.084 -37.4244L146.85 -37.4778L144.617 -37.5313V-42.5961V-47.661H141.859H139.101L139.073 -46.2337ZM18.2415 -39.8366V-38.6892L21.9806 -38.6683L25.7196 -38.6473L27.9279 -38.6383L30.1362 -38.6291L45.8704 -38.5544L61.6046 -38.4798V-39.6122V-40.7446L55.2557 -40.8041L48.9068 -40.8636L33.5742 -40.9238L18.2415 -40.984V-39.8366ZM33.4989 4.31197V8.07287H30.2366H26.9743V12.467V16.8611L23.3859 16.8849L19.7974 16.9087L19.7718 24.9048L19.7461 32.9009L17.1118 32.925L14.4774 32.9492L14.4502 34.8297L14.423 36.7101H12.8191H11.2151V37.9016V39.0932L10.387 39.035L9.55885 38.9768L9.03187 38.9763L8.50489 38.9757V34.7164V30.457H5.84488H3.18488V34.7164V38.9757H2.43205H1.67922V39.9726V40.9695H0.423092H-0.833032L-0.806532 43.8015L-0.780033 46.6335L5.21752 46.6568L11.2151 46.6802V47.3139V47.9475H12.8184H14.4216L14.4495 49.2389L14.4774 50.5303L17.1123 50.5545L19.7472 50.5786V55.924V61.2693H26.4725H33.1978V59.3208V57.3724H34.7034H36.2091L36.2093 71.4871L36.2096 85.6019L36.2755 87.7089L36.3415 89.8159H40.2744H44.2073L44.2734 87.7621L44.3397 85.7085V71.5404V57.3724H45.8453H47.351V59.3208V61.2693H54.1265H60.9019V55.9224V50.5756H63.5118H66.1216V49.2616V47.9475H67.7276H69.3337V47.3131V46.6788H75.3563H81.379V43.8241V40.9695H80.1744H78.9699V39.9726V38.9757H78.1669H77.3639V34.7164V30.457H74.7039H72.0439V34.7164V38.9757H71.6076H71.1713L70.2525 39.0346L69.3337 39.0934V37.9018V36.7101H67.7276H66.1216V34.807V32.9039H63.5123H60.9031L60.8774 24.9063L60.8518 16.9087L57.2131 16.885L53.5744 16.8611V12.4682V8.0754L50.3372 8.05149L47.1 8.02756L47.0738 4.28931L47.0476 0.551064H40.2733H33.4989V4.31197ZM43.0598 20.2163L44.0385 20.2165V21.304V22.3915H46.0942H48.1499L48.177 24.2266L48.2042 26.0618L49.6346 26.0869L51.065 26.1121V29.6892V33.2664H49.6095H48.154V35.077V36.8876L46.1214 36.9121L44.0887 36.9367L44.0605 38.0468L44.0323 39.157H40.2713H36.5102V38.0717V36.9866L34.9293 36.9616L33.3483 36.9367L33.3211 35.1015L33.294 33.2664H31.3889H29.4838V29.6414V26.0165H31.391H33.2981V24.204V22.3915H34.9042H36.5102V21.2441V20.0967L39.2957 20.1564L42.0812 20.2161L43.0598 20.2163ZM182.258 49.1709V71.2379H186.424H190.59V49.1709V27.104H186.424H182.258V49.1709ZM4.38941 73.7741V77.6697L7.5764 77.6936L10.7634 77.7175L10.7905 79.6886L10.8175 81.6597H14.0277H17.2377V83.6534V85.6472H25.2177H33.1978V77.8988V70.1504H20.9015H8.60526V70.0145V69.8786H6.49734H4.38941V73.7741ZM72.0439 70.0145V70.1504H59.6974H47.351V77.8988V85.6472H55.3812H63.4114V83.6534V81.6597H66.6235H69.8355V79.666V77.6722H73.0476H76.2597V73.7754V69.8786H74.1518H72.0439V70.0145ZM119.021 81.43V86.6377L117.992 86.6635L116.963 86.6893L116.935 87.8901L116.907 89.0909H115.354H113.801V92.5799V96.0689H122.383H130.965V94.4377V92.8065H132.218H133.47L133.498 94.3244L133.525 95.8424L135.106 95.8673L136.687 95.8923V97.204V98.5158H138.494H140.301V99.6486V100.781H145.222H150.144L150.116 99.7619L150.087 98.7424L148.856 98.7169L147.625 98.6914L147.652 96.4513L147.678 94.2112L148.908 94.1857L150.138 94.1602V93.4833V92.8065H146.273H142.408V91.4964V90.1863L141.681 90.1597L140.953 90.1331L140.956 89.3401L140.958 88.5471H134.409H127.861L127.832 87.6182L127.804 86.6893L126.825 86.6634L125.846 86.6375V81.4299V76.2222H122.433H119.021V81.43ZM208.156 81.4331V86.644H207.102H206.048V87.5956V88.5471H199.326H192.604L192.576 89.476L192.547 90.4049L192.02 90.4323L191.493 90.4597L191.492 91.3839L191.491 92.308L191.429 92.6479L191.366 92.9877H187.565H183.764V93.5721V94.1563L184.291 94.1838L184.818 94.2112L184.845 96.4541L184.872 98.697H184.318H183.764V99.7392V100.781H188.683H193.601V99.6486V98.5158H195.408H197.215V97.204V95.8923L198.796 95.8673L200.377 95.8424L200.404 94.3244L200.432 92.8065H201.684H202.936V94.4377V96.0689H211.57H220.203L220.177 92.6026L220.151 89.1362L218.57 89.1113L216.989 89.0863V87.8652V86.644H215.985H214.981V81.4331V76.2222H211.569H208.156V81.4331ZM168.732 78.7367L169.812 78.7659L170.891 78.7367L171.97 78.7076H169.812H167.653L168.732 78.7367ZM182.225 78.9269L182.282 79.1222H174.24H166.198V80.9347V82.7472H171.752H177.307L183.948 82.8074L190.59 82.8675V80.8589V78.8503H188.046H185.502L183.836 78.791L182.169 78.7316L182.225 78.9269ZM192.617 83.155L192.621 83.4269L192.667 83.2666L192.713 83.1062L192.663 82.9947L192.613 82.8831L192.617 83.155ZM169.731 90.3366L170.804 90.3657L171.939 90.3367L173.074 90.3078L170.866 90.3076L168.657 90.3075L169.731 90.3366ZM186.293 90.4272L187.366 90.4563L188.501 90.4273L189.636 90.3984L187.428 90.3982L185.219 90.3981L186.293 90.4272ZM151.306 93.8486L151.243 94.8455L151.242 95.3544L151.242 95.8632L156.235 95.9205L161.229 95.9778L171.894 96.0359L182.559 96.0939V94.5519V93.0098L172.296 92.9528L162.032 92.8958L156.701 92.8738L151.37 92.8518L151.306 93.8486Z" fill="#2E4990"/>
<path fill-rule="evenodd" clip-rule="evenodd" d="M163.651 -92.4571L163.583 -91.3068L163.548 -91.2754L163.513 -91.2439H161.794H160.075V-89.2537V-87.2637H157.917H155.759V-83.3795V-79.4953L156.286 -79.4382L156.813 -79.381L158.394 -79.3802L159.975 -79.3794V-77.3857V-75.392H161.731H163.488V-74.2283V-73.0648L166.064 -73.0049L168.64 -72.9451H170.226H171.813L171.841 -74.1459L171.869 -75.3467L174.153 -75.3353L176.436 -75.3239V-77.0232V-78.7224L176.499 -79.0056L176.562 -79.2888H178.155H179.749L179.768 -82.9591L179.787 -86.6294L179.793 -86.8786L179.799 -87.1278L178.168 -87.1527L176.537 -87.1776V-89.1691V-91.1606H174.278H172.02V-92.3274V-93.4941L171.706 -93.5508L171.392 -93.6074H167.556H163.719L163.651 -92.4571ZM-6.82095 -89.5521L-4.63101 -89.5258L-2.50472 -89.5521L-0.378521 -89.5785H-4.69475L-9.01099 -89.5784L-6.82095 -89.5521ZM83.1173 -89.5521L85.3072 -89.5258L87.4335 -89.5521L89.5597 -89.5785H85.2435L80.9273 -89.5784L83.1173 -89.5521ZM170.693 -88.6555L170.722 -87.7364L170.944 -87.6825L171.167 -87.6287L171.696 -87.6275L172.225 -87.6262L172.198 -85.7911L172.17 -83.9559L171.392 -83.9295L170.615 -83.903V-83.0006V-82.0982H166.7H162.785V-83.0497V-84.0013H161.781H160.778V-85.8559V-87.7105L161.806 -87.7363L162.835 -87.7622L162.864 -88.6921L162.893 -89.622L166.779 -89.5984L170.665 -89.5746L170.693 -88.6555ZM210.11 -81.6903V-76.7966L210.138 -79.2726L210.167 -81.7484L210.138 -84.1663L210.11 -86.584V-81.6903ZM9.65281 -80.8924L9.60252 -80.774L9.63143 -79.6463L9.66023 -78.5185L9.70992 -79.7648L9.75961 -81.0109L9.7314 -81.0108L9.70309 -81.0107L9.65281 -80.8924ZM66.1969 -80.5804L67.6272 -80.5526L69.0576 -80.5804L70.488 -80.6082H67.6272H64.7665L66.1969 -80.5804ZM70.4126 -66.4202L70.3371 -52.6L70.2981 -49.7906L70.259 -46.9813L70.303 -47.5477L70.347 -48.1141H72.2833H74.2196L74.2864 -51.8523L74.353 -55.5906L74.4194 -63.903L74.4857 -72.2154L75.9499 -72.243L77.414 -72.2707L75.9335 -72.2907L74.4529 -72.3107V-74.9842V-77.6576H72.4983H70.5437L70.5158 -78.949L70.488 -80.2404L70.4126 -66.4202ZM7.5764 -78.0428L5.59394 -78.0163V-75.3484V-72.6806L4.76583 -72.65L3.93771 -72.6195L4.77697 -72.6011L5.61633 -72.5826L5.55841 -72.2881L5.50049 -71.9936L5.48212 -60.2577L5.46375 -48.5219L7.42362 -48.4973L9.38339 -48.4729L9.44563 -52.7567L9.50786 -57.0406L9.571 -67.5756L9.63424 -78.1107L9.5966 -78.09L9.55885 -78.0695L7.5764 -78.0428ZM123.275 -75.6185L123.276 -74.4404L123.311 -75.0559L123.346 -75.6714L123.311 -76.234L123.275 -76.7966L123.275 -75.6185ZM133.012 -75.6185L133.012 -74.4404L133.047 -75.0559L133.083 -75.6714L133.047 -76.234L133.012 -76.7966L133.012 -75.6185ZM211.908 -75.6638V-74.531L211.944 -75.0974L211.98 -75.6638L211.944 -76.2302L211.908 -76.7966V-75.6638ZM2.64957 -72.6128L2.58262 -72.5524V-72.069V-71.5857H-0.328332H-3.23928V-70.9012V-70.2165L-5.20146 -70.2322L-7.16374 -70.2479L-7.20128 -70.2139L-7.23882 -70.18L-7.30457 -63.3158L-7.37022 -56.4515H-5.35494H-3.33966V-55.7718V-55.0922L-2.00965 -55.0919L-0.679653 -55.0915L0.901293 -55.0323L2.48224 -54.9732V-54.4436V-53.914L3.76205 -53.9336L5.04186 -53.9532L3.81224 -53.9817L2.58262 -54.0103L2.57358 -54.5739L2.56445 -55.1375L2.58643 -60.6655L2.60841 -66.1936L2.67075 -69.4335L2.73318 -72.6734L2.72485 -72.6733L2.71642 -72.6732L2.64957 -72.6128ZM77.3296 -66.9717L77.2635 -62.7655V-58.7125V-54.6596L79.8984 -54.5941L82.5333 -54.5286L82.7842 -54.5612L83.0352 -54.5937L83.0854 -55.2734L83.1356 -55.9531H85.117H87.0985L87.1415 -56.0547L87.1846 -56.1563L87.2106 -62.9421L87.2365 -69.728L85.2112 -69.7525L83.1858 -69.777V-70.4521V-71.1273L80.2908 -71.1526L77.3958 -71.1779L77.3296 -66.9717ZM77.1631 -54.0545V-53.5606L76.5859 -53.5279L76.0088 -53.4952L76.6361 -53.478L77.2635 -53.4609V-54.0047V-54.5484H77.2133H77.1631V-54.0545ZM140.482 -47.6838L141.919 -47.6559L143.293 -47.6839L144.667 -47.7118L141.856 -47.7117L139.046 -47.7116L140.482 -47.6838ZM193.247 -47.6843L196.105 -47.6582L196.133 -46.2323L196.161 -44.8063L198.04 -44.7817L199.92 -44.757L199.95 -43.1504L199.98 -41.5438L200.003 -43.1977L200.025 -44.8516H198.12H196.216L196.188 -46.2789L196.161 -47.7063L193.275 -47.7084L190.389 -47.7105L193.247 -47.6843ZM66.8995 -45.237L68.0287 -45.2081L69.158 -45.237L70.2872 -45.266H68.0287H65.7703L66.8995 -45.237ZM137.114 -44.8744L135.181 -44.8477L135.204 -43.1504L135.227 -41.4532L135.256 -43.1071L135.286 -44.761H137.135H138.984L139.046 -44.8516L139.108 -44.9422L139.077 -44.9217L139.046 -44.9011L137.114 -44.8744ZM131.806 -40.547L131.806 -39.5501L131.843 -40.0745L131.879 -40.5989L131.842 -41.0714L131.806 -41.5438L131.806 -40.547ZM61.6262 -39.6652L61.6046 -38.5116L59.4716 -38.4852L57.3385 -38.4588L59.4747 -38.4381L61.6109 -38.4173L61.6613 -38.5358L61.7117 -38.6544L61.6797 -39.7366L61.6478 -40.8188L61.6262 -39.6652ZM18.1733 -39.2329V-38.6439L18.2137 -38.9384L18.2543 -39.2329L18.2137 -39.5275L18.1733 -39.822V-39.2329ZM126.191 -37.3751L126.191 -35.1095L126.222 -36.2144L126.254 -37.3193L126.222 -38.48L126.191 -39.6407L126.191 -37.3751ZM29.4099 -38.6241L29.6873 -38.5863L29.9118 -38.6254L30.1362 -38.6645L29.6344 -38.6633L29.1325 -38.662L29.4099 -38.6241ZM39.7029 -38.5309L40.9384 -38.5023L42.112 -38.5309L43.2857 -38.5596L40.8766 -38.5595L38.4676 -38.5594L39.7029 -38.5309ZM153.124 -35.0909L153.35 -35.0516L153.575 -35.0909L153.801 -35.1302H153.35H152.898L153.124 -35.0909ZM181.396 -33.3877L181.397 -31.7564L181.43 -32.5993L181.463 -33.4421L181.43 -34.2306L181.396 -35.0189L181.396 -33.3877ZM153.928 -31.9189L154.155 -31.8795L154.33 -31.9207L154.504 -31.962L154.102 -31.9601L153.701 -31.9583L153.928 -31.9189ZM168.68 -31.8269L169.004 -31.7906L169.383 -31.8262L169.761 -31.8619L169.059 -31.8626L168.356 -31.8634L168.68 -31.8269ZM172.848 -31.8264L173.224 -31.7908L173.601 -31.8264L173.977 -31.8619H173.224H172.472L172.848 -31.8264ZM40.2984 0.52816L47.0476 0.552361L47.0738 4.28997L47.1 8.02758L50.3362 8.05151L53.5725 8.07543L53.6 12.4468L53.6275 16.8181L53.626 12.4229L53.6246 8.02758L50.3885 8.00365L47.1524 7.97974L47.1262 4.24275L47.1 0.505775L40.3246 0.504868L33.5491 0.503876L40.2984 0.52816ZM28.6119 8.05015L30.2996 8.07733L31.9244 8.05006L33.5491 8.02278L30.2366 8.02287H26.9242L28.6119 8.05015ZM19.7137 16.9239L19.6468 16.9842V24.8988V32.8133H17.0931H14.5394L14.4928 32.8813L14.4461 32.9492L17.0956 32.9237L19.7451 32.8981L19.7712 24.8808L19.7974 16.8634H19.789H19.7806L19.7137 16.9239ZM36.5102 21.2587V22.3915H34.9042H33.2981V24.202V26.0126L31.3659 26.0392L29.4336 26.066L31.4161 26.0865L33.3985 26.1071V24.2969V22.4868L34.9795 22.4617L36.5604 22.4368L36.5887 21.372L36.6169 20.3072L38.1948 20.2981L39.7725 20.2891L40.0234 20.2165L40.2744 20.1439L38.3923 20.135L36.5102 20.1259V21.2587ZM42.1031 20.2843L43.9318 20.3112L43.96 21.374L43.9883 22.4368L46.021 22.4614L48.0536 22.4859V24.2965V26.1071L48.1289 26.1072L48.2042 26.1073L48.1752 24.2494L48.1461 22.3915H46.0924H44.0385V21.304V20.2165L42.1564 20.237L40.2744 20.2575L42.1031 20.2843ZM50.9646 29.6414V33.1758H49.5091H48.0536L48.0765 35.0562L48.0994 36.9367L48.1288 35.1015L48.1581 33.2664H49.6116H51.065V29.6868V26.1071H51.0148H50.9646V29.6414ZM62.1818 32.881L63.5118 32.9092L64.8418 32.881L66.1718 32.8529H63.5118H60.8518L62.1818 32.881ZM31.3638 33.2437L33.294 33.2703L33.3211 35.1035L33.3483 36.9367L34.9293 36.9616L36.5102 36.9866V38.0718V39.157H40.2686H44.0271L44.0579 38.024L44.0887 36.891L44.0134 36.8912L43.9381 36.8914V37.9789V39.0664H40.2744H36.6106V37.9789V36.8914H35.0046H33.3985V35.0336V33.1758L31.4161 33.1964L29.4336 33.2169L31.3638 33.2437ZM69.373 37.8882V39.1117L69.4081 38.5L69.4432 37.8882L69.4081 37.2765L69.373 36.6648V37.8882ZM1.61678 39.9726V41.0148L1.65302 40.4937L1.68926 39.9726L1.65302 39.4515L1.61678 38.9304V39.9726ZM69.353 47.2882L69.3337 47.943L67.7025 47.9704L66.0714 47.9977L67.7056 48.0179L69.34 48.0381L69.3922 47.9154L69.4444 47.7925L69.4083 47.213L69.3723 46.6335L69.353 47.2882ZM11.993 48.015L12.8211 48.0455L13.6492 48.015L14.4774 47.9844H12.8211H11.1649L11.993 48.015ZM19.6939 55.9225V61.3146L19.722 58.6185L19.7502 55.9225L19.722 53.2264L19.6939 50.5303V55.9225ZM33.1976 58.4373L33.1974 59.5021L33.1312 62.1529L33.0651 64.8036H20.8352H8.60527V67.2958V69.7879H6.44715H4.28903V73.7754V77.7629H7.49911H10.7093L10.7394 79.734L10.7695 81.705L10.7665 79.7113L10.7634 77.7176L7.5764 77.6936L4.38941 77.6697V73.7742V69.8786H6.49734H8.60527V70.0145V70.1505H20.9026H33.2L33.1978 77.9215L33.1955 85.6925L33.1967 86.3948L33.1978 87.0972H34.7285H36.2593L36.2336 72.2348L36.2079 57.3724H34.7028H33.1978L33.1976 58.4373ZM44.3397 71.5404V85.7085L44.2735 87.7612L44.2074 89.8138L40.2333 89.8391L36.2593 89.8644L40.2744 89.8628L44.2895 89.8612L44.3172 88.4792L44.3449 87.0972H45.873H47.4012L47.3685 78.6238L47.3356 70.1505H59.6898H72.0439V70.0163V69.8822L74.1769 69.8558L76.3099 69.8295L74.1267 69.8087L71.9435 69.7879V67.2958V64.8036H59.7136H47.4837L47.4175 62.1529L47.3514 59.5021L47.3512 58.4373L47.351 57.3724H45.8453H44.3397V71.5404ZM142.132 71.0272L141.003 71.0627V74.7616V78.4605L142.534 78.5187L144.065 78.5769L153.751 78.6251L163.438 78.6732L177.973 78.7713L192.509 78.8694L192.549 78.8332L192.59 78.7968L192.601 75.04L192.613 71.2832L190.372 71.2656L188.13 71.2478L169.51 71.1524L150.89 71.0569L147.076 71.0244L143.262 70.9918L142.132 71.0272ZM118.967 81.4332V86.6894L118.995 84.0904L119.024 81.4914L118.995 78.8342L118.967 76.177L118.967 81.4332ZM208.102 81.4332V86.6894L208.131 84.0904L208.159 81.4914L208.131 78.8342L208.102 76.177L208.102 81.4332ZM71.4165 77.7401L73.0476 77.7674L74.6788 77.7401L76.3099 77.7128H73.0476H69.7854L71.4165 77.7401ZM17.1803 83.6535V85.6925L17.2123 84.673L17.2444 83.6535L17.2123 82.6339L17.1803 81.6144V83.6535ZM140.981 86.3042L140.935 90.0424L140.994 90.0989L141.053 90.1554L163.99 90.2599L186.926 90.3643L189.736 90.3846L192.547 90.405L192.573 86.6214L192.599 82.8378L189.963 82.8358L187.327 82.8338L165.244 82.7018L143.161 82.5699L142.094 82.5679L141.027 82.566L140.981 86.3042ZM116.856 86.7623L116.806 86.8807L116.835 88.0084L116.863 89.1362L116.913 87.89L116.963 86.6438L116.935 86.6439L116.906 86.644L116.856 86.7623ZM113.749 92.6479L113.751 96.1143L122.383 96.115L131.016 96.1158L122.409 96.0919L113.803 96.068L113.775 92.6247L113.747 89.1815L113.749 92.6479ZM151.275 93.5315V94.2112L151.315 93.8713L151.354 93.5315L151.315 93.1917L151.275 92.8518V93.5315ZM156.036 95.9518L156.263 95.9912L156.437 95.95L156.612 95.9087L156.21 95.9106L155.809 95.9124L156.036 95.9518ZM167.277 96.046L168.306 96.0753L169.335 96.046L170.364 96.0166H168.306H166.248L167.277 96.046ZM207.235 96.1369L211.584 96.1615L215.867 96.1369L220.151 96.1123H211.518H202.886L207.235 96.1369ZM142.778 100.849L145.205 100.875L147.696 100.849L150.188 100.823H145.269H140.351L142.778 100.849ZM186.198 100.849L188.683 100.875L191.167 100.849L193.651 100.823H188.683H183.714L186.198 100.849Z" fill="#3ABDAB"/>
<path fill-rule="evenodd" clip-rule="evenodd" d="M32.6959 -108.097V-104.008L29.0959 -104.043L25.496 -104.079L25.4327 -103.216L25.3693 -102.353L25.3688 -98.4332L25.3683 -94.5137H21.303H17.2377V-88.8985V-83.2831L16.3092 -83.2571L15.3807 -83.231L19.8869 -83.2664L24.3929 -83.3019L24.3142 -69.9447L24.2355 -56.5875L24.1745 -49.8813L24.1136 -43.1751L21.5038 -43.1466L18.894 -43.1181L17.065 -43.179L15.236 -43.2399L15.2047 -44.3856L15.1735 -45.5313L15.1516 -44.3306L15.1298 -43.1298H16.0332H16.9366L16.9367 -42.065V-41.0001L28.163 -40.9676L39.3893 -40.935L39.4554 -41.9105L39.5215 -42.8861V-48.2658V-53.6455L47.0629 -53.6405L54.6042 -53.6355L54.6344 -53.6628L54.6646 -53.6901L54.772 -67.8715L54.8793 -82.0529L54.8801 -84.9982L54.8809 -87.9435L54.9459 -91.0911L55.0107 -94.2388L57.5297 -94.2646L60.0487 -94.2904L57.5142 -94.3114L54.9797 -94.3325V-99.1355V-103.939H51.3661H47.7525V-108.002V-112.065L43.9131 -112.125L40.0736 -112.185L36.3847 -112.185L32.6959 -112.185V-108.097ZM172.593 -108.584L175.424 -108.558L175.461 -107.97L175.498 -107.382L175.49 -107.994L175.483 -108.606L172.622 -108.608L169.761 -108.61L172.593 -108.584ZM153.09 -98.8637V-97.1871L153.123 -98.0254L153.156 -98.8637L153.123 -99.7019L153.09 -100.54V-98.8637ZM158.896 -100.428L159.372 -100.394L159.849 -100.428L160.326 -100.462H159.372H158.419L158.896 -100.428ZM180.075 -100.337L180.953 -100.307L181.832 -100.337L182.71 -100.367H180.953H179.197L180.075 -100.337ZM182.605 -95.9184L182.605 -92.2028L182.635 -94.0319L182.664 -95.8609L182.635 -97.7475L182.605 -99.634V-95.9184ZM43.7625 -97.0844L44.3397 -97.0278V-95.8754V-94.7231L45.7106 -94.6637L47.0816 -94.6043H47.9691H48.8567V-92.6685V-90.7328L49.3836 -90.6756L49.9106 -90.6184L50.9908 -90.6177L52.0708 -90.6169L52.0447 -86.7427L52.0185 -82.8685L50.3874 -82.8436L48.7563 -82.8187V-80.8725V-78.9264H46.5132H44.2703L44.2072 -77.7355L44.1441 -76.5446L44.1164 -76.5198L44.0887 -76.495L39.9732 -76.5552L35.8578 -76.6154L35.8409 -77.7332L35.8241 -78.851L35.7576 -78.9113L35.691 -78.9717L33.9776 -79.0005L32.2641 -79.0292L32.3205 -80.9649L32.3769 -82.9006L32.227 -82.9525L32.0771 -83.0044H30.0617H28.0462L28.1123 -85.6552L28.1785 -88.306L28.1787 -89.5322L28.1789 -90.7584L29.8329 -90.7224L31.4869 -90.6863L31.9388 -90.7475L32.3908 -90.8087L32.4179 -92.7745L32.4449 -94.7403H34.2015H35.9581L35.9861 -95.939L36.0142 -97.1377L39.5997 -97.1393L43.1853 -97.1409L43.7625 -97.0844ZM62.9553 -90.6169V-86.9466L62.9847 -88.7817L63.014 -90.6169L62.9847 -92.452L62.9553 -94.2871V-90.6169ZM126.624 -91.546L128.155 -91.5184L129.686 -91.546L131.216 -91.5735H128.155H125.093L126.624 -91.546ZM207.025 -91.5459L210.06 -91.5205L210.088 -89.0069L210.116 -86.4935L210.14 -89.0536L210.163 -91.6137L207.077 -91.5924L203.99 -91.5711L207.025 -91.5459ZM144.952 -90.345V-89.6653L144.991 -90.0052L145.03 -90.345L144.991 -90.6848L144.952 -91.0247V-90.345ZM187.201 -90.7308L190.587 -90.705L190.616 -87.8969L190.644 -85.0887L190.642 -87.9208L190.64 -90.7528L187.227 -90.7547L183.814 -90.7565L187.201 -90.7308ZM64.7557 -81.8263V-80.6029L64.7908 -81.2146L64.8258 -81.8263L64.7908 -82.438L64.7557 -83.0498V-81.8263ZM15.3662 -81.6904L15.3656 -80.8748L15.4039 -81.2572L15.4422 -81.6396L15.4044 -82.0728L15.3667 -82.506L15.3662 -81.6904ZM-8.93621 -70.6116L-8.9608 -62.0703L-8.13269 -62.0885L-7.30457 -62.1067L-8.08199 -62.1376L-8.85942 -62.1685L-8.88552 -70.6607L-8.91162 -79.1529L-8.93621 -70.6116ZM81.0236 -75.1201V-71.0874L81.0526 -73.1037L81.0817 -75.1201L81.0526 -77.1365L81.0236 -79.1529V-75.1201ZM89.4092 -70.5889V-62.1609H88.3565H87.3039L87.2761 -65.3101L87.2483 -68.4593L87.2247 -65.2648L87.2009 -62.0703H88.3552H89.5096V-70.5436V-79.017H89.4594H89.4092V-70.5889ZM144.86 -76.8873L144.86 -74.9842L144.893 -75.9633L144.925 -76.9425L144.892 -77.8664L144.86 -78.7904L144.86 -76.8873ZM190.529 -72.8545V-71.5405L190.564 -72.1975L190.599 -72.8545L190.564 -73.5116L190.529 -74.1686V-72.8545ZM83.2195 -70.4077V-69.728L83.2588 -70.0678L83.2983 -70.4077L83.2588 -70.7475L83.2195 -71.0874V-70.4077ZM-6.01954 -70.2495L-5.03564 -70.2197L-4.11236 -70.2496L-3.18909 -70.2794L-5.09627 -70.2793L-7.00344 -70.2791L-6.01954 -70.2495ZM-7.3123 -66.3749L-7.3121 -64.4718L-7.27978 -65.4509L-7.24746 -66.4301L-7.27998 -67.354L-7.3124 -68.278L-7.3123 -66.3749ZM144.762 -62.9765V-60.3031L144.792 -61.6398L144.823 -62.9765L144.792 -64.3132L144.762 -65.6499V-62.9765ZM190.431 -61.2093L190.432 -59.3062L190.464 -60.2853L190.496 -61.2645L190.464 -62.1884L190.431 -63.1124L190.431 -61.2093ZM144.715 -52.5547L144.713 -49.3376L144.655 -44.6174L144.596 -39.8972L151.307 -39.8371L158.017 -39.7769L162.911 -39.7768L167.804 -39.7767V-44.7044V-49.6321L167.867 -49.9153L167.929 -50.1985H165.324H162.718L157.733 -50.2586L152.747 -50.3187V-53.0206V-55.7225L148.732 -55.7472L144.717 -55.7719L144.715 -52.5547ZM190.331 -49.5188L190.331 -47.7063L190.363 -48.5851L190.396 -49.4639L190.363 -50.3976L190.331 -51.3313L190.331 -49.5188ZM64.4152 -43.0446V-42.9595L64.0387 -42.9239L63.6623 -42.8884L64.0889 -42.8732L64.5155 -42.8579V-42.9939V-43.1298H64.4654H64.4152V-43.0446ZM62.6317 -42.6767V-42.3595L62.6775 -42.5181L62.7235 -42.6767L62.6775 -42.8353L62.6317 -42.9939V-42.6767ZM61.8324 -40.8014L62.0099 -40.7596L62.1335 -40.8047L62.257 -40.8499L61.9559 -40.8465L61.6548 -40.8432L61.8324 -40.8014ZM29.1827 -36.5595V-34.5205H29.9355H30.6883V-32.6174V-30.7143H31.4913H32.2944V-28.5846V-26.455H32.7962H33.2981V-22.4222V-18.3894H34.3521H35.4061V-15.716V-13.0426H33.9019H32.3978L32.3689 -15.6933L32.34 -18.3441L32.3423 -15.6707L32.3446 -12.9973L33.9232 -12.9723L35.5018 -12.9473L35.5292 -11.3411L35.5566 -9.73479H37.0121H38.4676V-11.366V-12.9973L38.1414 -13.0256L37.8151 -13.0541V-15.7217V-18.3894H37.3634H36.9117V-22.4125V-26.4356L36.7612 -26.4878L36.6106 -26.5399V-28.6271V-30.7143H36.2593H35.908V-32.6174V-34.5205H35.657H35.4061V-36.5595V-38.5986H32.2944H29.1827V-36.5595ZM43.2355 -36.5142V-34.5205H42.9344H42.6332V-32.6174V-30.7143H42.3321H42.031V-28.5846V-26.455H41.8302H41.6295V-22.4222V-18.3894H41.3283H41.0272V-15.7212V-13.053L40.6006 -13.0251L40.174 -12.9973L40.1466 -11.3434L40.1193 -9.68948H41.6272H43.1351V-11.3188V-12.9482L45.1678 -12.9727L47.2004 -12.9973L47.2027 -15.716L47.205 -18.4347L47.1761 -15.7386L47.1472 -13.0426H45.4423H43.7374V-15.716V-18.3894H44.5404H45.3434V-22.4222V-26.455H45.8453H46.3472V-28.5846V-30.7143H47.1502H47.9533V-32.6174V-34.5205H48.7061H49.4589V-36.5142V-38.508H46.3472H43.2355V-36.5142ZM201.852 -34.3635L201.832 -33.6176L199.498 -33.5915L197.164 -33.5654L199.501 -33.5446L201.838 -33.5236L201.89 -33.6454L201.942 -33.7672L201.907 -34.4384L201.872 -35.1096L201.852 -34.3635ZM23.9051 -32.6627L23.9053 -30.7596L23.9376 -31.7387L23.97 -32.7179L23.9374 -33.6418L23.905 -34.5658L23.9051 -32.6627ZM134.61 -33.5466L135.795 -33.5178L136.918 -33.5467L138.042 -33.5755L135.733 -33.5754L133.425 -33.5753L134.61 -33.5466ZM182.459 -30.2299L182.509 -26.8628H186.876H191.242L191.27 -28.016L191.298 -29.1692L192.876 -29.1965L194.454 -29.224L192.823 -29.2441L191.192 -29.2643V-28.0862V-26.9081H186.876H182.56V-30.2105V-33.5129L182.484 -33.555L182.409 -33.5971L182.459 -30.2299ZM140.849 -30.6011L140.853 -29.219L142.434 -29.2155L144.015 -29.2118L142.461 -29.2404L140.908 -29.2689L140.876 -30.626L140.845 -31.9832L140.849 -30.6011ZM159.975 -31.0315V-30.1705H160.476H160.978V-28.8565V-27.5424H161.528H162.077L162.105 -26.0698L162.133 -24.5972L162.459 -24.5688L162.785 -24.5403V-21.7368V-18.9332H163.538H164.291V-17.1237V-15.3143L163.212 -15.2852L162.133 -15.2561L163.814 -15.2368L165.495 -15.2176V-14.0848V-12.952H165.947H166.399V-14.0784V-15.205L166.173 -15.2339L165.947 -15.2629L165.92 -17.1433L165.893 -19.0238H165.644H165.395V-21.7878V-24.5518H165.244H165.094V-26.0471V-27.5424H164.893H164.692V-28.8197V-30.0969L164.492 -30.1443L164.291 -30.1917V-30.9949V-31.7981L166.374 -31.8245L168.456 -31.851L164.216 -31.8717L159.975 -31.8924V-31.0315ZM169.711 -31.0315V-30.1705H169.51H169.31V-28.8565V-27.5424H169.109H168.908V-26.0896V-24.6368L168.758 -24.5847L168.607 -24.5325V-21.7887V-19.0449L168.408 -18.998L168.21 -18.9511L168.183 -17.107L168.155 -15.2629L167.879 -15.2342L167.603 -15.2055V-14.0788V-12.952L168.03 -12.9518L168.456 -12.9516L168.425 -14.0064L168.394 -15.0611L168.488 -15.1461L168.582 -15.231L170.527 -15.2437L172.472 -15.2565L171.242 -15.2852L170.012 -15.3138V-17.1189V-18.9241L170.589 -18.9513L171.167 -18.9785L171.193 -21.7652L171.22 -24.5518H171.517H171.814L171.842 -26.0245L171.869 -27.4971L172.394 -27.5244L172.918 -27.5518L172.946 -28.8385L172.973 -30.1252L173.5 -30.1526L174.027 -30.1801V-30.977V-31.774L172.898 -31.8329L171.769 -31.8916L170.74 -31.892L169.711 -31.8924V-31.0315ZM179.468 -30.9669L179.448 -30.1773L178.519 -30.1474L177.591 -30.1175L178.522 -30.0988L179.454 -30.0799L179.506 -30.2012L179.557 -30.3225L179.523 -31.0395L179.488 -31.7565L179.468 -30.9669ZM26.7968 -28.6073L26.7736 -26.455H27.6258H28.4779L28.5056 -22.4448L28.5333 -18.4347L28.5317 -22.4675L28.5302 -26.5003L27.7039 -26.5265L26.8777 -26.5528L26.8488 -28.6562L26.8199 -30.7596L26.7968 -28.6073ZM51.7907 -28.6562L51.7676 -26.5529L50.9395 -26.5265L50.1114 -26.5003L50.1099 -22.4675L50.1083 -18.4347L50.136 -22.4448L50.1637 -26.455H50.9688H51.7739L51.8229 -26.5703L51.8719 -26.6856L51.8429 -28.7226L51.8138 -30.7596L51.7907 -28.6562ZM154.519 -30.1479L154.566 -30.0799H155.411H156.255L156.286 -28.8338L156.317 -27.5878L156.339 -28.8729L156.361 -30.1581L155.417 -30.187L154.472 -30.2159L154.519 -30.1479ZM23.436 -28.3813L24.2642 -28.3507L25.0923 -28.3813L25.9204 -28.4118H24.2642H22.6079L23.436 -28.3813ZM53.5493 -28.3813L54.3774 -28.3507L55.2055 -28.3813L56.0336 -28.4118H54.3774H52.7212L53.5493 -28.3813ZM156.838 -27.4757L157.365 -27.4423L157.892 -27.4757L158.419 -27.5089H157.365H156.311L156.838 -27.4757ZM176.11 -27.4757L176.637 -27.4423L177.164 -27.4757L177.691 -27.5089H176.637H175.583L176.11 -27.4757ZM146.205 -26.8402L148.445 -26.8139L150.621 -26.8402L152.798 -26.8665H148.381L143.964 -26.8664L146.205 -26.8402ZM176.281 -24.869L176.286 -23.8722L177.415 -23.8675L178.545 -23.8628L177.444 -23.8931L176.343 -23.9234L176.309 -24.8946L176.276 -25.8659L176.281 -24.869ZM155.985 -23.8505L156.562 -23.8178L157.139 -23.8505L157.716 -23.8832H156.562H155.407L155.985 -23.8505ZM25.0092 -23.0707L24.9574 -22.949L24.9872 -22.2777L25.017 -21.6066L25.8451 -21.5803L26.6732 -21.5539V-22.3732V-23.1925H25.8671H25.0609L25.0092 -23.0707ZM51.9684 -22.3805V-21.5612H52.7695H53.5706L53.628 -21.768L53.6855 -21.9747L53.655 -22.5609L53.6246 -23.1472L52.7965 -23.1735L51.9684 -23.1998V-22.3805ZM157.064 -21.7425V-21.1988H157.666H158.268V-21.7425V-22.2862H157.666H157.064V-21.7425ZM175.734 -21.7425V-21.1988H176.336H176.938V-21.7425V-22.2862H176.336H175.734V-21.7425ZM160.1 -18.9565L160.778 -18.9249L161.455 -18.9565L162.133 -18.9883H160.778H159.423L160.1 -18.9565ZM172.898 -18.957L173.425 -18.9236L173.952 -18.957L174.479 -18.9902H173.425H172.371L172.898 -18.957ZM160.595 -15.7432L160.577 -15.2266L160 -15.1939L159.423 -15.1612L160.003 -15.1441L160.583 -15.1269L160.636 -15.2517L160.689 -15.3765L160.651 -15.8181L160.613 -16.2597L160.595 -15.7432ZM173.344 -15.6933L173.325 -15.1269L173.952 -15.1441L174.579 -15.1612L174.007 -15.1938L173.435 -15.2263L173.399 -15.743L173.363 -16.2597L173.344 -15.6933ZM48.4992 -13.6316L48.5053 -12.9066L49.3084 -12.9011L50.1114 -12.8957L49.3375 -12.9274L48.5636 -12.9592L48.5283 -13.6579L48.4932 -14.3566L48.4992 -13.6316ZM28.8564 -12.8856L29.283 -12.8509L29.7096 -12.8856L30.1362 -12.9203H29.283H28.4298L28.8564 -12.8856ZM37.2129 -11.366V-9.78011H36.4098H35.6068V-11.366V-12.952H36.4098H37.2129V-11.366ZM43.0348 -11.366V-9.78011H42.2317H41.4287V-11.366V-12.952H42.2317H43.0348V-11.366ZM174.73 16.8861L174.73 16.954L178.469 16.9343L182.208 16.9144L180.903 16.8893L179.598 16.8641L177.164 16.8411L174.73 16.8181L174.73 16.8861ZM153.576 16.9313L155.458 16.958L157.34 16.9313L159.222 16.9044H155.458H151.693L153.576 16.9313ZM38.2449 20.2805L36.6169 20.3116L36.5887 21.3742L36.5604 22.4368L34.9795 22.4617L33.3985 22.4867V24.2968V26.1071H31.4412H29.4838V29.6414V33.1758H31.4412H33.3985V35.0336V36.8913H35.0046H36.6106V37.9788V39.0663H40.2744H43.9382V37.9788V36.8913H45.9959H48.0536V35.0336V33.1758H49.5091H50.9646V29.6414V26.1071H49.5091H48.0536V24.2965V22.4858L46.021 22.4613L43.9883 22.4368L43.96 21.3719L43.9318 20.3071L42.2536 20.3061L40.5755 20.3051L40.2242 20.2773L39.8729 20.2495L38.2449 20.2805ZM42.9344 24.6982V25.5551L43.6119 25.5818L44.2895 25.6086V27.3305V29.0524L43.6119 29.0792L42.9344 29.1059V29.9628V30.8195H39.371H35.8076V29.9621V29.1047L34.9293 29.0785L34.051 29.0524L34.0237 27.3078L33.9965 25.5633H34.902H35.8076V24.7024V23.8415H39.371H42.9344V24.6982ZM162.624 25.4727V26.7867L162.659 26.1297L162.694 25.4727L162.659 24.8157L162.624 24.1586V25.4727ZM171.257 25.4727V26.7867L171.291 26.1297L171.326 25.4727L171.291 24.8157L171.257 24.1586V25.4727ZM175.978 28.8258V30.9555L176.01 29.8906L176.041 28.8258L176.01 27.761L175.978 26.6961V28.8258ZM145.401 27.0812L147.541 27.1076L149.617 27.0812L151.693 27.0547L147.478 27.0548H143.262L145.401 27.0812ZM186.474 27.0807L190.589 27.1059L190.615 49.1719L190.641 71.2379L190.64 49.1483L190.64 27.0586L186.499 27.0571L182.359 27.0555L186.474 27.0807ZM2.00544 38.951L2.38186 38.9867L2.75828 38.951L3.13469 38.9155H2.38186H1.62903L2.00544 38.951ZM8.93149 38.951L9.30791 38.9867L9.68432 38.951L10.0607 38.9155H9.30791H8.55508L8.93149 38.951ZM70.9172 38.9515L71.3465 38.9864L71.7202 38.951L72.094 38.9155L71.291 38.9162L70.488 38.9167L70.9172 38.9515ZM77.7429 38.9515L78.1722 38.9864L78.5459 38.951L78.9197 38.9155L78.1167 38.9162L77.3137 38.9167L77.7429 38.9515ZM155.633 39.2246L156.762 39.2536L157.892 39.2246L159.021 39.1957H156.762H154.504L155.633 39.2246ZM175.98 39.2723L175.931 39.3876L175.96 41.4246L175.989 43.4616L176.012 41.3568L176.035 39.2519L177.716 39.2247L179.398 39.1976L177.713 39.1772L176.029 39.157L175.98 39.2723ZM0.0480824 40.9456L0.575065 40.9789L1.10205 40.9456L1.62903 40.9123H0.575065H-0.4789L0.0480824 40.9456ZM79.601 40.9459L80.1818 40.9787L80.7051 40.9455L81.2284 40.9123L80.1243 40.9127L79.0201 40.9131L79.601 40.9459ZM160.853 43.483L162.584 43.5112V44.7778V46.0444H166.951H171.317V44.7778V43.5112L173.049 43.4841L174.78 43.4571L172.999 43.4367L171.217 43.4163V44.685V45.9538H166.954H162.69L162.662 44.7077L162.635 43.4616L160.878 43.4582L159.121 43.4548L160.853 43.483ZM13.7245 63.0364V64.8036H23.4109H33.0974V63.0364V61.2692H23.4109H13.7245V63.0364ZM47.4514 63.0364V64.8036H57.1378H66.8242V63.0364V61.2692H57.1378H47.4514V63.0364ZM118.965 73.5035V76.2675L118.995 74.8855L119.026 73.5035L118.995 72.1215L118.965 70.7395V73.5035ZM125.79 73.4582L125.79 76.1769L125.821 74.8458L125.852 73.5148L125.821 72.1271L125.79 70.7395L125.79 73.4582ZM208.1 73.5035V76.2675L208.13 74.8855L208.161 73.5035L208.13 72.1215L208.1 70.7395V73.5035ZM161.21 71.1244L162.294 71.1535L163.318 71.1242L164.341 71.0949L162.233 71.095L160.125 71.0952L161.21 71.1244ZM190.634 79.7566L190.64 80.7081L194.931 80.7096L199.222 80.7111L194.96 80.686L190.697 80.6609L190.663 79.7329L190.628 78.805L190.634 79.7566ZM136.819 80.7307L139.009 80.757L141.136 80.7307L143.262 80.7043H138.945L134.629 80.7044L136.819 80.7307ZM27.9781 88.0471V90.4502H28.8815H29.7849V92.7612V95.0721H30.7871H31.7894L31.816 97.6322L31.8427 100.192L32.3696 100.22L32.8966 100.247V105.136V110.025H34.2015H35.5064V113.288V116.55H36.6106H37.7147V118.544V120.537H38.5178H39.3208V118.544V116.55H38.8691H38.4174V113.288V110.025H37.9155H37.4136V105.086V100.147H37.2129H37.0121V97.6095V95.0721H36.6106H36.2091V92.7612V90.4502H35.8578H35.5064V88.7737V87.0971H34.3563H33.2062L33.1769 86.3948L33.1476 85.6925L30.5629 85.6683L27.9781 85.6441V88.0471ZM47.4514 86.3721V87.0971H46.2468H45.0423V88.7737V90.4502H44.691H44.3397V92.7612V95.0721H43.9382H43.5366V97.5989V100.126L43.3359 100.173L43.1351 100.221V105.123V110.025H42.7336H42.3321V113.288V116.55H41.8302H41.3283V118.544V120.537L42.1063 120.538L42.8842 120.538L42.8554 118.544L42.8266 116.55H43.8321H44.8376L44.8667 118.521L44.8959 120.492L44.9189 118.521L44.9419 116.55H45.2933H45.6446V113.288V110.025H46.6483H47.6521V105.136V100.247L48.2293 100.22L48.8065 100.192L48.8332 97.6322L48.8598 95.0721H49.8118H50.7638V92.7612V90.4502H51.6672H52.5706V88.0487V85.6472H50.011H47.4514V86.3721ZM128.485 86.7113L129.167 86.7431L129.79 86.711L130.413 86.6789L129.108 86.6793L127.804 86.6796L128.485 86.7113ZM204.17 86.7113L204.852 86.7431L205.475 86.711L206.098 86.6789L204.793 86.6793L203.488 86.6796L204.17 86.7113ZM36.2494 88.4565V89.8612L36.2837 89.1588L36.3179 88.4565L36.2837 87.7542L36.2494 87.0518V88.4565ZM21.5977 92.7612L21.5978 95.1174L21.629 93.9113L21.6603 92.7052L21.629 91.555L21.5976 90.4049L21.5977 92.7612ZM58.9382 92.7612L58.9383 95.1174L58.9695 93.9113L59.0007 92.7052L58.9694 91.555L58.9381 90.4049L58.9382 92.7612ZM131.643 92.8735L132.27 92.9057L132.898 92.8735L133.525 92.8414H132.27H131.016L131.643 92.8735ZM150.465 92.8715L150.743 92.9093L150.967 92.8703L151.192 92.8311L150.69 92.8324L150.188 92.8336L150.465 92.8715ZM201.004 92.8735L201.631 92.9057L202.259 92.8735L202.886 92.8414H201.631H200.377L201.004 92.8735ZM182.836 93.0532L183.162 93.0898L183.488 93.0532L183.814 93.0167H183.162H182.509L182.836 93.0532ZM150.464 94.2307L150.74 94.2685L151.016 94.2307L151.292 94.193H150.74H150.188L150.464 94.2307ZM182.837 94.2315L183.165 94.2681L183.44 94.2306L183.714 94.193L183.112 94.1939L182.509 94.1948L182.837 94.2315ZM55.4046 97.5837L55.3812 100.141L54.3523 100.17L53.3235 100.199L54.3554 100.219L55.3875 100.238L55.4362 100.123L55.4849 100.009L55.4565 97.5177L55.428 95.0267L55.4046 97.5837ZM155.781 97.3603L155.809 98.7423L156.587 98.7688L157.365 98.7953V100.468V102.141H158.168H158.971V103.953V105.766H159.473H159.975V109.345V112.925H161.077H162.18L162.206 115.295L162.233 117.665L163.111 117.645L163.99 117.626V119.082V120.537H164.692H165.395V119.087V117.637H165.044H164.692V115.286V112.935L164.266 112.908L163.839 112.88L163.813 109.323L163.787 105.766H163.587H163.387V103.908V102.05H163.089H162.79L162.762 100.396L162.735 98.7423L162.459 98.7137L162.183 98.685V97.3788V96.0726L164.266 96.0462L166.349 96.0197L161.051 95.9991L155.753 95.9783L155.781 97.3603ZM170.313 97.3248V98.697H170.012H169.711V100.368V102.039L169.385 102.067L169.059 102.095L169.032 103.931L169.004 105.766H168.856H168.707V109.345V112.925H168.356H168.005V115.281V117.637H167.553H167.101V119.087V120.537H167.754H168.406V119.087V117.637H169.611H170.815V115.285V112.932L171.643 112.906L172.472 112.88L172.498 109.323L172.524 105.766H172.975H173.425V103.957V102.148L174.253 102.122L175.081 102.095L175.109 100.442L175.136 98.7877H175.887H176.637V97.4283V96.0689H174.092H171.547L170.93 96.0107L170.313 95.9525V97.3248ZM56.6326 99.6486L56.6359 101.461H58.5933H60.5506L60.5539 99.6486L60.5574 97.8361L60.5267 99.6259L60.4962 101.416H58.5933H56.6903L56.6598 99.6259L56.6292 97.8361L56.6326 99.6486ZM150.21 98.7621L150.334 98.8409L150.361 100.468L150.389 102.095L151.869 102.099L153.35 102.103L151.897 102.074L150.443 102.045L150.416 100.401L150.389 98.7573L150.238 98.7202L150.087 98.6832L150.21 98.7621ZM182.125 98.7575L182.058 98.8178V100.432V102.045L180.577 102.07L179.096 102.095L179.069 103.927L179.042 105.759L178.216 105.79L177.39 105.822L178.243 105.816L179.096 105.811L179.124 103.978L179.151 102.146L180.629 102.121L182.108 102.095L182.135 100.445L182.163 98.7949L182.988 98.7645L183.814 98.7339L183.003 98.7155L182.191 98.697L182.125 98.7575ZM25.6444 100.214L26.1713 100.247L26.6983 100.214L27.2253 100.181H26.1713H25.1174L25.6444 100.214ZM21.0772 101.483L22.0559 101.513L23.0345 101.483L24.0132 101.454H22.0559H20.0985L21.0772 101.483ZM180.072 105.428L180.05 106.767L181.731 106.742L183.413 106.717L183.417 105.449L183.422 104.18L183.389 105.426L183.357 106.672H181.756H180.156L180.125 105.381L180.094 104.089L180.072 105.428ZM22.8589 105.177V106.128H23.9128H24.9668V105.177V104.225H23.9128H22.8589V105.177ZM55.6248 104.346L55.5736 104.466L55.6029 105.274L55.6321 106.083L56.661 106.109L57.6899 106.135V105.18V104.225H56.683H55.676L55.6248 104.346ZM154.227 105.833L155.054 105.864L155.081 109.372L155.109 112.88L155.133 109.323L155.156 105.766L154.278 105.784L153.4 105.803L154.227 105.833ZM149.866 106.739L150.75 106.77L151.573 106.739L152.396 106.709L150.69 106.709L148.983 106.709L149.866 106.739ZM151.463 109.413L151.493 110.07L152.371 110.097L153.249 110.123V109.44V108.756H152.341H151.434L151.463 109.413ZM179.247 109.436V110.116H180.1H180.953V109.436V108.756H180.1H179.247V109.436ZM31.8378 113.288V116.595L31.8677 114.941L31.8974 113.288L31.8677 111.634L31.8378 109.98V113.288ZM27.5515 114.895L28.0785 114.928L28.6055 114.895L29.1325 114.862H28.0785H27.0245L27.5515 114.895ZM51.9433 114.895L52.4702 114.928L52.9972 114.895L53.5242 114.862H52.4702H51.4163L51.9433 114.895ZM155.432 116.435L155.859 116.47L156.286 116.435L156.712 116.4H155.859H155.006L155.432 116.435ZM176.11 116.435L176.537 116.47L176.963 116.435L177.39 116.4H176.537H175.684L176.11 116.435Z" fill="#FFC114"/>
<path fill-rule="evenodd" clip-rule="evenodd" d="M160.352 -104.55L160.326 -100.45L156.754 -100.485L153.182 -100.52L153.115 -98.0461L153.049 -95.5717V-93.2756V-90.9793H149.044H145.039L144.981 -89.688L144.923 -88.3966L144.871 -77.0685L144.82 -65.7405L144.793 -60.7562L144.767 -55.7719L148.757 -55.7482L152.747 -55.7245V-53.0216V-50.3187L157.733 -50.2586L162.718 -50.1985H165.324H167.929L167.867 -49.9153L167.804 -49.6321V-44.6898V-39.7475L156.21 -39.8117L144.617 -39.8757V-38.7035V-37.5313L146.85 -37.4784L149.084 -37.4255L169.647 -37.327L190.21 -37.2285L190.247 -37.2622L190.285 -37.2959L190.347 -50.1589L190.409 -63.0218L190.444 -63.0741L190.48 -63.1264L190.551 -76.9169L190.621 -90.7075L187.569 -90.7079L184.517 -90.7084L183.531 -90.7674L182.545 -90.8263L182.578 -95.556L182.61 -100.286L180.059 -100.345L177.508 -100.404H176.47H175.433V-104.468V-108.531L171.2 -108.591L166.968 -108.651H163.673H160.378L160.352 -104.55ZM54.9459 -91.0926L54.8809 -87.9434L54.8801 -84.9982L54.8793 -82.0529L54.772 -67.8714L54.6646 -53.69L54.6344 -53.6628L54.6042 -53.6355L47.0629 -53.6405L39.5215 -53.6455V-48.2658V-42.8861L39.4563 -41.9231L39.3911 -40.9602L38.1765 -40.9318L36.9619 -40.9033L45.3936 -40.8611L53.8253 -40.8189H58.1918H62.5582L62.5865 -41.8837L62.6147 -42.9485H63.5131H64.4114L64.4655 -43.1524L64.5196 -43.3563L64.643 -61.9343L64.7665 -80.5123L64.736 -81.7583L64.7055 -83.0044H63.7824L62.8593 -83.0043L62.8873 -88.6231L62.9154 -94.2418H58.9631H55.0108L54.9459 -91.0926ZM171.706 -93.5508L172.02 -93.4942V-92.3274V-91.1606H174.278H176.537V-89.1691V-87.1777L178.168 -87.1527L179.799 -87.1278L179.793 -86.8786L179.787 -86.6294L179.768 -82.9591L179.749 -79.2888H178.155H176.562L176.499 -79.0056L176.436 -78.7224V-77.0232V-75.3239L174.153 -75.3354L171.869 -75.3467L171.841 -74.1459L171.813 -72.9451H170.226H168.64L166.064 -73.0049L163.488 -73.0649V-74.2284V-75.392H161.731H159.975V-77.3857V-79.3795L158.394 -79.3803L156.813 -79.381L156.286 -79.4382L155.759 -79.4954V-83.3795V-87.2638H157.917H160.075V-89.2538V-91.2439H161.794H163.513L163.548 -91.2754L163.583 -91.3069L163.651 -92.4572L163.719 -93.6074H167.556H171.393L171.706 -93.5508ZM125.144 -89.0309V-86.5388H128.155H131.166V-89.0309V-91.5231H128.155H125.144V-89.0309ZM204.04 -89.0309V-86.5388H207.052H210.063V-89.0309V-91.5231H207.052H204.04V-89.0309ZM16.3594 -83.2088L15.4309 -83.1789L15.4303 -82.0721L15.4296 -80.9654L15.3777 -78.2467L15.3258 -75.5279L15.2256 -61.164L15.1252 -46.8001L15.1929 -45.0195L15.2607 -43.239L17.0773 -43.1785L18.894 -43.1181L21.5038 -43.1465L24.1136 -43.1751L24.1745 -49.8813L24.2355 -56.5875L24.3142 -69.9319L24.3928 -83.2763L20.8404 -83.2574L17.2879 -83.2387L16.3594 -83.2088ZM-8.86041 -70.6342V-62.1609H-8.10758H-7.35475L-7.33949 -65.2194L-7.32413 -68.278L-7.30085 -68.3686L-7.27756 -68.4592L-7.26592 -69.3881L-7.25437 -70.317H-5.24682H-3.23927V-70.9514V-71.5858H-1.83399H-0.428702V-75.3467V-79.1076H-4.64456H-8.86041V-70.6342ZM81.0778 -75.1232V-71.1388L82.1569 -71.1131L83.236 -71.0873L83.2655 -70.4303L83.295 -69.7733H85.2981H87.3012V-65.9671V-62.1609H88.3542H89.4072L89.4333 -70.6342L89.4594 -79.1076H85.2686H81.0778V-75.1232ZM144.656 -46.5282L144.656 -45.3501L144.691 -45.9656L144.727 -46.581L144.691 -47.1437L144.655 -47.7063L144.656 -46.5282ZM19.8288 -40.9775L21.4662 -40.9503L23.0409 -40.9776L24.6155 -41.0051L21.4034 -41.005L18.1913 -41.0049L19.8288 -40.9775ZM21.2528 -36.6167V-34.5205H22.6079H23.963V-32.6174V-30.7143H25.4185H26.874V-28.6335V-26.5529L27.7021 -26.5265L28.5302 -26.5002L28.5563 -22.4448L28.5825 -18.3894H30.4886H32.3947V-15.716V-13.0426H33.9004H35.4061V-15.716V-18.3894H34.3521H33.2981V-22.4222V-26.4549H32.7963H32.2944V-28.5846V-30.7143H31.4913H30.6883V-32.6174V-34.5205H29.9355H29.1827L29.1823 -36.5822L29.1818 -38.6439L25.2174 -38.6784L21.2528 -38.7129V-36.6167ZM49.4589 -36.5142V-34.5205H48.7061H47.9533V-32.6174V-30.7143H47.1502H46.3472V-28.5846V-26.4549H45.8453H45.3434V-22.4222V-18.3894H44.5404H43.7374V-15.716V-13.0426H45.4438H47.1502V-15.716V-18.3894H48.6047H50.0591L50.0853 -22.4448L50.1114 -26.5002L50.9395 -26.5265L51.7676 -26.5529V-28.6335V-30.7143H53.2231H54.6786V-32.6148V-34.5152L56.0086 -34.5405L57.3386 -34.5658L57.3657 -36.5369L57.3927 -38.5079H53.4258H49.4589V-36.5142ZM138.013 -32.8213L138.042 -32.0283L139.472 -32.0032L140.903 -31.978V-30.6212V-29.2643H142.459H144.015V-28.0862V-26.9081H148.381H152.747V-30.2611V-33.6142H145.366H137.984L138.013 -32.8213ZM182.537 -30.2611L182.564 -26.9081H186.878H191.192V-28.0862V-29.2643H192.798H194.404V-30.6236V-31.983H195.809H197.215V-32.7986V-33.6142H189.862L182.509 -33.6143L182.537 -30.2611ZM154.475 -31.0768L154.504 -30.2158L155.432 -30.1897L156.361 -30.1637V-28.853V-27.5424H157.365H158.369V-26.0471V-24.5518H158.921H159.473V-21.7904V-19.029L160.803 -19.0037L162.133 -18.9784L162.16 -17.1433L162.187 -15.3082H163.239H164.291V-17.1206V-18.9331H163.538H162.785V-21.7368V-24.5403L162.459 -24.5688L162.133 -24.5971L162.105 -26.0698L162.077 -27.5424H161.528H160.978V-28.8565V-30.1705H160.476H159.975V-31.0286V-31.8868L157.211 -31.9122L154.447 -31.9377L154.475 -31.0768ZM174.027 -30.9909V-30.18L173.5 -30.1526L172.973 -30.1252L172.946 -28.8384L172.918 -27.5518L172.394 -27.5244L171.869 -27.4971L171.842 -26.0245L171.814 -24.5518H171.517H171.22L171.193 -21.7651L171.167 -18.9784L170.589 -18.9512L170.012 -18.9241V-17.1161V-15.3082H171.217H172.421V-17.166V-19.0238H173.425H174.429V-21.7833V-24.5428L175.006 -24.57L175.583 -24.5971L175.611 -26.0698L175.638 -27.5424H176.64H177.641V-28.8565V-30.1705H178.537H179.434L179.466 -30.9863L179.498 -31.8022L176.763 -31.8019L174.027 -31.8018V-30.9909ZM22.6581 -26.9081V-25.4581H24.2642H25.8702V-26.9081V-28.358H24.2642H22.6581V-26.9081ZM52.7714 -26.9058V-25.4534L54.3523 -25.4785L55.9333 -25.5034L55.9609 -26.9307L55.9886 -28.358H54.3799H52.7714V-26.9058ZM155.458 -24.9143V-23.9175H156.562H157.666V-24.9143V-25.9112H156.562H155.458V-24.9143ZM176.336 -24.9143V-23.9175H177.44H178.544V-24.9143V-25.9112H177.44H176.336V-24.9143ZM159.473 -15.716V-15.2175H160.025H160.577V-15.716V-16.2144H160.025H159.473V-15.716ZM173.425 -15.716V-15.2175H173.977H174.529V-15.716V-16.2144H173.977H173.425V-15.716ZM164.391 -14.0847V-12.9519H164.943H165.495V-14.0847V-15.2175H164.943H164.391V-14.0847ZM168.45 -15.0985L168.399 -14.9793L168.428 -13.9883L168.456 -12.9972H169.009H169.561L169.589 -14.1074L169.617 -15.2175H169.059H168.5L168.45 -15.0985ZM28.48 -13.6769V-12.9519H29.283H30.0861V-13.6769V-14.4019H29.283H28.48V-13.6769ZM48.5555 -13.6769V-12.9519H49.3585H50.1616V-13.6769V-14.4019H49.3585H48.5555V-13.6769ZM35.6068 -11.366V-9.78008H36.4098H37.2129V-11.366V-12.9519H36.4098H35.6068V-11.366ZM41.4287 -11.366V-9.78008H42.2317H43.0348V-11.366V-12.9519H42.2317H41.4287V-11.366ZM159.172 12.6041V16.954H155.407H151.643V22.029V27.104H147.478H143.312V49.0243V70.9447L147.653 70.9971L151.995 71.0496L167.096 71.1411L182.197 71.2327L182.227 71.2055L182.258 71.1782L182.258 49.1185L182.259 27.0586L182.259 22.0063L182.258 16.954H178.494H174.73V12.6041V8.25413H166.951H159.172V12.6041ZM171.317 25.4727V26.7415H173.676H176.035V28.8711V31.0008H177.691H179.347V35.1242V39.2476H177.691H176.035V41.3183V43.3889L175.056 43.4475L174.078 43.506L172.697 43.5065L171.317 43.5069V44.7757V46.0444H166.951H162.584V44.7757V43.5069H160.936H159.288L159.13 43.4519L158.971 43.3969V41.3223V39.2476H156.762H154.554V35.1242V31.0008H156.762H158.971V28.8711V26.7415H160.778H162.584V25.4727V24.204H166.951H171.317V25.4727ZM3.25184 26.0769L3.18489 26.1373V28.2972V30.457H5.84489H8.5049V28.2368V26.0165H5.91185H3.31869L3.25184 26.0769ZM72.0439 28.2368V30.457H74.7039H77.3639V28.2368V26.0165H74.7039H72.0439V28.2368ZM119.021 73.5035V76.2223L122.408 76.2224H125.796L125.768 73.5036L125.74 70.7848H122.38H119.021V73.5035ZM208.156 73.5024V76.2223H211.57H214.984L214.958 73.5262L214.931 70.8301L211.544 70.8063L208.156 70.7823V73.5024ZM143.29 79.6371L143.262 80.7082L138.971 80.7318L134.679 80.7554V82.1138V83.4722H132.521H130.363V85.1034V86.7347H129.108H127.854V87.6409V88.5471H134.428H141.003V85.5557V82.5643L152.271 82.6115L163.538 82.6587L164.868 82.7022L166.198 82.7458V80.934V79.1222H174.235H182.273L182.239 78.9636L182.206 78.805L172.671 78.7487L163.136 78.6923L153.227 78.6292L143.318 78.5663L143.29 79.6371ZM190.59 81.7698V82.8315L191.61 82.8573L192.63 82.8831L192.606 85.7151L192.583 88.5471H199.315H206.048V87.6409V86.7347H204.793H203.538V85.1034V83.4722H201.38H199.222V82.1147V80.7573L194.906 80.7327L190.59 80.7082L190.59 81.7698ZM18.3653 88.0261L18.3921 90.4049L20.0232 90.4299L21.6544 90.4548V92.7634V95.0721H23.411H25.1676V97.6096V100.147H26.1713H27.1751V105.086V110.025H29.534H31.8929V113.288V116.55H33.6996H35.5064V113.288V110.025H34.2015H32.8966V105.136V100.247L32.3696 100.22L31.8427 100.192L31.816 97.6322L31.7894 95.0721H30.7871H29.7849V92.7612V90.4503H28.8815H27.9781V88.0487V85.6472H23.1583H18.3386L18.3653 88.0261ZM52.5706 88.0487V90.4503H51.6672H50.7638V92.7612V95.0721H49.8118H48.8598L48.8332 97.6322L48.8065 100.192L48.2293 100.22L47.6521 100.247V105.136V110.025H46.6483H45.6446V113.288V116.55H47.7525H49.8604V113.288V110.025H51.617H53.3736V105.086V100.147H54.3774H55.3812V97.6096V95.0721H57.1378H58.8944V92.7634V90.4548L60.5255 90.4299L62.1567 90.4049L62.1835 88.0261L62.2102 85.6472H57.3904H52.5706V88.0487ZM142.408 91.4924V92.8065H146.267H150.126L152.365 92.8471L154.604 92.8878L172.983 92.9498L191.362 93.0117L191.427 92.6599L191.491 92.308L191.492 91.39L191.493 90.472L185.245 90.4179L178.996 90.3638L164.391 90.2693L149.786 90.1748L146.097 90.1766L142.408 90.1784V91.4924ZM147.695 94.2263L147.628 94.2867V96.4919V98.6971L148.858 98.7075L150.087 98.718L150.238 98.7301L150.389 98.7424L150.416 100.396L150.443 102.05H151.896H153.35V103.908V105.766H154.253H155.156V109.345V112.925H157.114H159.071V115.281V117.638H160.627H162.183V115.281V112.925H161.079H159.975V109.345V105.766H159.473H158.971V103.953V102.141H158.168H157.365V100.468V98.7953L156.587 98.7688L155.809 98.7424V97.3149V95.8875L153.525 95.8876L151.242 95.8877V95.0854V94.283L150.474 94.2245L149.706 94.1658H148.734H147.762L147.695 94.2263ZM183.137 94.2309L182.559 94.2655V95.1673V96.069H179.598H176.637V97.4283V98.7877H175.887H175.136L175.109 100.442L175.081 102.095L174.253 102.122L173.425 102.148V103.957V105.766H172.975H172.524L172.498 109.323L172.472 112.88L171.643 112.906L170.815 112.932V115.285V117.638H172.572H174.329V115.284V112.93L175.809 112.905L177.29 112.88L177.316 109.323L177.342 105.766H178.192H179.042L179.069 103.931L179.096 102.095L180.575 102.07L182.053 102.045L182.08 100.394L182.108 98.7424L183.49 98.7172L184.872 98.6919L184.845 96.4516L184.818 94.2112L184.266 94.2037L183.714 94.1963L183.137 94.2309ZM20.0483 99.6486V101.416H22.0057H23.963V99.6486V97.8814H22.0057H20.0483V99.6486ZM56.6861 99.6486V101.416H58.5933H60.5004V99.6486V97.8814H58.5933H56.6861V99.6486ZM149.1 104.195L149.033 104.255V105.464V106.672H150.69H152.346V105.403V104.135H150.757H149.167L149.1 104.195ZM180.15 105.403V106.672H181.756H183.363V105.403V104.135H181.756H180.15V105.403ZM27.0962 115.802L27.1249 116.686H28.0785H29.0321L29.0608 115.802L29.0895 114.919H28.0785H27.0675L27.0962 115.802ZM51.4879 115.802L51.5167 116.686H52.4702H53.4238L53.4525 115.802L53.4813 114.919H52.4702H51.4592L51.4879 115.802ZM155.056 117.094V117.728H155.909H156.762V117.094V116.459H155.909H155.056V117.094ZM175.734 117.094V117.728H176.587H177.44V117.094V116.459H176.587H175.734V117.094ZM35.7072 118.544V120.537H36.711H37.7148V118.544V116.55H36.711H35.7072V118.544ZM42.8571 118.521L42.8842 120.492L43.8629 120.518L44.8416 120.544V118.547V116.55H43.8358H42.8301L42.8571 118.521ZM162.384 119.087V120.537H163.187H163.99V119.087V117.638H163.187H162.384V119.087ZM168.406 119.087V120.537H169.259H170.113V119.087V117.638H169.259H168.406V119.087Z" fill="#F14C5A"/>
</g>
</svg>
